<?xml version="1.0" encoding="utf-8"?>
<!-- Generator: Adobe Illustrator 16.0.0, SVG Export Plug-In . SVG Version: 6.00 Build 0)  -->
<!DOCTYPE svg PUBLIC "-//W3C//DTD SVG 1.1//EN" "http://www.w3.org/Graphics/SVG/1.1/DTD/svg11.dtd">
<svg version="1.1" id="Layer_1" xmlns="http://www.w3.org/2000/svg" xmlns:xlink="http://www.w3.org/1999/xlink" x="0px" y="0px"
	 width="1400px" height="980px" viewBox="0 0 1400 980" enable-background="new 0 0 1400 980" xml:space="preserve">
<g>
	<rect x="91.3" y="61.9" fill="#33B63F" width="377.6" height="252.8"/>
	<rect x="110.1" y="74.4" fill="#33B63F" width="340.1" height="227.7"/>
	<g opacity="0.15">
		<g>
			<defs>
				<rect id="SVGID_1_" x="111.2" y="74.4" width="336.8" height="227.7"/>
			</defs>
			<clipPath id="SVGID_2_">
				<use xlink:href="#SVGID_1_"  overflow="visible"/>
			</clipPath>
			<rect x="201.6" y="74.4" clip-path="url(#SVGID_2_)" fill="#FFFFFF" width="20.4" height="227.7"/>
			<rect x="156.4" y="74.4" clip-path="url(#SVGID_2_)" fill="#FFFFFF" width="20.4" height="227.7"/>
			<rect x="246.8" y="74.4" clip-path="url(#SVGID_2_)" fill="#FFFFFF" width="20.4" height="227.7"/>
			<rect x="111.2" y="74.4" clip-path="url(#SVGID_2_)" fill="#FFFFFF" width="20.4" height="227.7"/>
			<rect x="427.6" y="74.4" clip-path="url(#SVGID_2_)" fill="#FFFFFF" width="20.4" height="227.7"/>
			<rect x="382.4" y="74.4" clip-path="url(#SVGID_2_)" fill="#FFFFFF" width="20.4" height="227.7"/>
			<rect x="337.2" y="74.4" clip-path="url(#SVGID_2_)" fill="#FFFFFF" width="20.4" height="227.7"/>
			<rect x="292" y="74.4" clip-path="url(#SVGID_2_)" fill="#FFFFFF" width="20.4" height="227.7"/>
		</g>
	</g>
	<polygon fill="#FFFFFF" points="163.6,253.1 110.1,253.1 110.1,252 162.5,252 162.5,124.6 110.1,124.6 110.1,123.5 163.6,123.5 	
		"/>
	<polygon fill="#FFFFFF" points="127.9,218 110.1,218 110.1,216.9 126.8,216.9 126.8,159.4 110.1,159.4 110.1,158.3 127.9,158.3 	
		"/>
	<polygon fill="#FFFFFF" points="450.2,253.1 396.7,253.1 396.7,123.5 450.2,123.5 450.2,124.6 397.8,124.6 397.8,252 450.2,252 	
		"/>
	<polygon fill="#FFFFFF" points="450.2,218 432.4,218 432.4,158.3 450.2,158.3 450.2,159.4 433.5,159.4 433.5,216.9 450.2,216.9 	
		"/>
	<rect x="279.7" y="74.4" fill="#FFFFFF" width="1.1" height="227.7"/>
	<path fill="#FFFFFF" d="M450.8,302.7H109.5V73.9h341.2V302.7z M110.6,301.6h339V75h-339V301.6z"/>
	<path fill="#FFFFFF" d="M280.2,218.5c-16.8,0-30.5-13.7-30.5-30.5c0-16.8,13.7-30.5,30.5-30.5c16.8,0,30.5,13.7,30.5,30.5
		C310.7,204.8,297.1,218.5,280.2,218.5 M280.2,158.6c-16.2,0-29.4,13.2-29.4,29.4c0,16.2,13.2,29.4,29.4,29.4
		c16.2,0,29.4-13.2,29.4-29.4C309.6,171.8,296.5,158.6,280.2,158.6"/>
	<path fill="#FFFFFF" d="M396.9,211.9c-7.3-5.8-11.6-14.5-11.6-23.9c0-9.4,4.3-18.2,11.7-24l0.7,0.9c-7.2,5.6-11.3,14.1-11.3,23.2
		c0,9,4.1,17.4,11.1,23L396.9,211.9z"/>
	<path fill="#FFFFFF" d="M163.5,211.9l-0.7-0.9c7.1-5.6,11.1-14,11.1-23c0-9.1-4.1-17.6-11.3-23.2l0.7-0.9
		c7.4,5.8,11.7,14.6,11.7,24C175.1,197.4,170.9,206.1,163.5,211.9"/>
	<path fill="#FFFFFF" d="M450.2,82.9c-4.6,0-8.4-3.8-8.4-8.4l0-0.1l1.1,0l0,0c0,4,3.3,7.2,7.3,7.2V82.9z"/>
	<path fill="#FFFFFF" d="M441.9,302.2l0-0.1c0-0.1,0-0.3,0-0.4c0-4.6,3.8-8.4,8.4-8.4v1.1c-4,0-7.3,3.3-7.3,7.3c0,0.1,0,0.2,0,0.4
		l0,0.1L441.9,302.2z"/>
	<path fill="#FFFFFF" d="M110.1,82.9v-1.1c4,0,7.3-3.3,7.3-7.3l1.1,0C118.5,79.1,114.7,82.9,110.1,82.9"/>
	<path fill="#FFFFFF" d="M118.4,302.2l-1.1-0.1l0-0.1c0-0.1,0-0.2,0-0.4c0-4-3.3-7.3-7.3-7.3v-1.1c4.6,0,8.4,3.8,8.4,8.4
		c0,0.1,0,0.3,0,0.4L118.4,302.2z"/>
	<path fill="#FFFFFF" d="M281.8,188.3c0,0.8-0.7,1.5-1.5,1.5c-0.8,0-1.5-0.7-1.5-1.5c0-0.8,0.7-1.5,1.5-1.5
		C281.1,186.8,281.8,187.4,281.8,188.3"/>
	<path fill="#FFFFFF" d="M417.1,188.3c0,0.8-0.7,1.5-1.5,1.5c-0.8,0-1.5-0.7-1.5-1.5c0-0.8,0.7-1.5,1.5-1.5
		C416.5,186.8,417.1,187.4,417.1,188.3"/>
	<path fill="#FFFFFF" d="M146.3,188.3c0,0.8-0.7,1.5-1.5,1.5s-1.5-0.7-1.5-1.5c0-0.8,0.7-1.5,1.5-1.5S146.3,187.4,146.3,188.3"/>
</g>
<g>
	<polygon fill="#258C39" points="469,898.6 91.4,898.6 91.3,877.3 149.4,768.1 411,768.1 468.9,877.3 	"/>
	<polygon fill="#33B63F" points="406.8,573.5 469,877.4 91.8,877.4 154,573.5 	"/>
	<polygon fill="#33B63F" points="396.1,583.8 446.2,855.4 114.5,855.4 164.7,583.8 	"/>
	<g opacity="0.15">
		<g>
			<defs>
				<rect id="SVGID_3_" x="114.8" y="585" width="331.2" height="269.1"/>
			</defs>
			<clipPath id="SVGID_4_">
				<use xlink:href="#SVGID_3_"  overflow="visible"/>
			</clipPath>
			<polygon clip-path="url(#SVGID_4_)" fill="#FFFFFF" points="135.2,743.3 131.8,761.6 428.9,761.6 425.5,743.3 			"/>
			<polygon clip-path="url(#SVGID_4_)" fill="#FFFFFF" points="127.5,785.1 123.8,805.4 437,805.4 433.2,785.1 			"/>
			<polygon clip-path="url(#SVGID_4_)" fill="#FFFFFF" points="142.2,705.6 139.1,722.2 421.6,722.2 418.6,705.6 			"/>
			<polygon clip-path="url(#SVGID_4_)" fill="#FFFFFF" points="446,854.1 441.8,831.5 119,831.5 114.8,854.1 			"/>
			<polygon clip-path="url(#SVGID_4_)" fill="#FFFFFF" points="164.4,585 162.3,596.7 398.5,596.7 396.3,585 			"/>
			<polygon clip-path="url(#SVGID_4_)" fill="#FFFFFF" points="159.6,611.4 157.2,624 403.5,624 401.2,611.4 			"/>
			<polygon clip-path="url(#SVGID_4_)" fill="#FFFFFF" points="154.3,640 151.7,653.8 409,653.8 406.5,640 			"/>
			<polygon clip-path="url(#SVGID_4_)" fill="#FFFFFF" points="148.5,671.3 145.7,686.4 415,686.4 412.3,671.3 			"/>
		</g>
	</g>
	<polygon fill="#FFFFFF" points="368.7,798.1 374.8,855.4 373.1,855.4 367.3,799.2 193.4,799.2 187.6,855.4 186,855.4 192,798.1 	
		"/>
	<polygon fill="#FFFFFF" points="322.7,835.5 323.6,855.4 322,855.4 321.1,836.7 239.2,836.7 238.4,855.4 236.7,855.4 237.7,835.5 	
		"/>
	<polygon fill="#FFFFFF" points="346.2,583.8 349.5,615.1 211.3,615.1 214.5,583.8 215.7,583.8 212.5,614.4 348.3,614.4 
		345.1,583.8 	"/>
	<polygon fill="#FFFFFF" points="310.6,583.8 311,593.9 249.4,593.9 249.9,583.8 251.1,583.8 250.6,593.3 309.9,593.3 309.4,583.8 	
		"/>
	<polygon fill="#FFFFFF" points="416.6,694.9 416.8,695.8 144,695.8 144.2,694.9 	"/>
	<path fill="#FFFFFF" d="M396.6,583.5L447.1,856H113.6l50.5-272.5H396.6z M445.3,854.8l-49.7-270.7H165.2l-49.7,270.7H445.3z"/>
	<path fill="#FFFFFF" d="M316.6,695.4c0.6,13.2-15.7,24.4-36.5,24.4c-20.8,0-37.2-11.1-36.5-24.4c0.6-12.8,17-22.9,36.5-22.9
		C299.6,672.5,316,682.6,316.6,695.4 M244.8,695.4c-0.6,12.7,15.2,23.5,35.2,23.5c20,0,35.8-10.7,35.2-23.5
		c-0.6-12.3-16.4-22-35.2-22C261.2,673.3,245.4,683,244.8,695.4"/>
	<path fill="#FFFFFF" d="M305.6,615c-6.1,4.5-15.4,7.2-25.5,7.2c-10.2,0-19.6-2.7-25.6-7.3l0.9-0.4c5.9,4.4,14.9,7,24.7,7
		c9.7,0,18.7-2.5,24.6-6.9L305.6,615z"/>
	<path fill="#FFFFFF" d="M312.6,798.2l-1.2,0.7c-7.9-7.1-19.3-11-31.5-11c-12.3,0-23.8,4.1-31.6,11.2l-1.2-0.7
		c8.2-7.4,20.1-11.6,32.8-11.6C292.6,786.7,304.5,790.9,312.6,798.2"/>
	<path fill="#FFFFFF" d="M173.2,583.8c-0.4,2.6-4.6,4.7-9.4,4.7l-0.1,0l0.2-0.6l0,0c4.1,0,7.7-1.8,8.1-4.1H173.2z"/>
	<path fill="#FFFFFF" d="M397,588.5l-0.1,0c-0.1,0-0.3,0-0.4,0c-4.7,0-8.9-2.1-9.4-4.7h1.1c0.4,2.2,4,4.1,8.1,4.1c0.1,0,0.2,0,0.4,0
		l0.1,0L397,588.5z"/>
	<path fill="#FFFFFF" d="M126.8,855.4h-1.6c0.8-4.6-3.3-8.2-9.1-8.2l0.2-1.2C123,845.9,127.7,850.2,126.8,855.4"/>
	<path fill="#FFFFFF" d="M444.5,846l0.1,1.2l-0.2,0c-0.2,0-0.4,0-0.5,0c-5.8,0-9.8,3.7-9.1,8.2h-1.6c-0.9-5.2,3.8-9.5,10.4-9.5
		c0.2,0,0.4,0,0.6,0L444.5,846z"/>
	<path fill="#FFFFFF" d="M280.4,694.2c1,0,1.8,0.5,1.8,1.2c0,0.6-0.8,1.2-1.8,1.2c-1,0-1.8-0.5-1.8-1.2
		C278.6,694.7,279.4,694.2,280.4,694.2"/>
	<path fill="#FFFFFF" d="M280.4,602.8c0.9,0,1.6,0.4,1.6,0.9c0,0.5-0.7,0.9-1.6,0.9c-0.9,0-1.6-0.4-1.6-0.9
		C278.8,603.2,279.5,602.8,280.4,602.8"/>
	<path fill="#FFFFFF" d="M280.4,815.8c1.2,0,2.1,0.7,2.1,1.6c0,0.9-0.9,1.6-2.1,1.6c-1.2,0-2.1-0.7-2.1-1.6
		C278.3,816.5,279.2,815.8,280.4,815.8"/>
</g>
<g>
	<rect x="512.3" y="61.9" fill="#33B63F" width="377.6" height="252.8"/>
	<rect x="531" y="74.4" fill="#33B63F" width="340.1" height="227.7"/>
	<g opacity="0.15">
		<g>
			<defs>
				<rect id="SVGID_5_" x="582.5" y="73.4" width="20.4" height="227.7"/>
			</defs>
			<clipPath id="SVGID_6_">
				<use xlink:href="#SVGID_5_"  overflow="visible"/>
			</clipPath>
			<rect x="582.5" y="73.4" clip-path="url(#SVGID_6_)" fill="#FFFFFF" width="20.4" height="227.7"/>
		</g>
	</g>
	<g opacity="0.15">
		<g>
			<defs>
				<rect id="SVGID_7_" x="532.1" y="74.4" width="20.4" height="227.7"/>
			</defs>
			<clipPath id="SVGID_8_">
				<use xlink:href="#SVGID_7_"  overflow="visible"/>
			</clipPath>
			<rect x="532.1" y="74.4" clip-path="url(#SVGID_8_)" fill="#FFFFFF" width="20.4" height="227.7"/>
		</g>
	</g>
	<g opacity="0.15">
		<g>
			<defs>
				<rect id="SVGID_9_" x="848.6" y="74.4" width="20.4" height="227.7"/>
			</defs>
			<clipPath id="SVGID_10_">
				<use xlink:href="#SVGID_9_"  overflow="visible"/>
			</clipPath>
			<rect x="848.6" y="74.4" clip-path="url(#SVGID_10_)" fill="#FFFFFF" width="20.4" height="227.7"/>
		</g>
	</g>
	<g opacity="0.15">
		<g>
			<defs>
				<rect id="SVGID_11_" x="726.4" y="74.4" width="20.4" height="227.7"/>
			</defs>
			<clipPath id="SVGID_12_">
				<use xlink:href="#SVGID_11_"  overflow="visible"/>
			</clipPath>
			<rect x="726.4" y="74.4" clip-path="url(#SVGID_12_)" fill="#FFFFFF" width="20.4" height="227.7"/>
		</g>
	</g>
	<g opacity="0.15">
		<g>
			<defs>
				<rect id="SVGID_13_" x="796.4" y="74.4" width="20.4" height="227.7"/>
			</defs>
			<clipPath id="SVGID_14_">
				<use xlink:href="#SVGID_13_"  overflow="visible"/>
			</clipPath>
			<rect x="796.4" y="74.4" clip-path="url(#SVGID_14_)" fill="#FFFFFF" width="20.4" height="227.7"/>
		</g>
	</g>
	<g opacity="0.15">
		<g>
			<defs>
				<rect id="SVGID_15_" x="657.9" y="73.4" width="20.4" height="227.7"/>
			</defs>
			<clipPath id="SVGID_16_">
				<use xlink:href="#SVGID_15_"  overflow="visible"/>
			</clipPath>
			<rect x="657.9" y="73.4" clip-path="url(#SVGID_16_)" fill="#FFFFFF" width="20.4" height="227.7"/>
		</g>
	</g>
	<g opacity="0.15">
		<g>
			<defs>
				<rect id="SVGID_17_" x="531" y="265.1" width="340.1" height="20.4"/>
			</defs>
			<clipPath id="SVGID_18_">
				<use xlink:href="#SVGID_17_"  overflow="visible"/>
			</clipPath>
			<rect x="531" y="265.1" clip-path="url(#SVGID_18_)" fill="#FFFFFF" width="340.1" height="20.4"/>
		</g>
	</g>
	<g opacity="0.15">
		<g>
			<defs>
				<rect id="SVGID_19_" x="531" y="207.2" width="340.1" height="20.4"/>
			</defs>
			<clipPath id="SVGID_20_">
				<use xlink:href="#SVGID_19_"  overflow="visible"/>
			</clipPath>
			<rect x="531" y="207.2" clip-path="url(#SVGID_20_)" fill="#FFFFFF" width="340.1" height="20.4"/>
		</g>
	</g>
	<g opacity="0.15">
		<g>
			<defs>
				<rect id="SVGID_21_" x="531" y="94.4" width="340.1" height="20.4"/>
			</defs>
			<clipPath id="SVGID_22_">
				<use xlink:href="#SVGID_21_"  overflow="visible"/>
			</clipPath>
			<rect x="531" y="94.4" clip-path="url(#SVGID_22_)" fill="#FFFFFF" width="340.1" height="20.4"/>
		</g>
	</g>
	<g opacity="0.15">
		<g>
			<defs>
				<rect id="SVGID_23_" x="531" y="148.5" width="340.1" height="20.4"/>
			</defs>
			<clipPath id="SVGID_24_">
				<use xlink:href="#SVGID_23_"  overflow="visible"/>
			</clipPath>
			<rect x="531" y="148.5" clip-path="url(#SVGID_24_)" fill="#FFFFFF" width="340.1" height="20.4"/>
		</g>
	</g>
	<polygon fill="#FFFFFF" points="584.5,253.1 531,253.1 531,252 583.4,252 583.4,124.6 531,124.6 531,123.5 584.5,123.5 	"/>
	<polygon fill="#FFFFFF" points="548.9,218 531,218 531,216.9 547.8,216.9 547.8,159.4 531,159.4 531,158.3 548.9,158.3 	"/>
	<polygon fill="#FFFFFF" points="871.2,253.1 817.7,253.1 817.7,123.5 871.2,123.5 871.2,124.6 818.8,124.6 818.8,252 871.2,252 	
		"/>
	<polygon fill="#FFFFFF" points="871.2,218 853.3,218 853.3,158.3 871.2,158.3 871.2,159.4 854.4,159.4 854.4,216.9 871.2,216.9 	
		"/>
	<rect x="700.7" y="74.4" fill="#FFFFFF" width="1.1" height="227.7"/>
	<path fill="#FFFFFF" d="M871.7,302.7H530.5V73.9h341.2V302.7z M531.6,301.6h339V75h-339V301.6z"/>
	<path fill="#FFFFFF" d="M701.2,218.5c-16.8,0-30.5-13.7-30.5-30.5c0-16.8,13.7-30.5,30.5-30.5c16.8,0,30.5,13.7,30.5,30.5
		C731.7,204.8,718,218.5,701.2,218.5 M701.2,158.6c-16.2,0-29.4,13.2-29.4,29.4c0,16.2,13.2,29.4,29.4,29.4s29.4-13.2,29.4-29.4
		C730.6,171.8,717.4,158.6,701.2,158.6"/>
	<path fill="#FFFFFF" d="M817.8,211.9c-7.3-5.8-11.6-14.5-11.6-23.9c0-9.4,4.3-18.2,11.7-24l0.7,0.9c-7.2,5.6-11.3,14.1-11.3,23.2
		c0,9,4.1,17.4,11.1,23L817.8,211.9z"/>
	<path fill="#FFFFFF" d="M584.5,211.9l-0.7-0.9c7.1-5.6,11.1-14,11.1-23c0-9.1-4.1-17.6-11.3-23.2l0.7-0.9
		c7.5,5.8,11.7,14.6,11.7,24C596,197.4,591.8,206.1,584.5,211.9"/>
	<path fill="#FFFFFF" d="M871.2,82.9c-4.6,0-8.4-3.8-8.4-8.4l0-0.1l1.1,0l0,0c0,4,3.3,7.2,7.3,7.2V82.9z"/>
	<path fill="#FFFFFF" d="M862.8,302.2l0-0.1c0-0.1,0-0.3,0-0.4c0-4.6,3.8-8.4,8.4-8.4v1.1c-4,0-7.3,3.3-7.3,7.3c0,0.1,0,0.2,0,0.4
		l0,0.1L862.8,302.2z"/>
	<path fill="#FFFFFF" d="M531,82.9v-1.1c4,0,7.3-3.3,7.3-7.3l1.1,0C539.4,79.1,535.6,82.9,531,82.9"/>
	<path fill="#FFFFFF" d="M539.4,302.2l-1.1-0.1l0-0.1c0-0.1,0-0.2,0-0.4c0-4-3.3-7.3-7.3-7.3v-1.1c4.6,0,8.4,3.8,8.4,8.4
		c0,0.1,0,0.3,0,0.4L539.4,302.2z"/>
	<path fill="#FFFFFF" d="M702.8,188.3c0,0.8-0.7,1.5-1.5,1.5s-1.5-0.7-1.5-1.5c0-0.8,0.7-1.5,1.5-1.5S702.8,187.4,702.8,188.3"/>
	<path fill="#FFFFFF" d="M838.1,188.3c0,0.8-0.7,1.5-1.5,1.5s-1.5-0.7-1.5-1.5c0-0.8,0.7-1.5,1.5-1.5S838.1,187.4,838.1,188.3"/>
	<path fill="#FFFFFF" d="M567.3,188.3c0,0.8-0.7,1.5-1.5,1.5s-1.5-0.7-1.5-1.5c0-0.8,0.7-1.5,1.5-1.5S567.3,187.4,567.3,188.3"/>
</g>
<g>
	<rect x="950.8" y="61.9" fill="#33B63F" width="377.6" height="252.8"/>
	<g opacity="0.15">
		<g>
			<defs>
				<rect id="SVGID_25_" x="1004.9" y="74.4" width="84.2" height="227.7"/>
			</defs>
			<clipPath id="SVGID_26_">
				<use xlink:href="#SVGID_25_"  overflow="visible"/>
			</clipPath>
			<path clip-path="url(#SVGID_26_)" fill="#FFFFFF" d="M1014.9,188c0-50.4,30-93.8,73-113.6h-20.8c-37.4,24-62.2,65.9-62.2,113.6
				c0,48,25.2,90.2,63.1,114.1h21.1C1045.4,282.7,1014.9,238.8,1014.9,188"/>
		</g>
	</g>
	<g opacity="0.15">
		<g>
			<defs>
				<rect id="SVGID_27_" x="978.9" y="74.4" width="62.3" height="227.7"/>
			</defs>
			<clipPath id="SVGID_28_">
				<use xlink:href="#SVGID_27_"  overflow="visible"/>
			</clipPath>
			<path clip-path="url(#SVGID_28_)" fill="#FFFFFF" d="M988.9,188c0-45.2,20-85.9,51.7-113.6h-14.6c-29.1,29.1-47,69.3-47,113.6
				c0,44.6,18.2,85,47.6,114.1h14.7C1009.2,274.4,988.9,233.5,988.9,188"/>
		</g>
	</g>
	<g opacity="0.15">
		<g>
			<defs>
				<rect id="SVGID_29_" x="1274.3" y="74.4" width="35.4" height="67.2"/>
			</defs>
			<clipPath id="SVGID_30_">
				<use xlink:href="#SVGID_29_"  overflow="visible"/>
			</clipPath>
			<path clip-path="url(#SVGID_30_)" fill="#FFFFFF" d="M1274.3,74.4c16.3,19.3,28.6,42.1,35.4,67.2v-29.6
				c-6-13.5-13.6-26.1-22.6-37.6H1274.3z"/>
		</g>
	</g>
	<g opacity="0.15">
		<g>
			<defs>
				<rect id="SVGID_31_" x="1238.2" y="74.4" width="62.3" height="227.7"/>
			</defs>
			<clipPath id="SVGID_32_">
				<use xlink:href="#SVGID_31_"  overflow="visible"/>
			</clipPath>
			<path clip-path="url(#SVGID_32_)" fill="#FFFFFF" d="M1253.5,74.4h-14.6c31.6,27.7,51.7,68.3,51.7,113.6
				c0,45.5-20.3,86.4-52.3,114.1h14.7c29.4-29.2,47.6-69.5,47.6-114.1C1300.5,143.7,1282.5,103.6,1253.5,74.4"/>
		</g>
	</g>
	<g opacity="0.15">
		<g>
			<defs>
				<rect id="SVGID_33_" x="1190.3" y="74.4" width="84.2" height="227.7"/>
			</defs>
			<clipPath id="SVGID_34_">
				<use xlink:href="#SVGID_33_"  overflow="visible"/>
			</clipPath>
			<path clip-path="url(#SVGID_34_)" fill="#FFFFFF" d="M1264.5,188c0,50.8-30.5,94.7-74.2,114.1h21.1
				c37.9-23.9,63.1-66.1,63.1-114.1c0-47.6-24.8-89.6-62.2-113.6h-20.8C1234.6,94.2,1264.5,137.7,1264.5,188"/>
		</g>
	</g>
	<g opacity="0.15">
		<g>
			<defs>
				<rect id="SVGID_35_" x="1104.2" y="152.5" width="71" height="71"/>
			</defs>
			<clipPath id="SVGID_36_">
				<use xlink:href="#SVGID_35_"  overflow="visible"/>
			</clipPath>
			<path clip-path="url(#SVGID_36_)" fill="#FFFFFF" d="M1139.7,223.5c19.6,0,35.5-15.9,35.5-35.5c0-19.6-15.9-35.5-35.5-35.5
				c-19.6,0-35.5,15.9-35.5,35.5C1104.2,207.6,1120.1,223.5,1139.7,223.5 M1139.7,162.5c14.1,0,25.5,11.4,25.5,25.5
				c0,14.1-11.4,25.5-25.5,25.5c-14.1,0-25.5-11.4-25.5-25.5C1114.2,173.9,1125.6,162.5,1139.7,162.5"/>
		</g>
	</g>
	<g opacity="0.15">
		<g>
			<defs>
				<rect id="SVGID_37_" x="969.5" y="233.7" width="36.1" height="68.4"/>
			</defs>
			<clipPath id="SVGID_38_">
				<use xlink:href="#SVGID_37_"  overflow="visible"/>
			</clipPath>
			<path clip-path="url(#SVGID_38_)" fill="#FFFFFF" d="M1005.6,302.1c-16.7-19.6-29.2-42.9-36-68.4v29.8
				c6.2,13.8,14,26.8,23.2,38.6H1005.6z"/>
		</g>
	</g>
	<g opacity="0.15">
		<g>
			<defs>
				<rect id="SVGID_39_" x="1273.8" y="234.4" width="35.9" height="67.8"/>
			</defs>
			<clipPath id="SVGID_40_">
				<use xlink:href="#SVGID_39_"  overflow="visible"/>
			</clipPath>
			<path clip-path="url(#SVGID_40_)" fill="#FFFFFF" d="M1309.7,263.9v-29.6c-6.9,25.3-19.3,48.3-35.9,67.8h12.9
				C1295.8,290.4,1303.5,277.6,1309.7,263.9"/>
		</g>
	</g>
	<g opacity="0.15">
		<g>
			<defs>
				<rect id="SVGID_41_" x="969.5" y="74.4" width="35.6" height="67.9"/>
			</defs>
			<clipPath id="SVGID_42_">
				<use xlink:href="#SVGID_41_"  overflow="visible"/>
			</clipPath>
			<path clip-path="url(#SVGID_42_)" fill="#FFFFFF" d="M969.5,112.5v29.8c6.8-25.3,19.1-48.4,35.6-67.9h-12.8
				C983.3,86.1,975.6,98.9,969.5,112.5"/>
		</g>
	</g>
	<g opacity="0.15">
		<g>
			<defs>
				<rect id="SVGID_43_" x="1034.2" y="82.5" width="211" height="211"/>
			</defs>
			<clipPath id="SVGID_44_">
				<use xlink:href="#SVGID_43_"  overflow="visible"/>
			</clipPath>
			<path clip-path="url(#SVGID_44_)" fill="#FFFFFF" d="M1139.7,293.5c58.2,0,105.5-47.3,105.5-105.5c0-58.2-47.3-105.5-105.5-105.5
				c-58.2,0-105.5,47.3-105.5,105.5C1034.2,246.2,1081.5,293.5,1139.7,293.5 M1139.7,92.5c52.7,0,95.5,42.8,95.5,95.5
				c0,52.7-42.8,95.5-95.5,95.5c-52.7,0-95.5-42.8-95.5-95.5C1044.2,135.3,1087,92.5,1139.7,92.5"/>
		</g>
	</g>
	<g opacity="0.15">
		<g>
			<defs>
				<rect id="SVGID_45_" x="1068.9" y="117.2" width="141.7" height="141.7"/>
			</defs>
			<clipPath id="SVGID_46_">
				<use xlink:href="#SVGID_45_"  overflow="visible"/>
			</clipPath>
			<path clip-path="url(#SVGID_46_)" fill="#FFFFFF" d="M1139.7,258.8c39.1,0,70.8-31.8,70.8-70.8s-31.8-70.8-70.8-70.8
				c-39.1,0-70.8,31.8-70.8,70.8S1100.6,258.8,1139.7,258.8 M1139.7,127.2c33.5,0,60.8,27.3,60.8,60.8s-27.3,60.8-60.8,60.8
				s-60.8-27.3-60.8-60.8S1106.2,127.2,1139.7,127.2"/>
		</g>
	</g>
	<g opacity="0.15">
		<g>
			<defs>
				<rect id="SVGID_47_" x="1124" y="172.3" width="31.5" height="31.5"/>
			</defs>
			<clipPath id="SVGID_48_">
				<use xlink:href="#SVGID_47_"  overflow="visible"/>
			</clipPath>
			<path clip-path="url(#SVGID_48_)" fill="#FFFFFF" d="M1139.7,172.3c8.7,0,15.8,7.1,15.8,15.8s-7.1,15.8-15.8,15.8
				c-8.7,0-15.8-7.1-15.8-15.8S1131,172.3,1139.7,172.3"/>
		</g>
	</g>
	<polygon fill="#FFFFFF" points="1023,253.1 969.5,253.1 969.5,252 1021.9,252 1021.9,124.6 969.5,124.6 969.5,123.5 1023,123.5 	
		"/>
	<polygon fill="#FFFFFF" points="987.4,218 969.5,218 969.5,216.9 986.3,216.9 986.3,159.4 969.5,159.4 969.5,158.3 987.4,158.3 	
		"/>
	<polygon fill="#FFFFFF" points="1309.7,253.1 1256.2,253.1 1256.2,123.5 1309.7,123.5 1309.7,124.6 1257.3,124.6 1257.3,252 
		1309.7,252 	"/>
	<polygon fill="#FFFFFF" points="1309.7,218 1291.8,218 1291.8,158.3 1309.7,158.3 1309.7,159.4 1292.9,159.4 1292.9,216.9 
		1309.7,216.9 	"/>
	<rect x="1139.2" y="74.4" fill="#FFFFFF" width="1.1" height="227.7"/>
	<path fill="#FFFFFF" d="M1310.2,302.7H969V73.9h341.2V302.7z M970.1,301.6h339V75h-339V301.6z"/>
	<path fill="#FFFFFF" d="M1139.7,218.5c-16.8,0-30.5-13.7-30.5-30.5c0-16.8,13.7-30.5,30.5-30.5c16.8,0,30.5,13.7,30.5,30.5
		C1170.2,204.8,1156.5,218.5,1139.7,218.5 M1139.7,158.6c-16.2,0-29.4,13.2-29.4,29.4c0,16.2,13.2,29.4,29.4,29.4
		c16.2,0,29.4-13.2,29.4-29.4C1169.1,171.8,1155.9,158.6,1139.7,158.6"/>
	<path fill="#FFFFFF" d="M1256.4,211.9c-7.3-5.8-11.6-14.5-11.6-23.9c0-9.4,4.3-18.2,11.7-24l0.7,0.9c-7.2,5.6-11.3,14.1-11.3,23.2
		c0,9,4.1,17.4,11.1,23L1256.4,211.9z"/>
	<path fill="#FFFFFF" d="M1023,211.9l-0.7-0.9c7.1-5.6,11.1-14,11.1-23c0-9.1-4.1-17.6-11.3-23.2l0.7-0.9c7.5,5.8,11.7,14.6,11.7,24
		C1034.5,197.4,1030.3,206.1,1023,211.9"/>
	<path fill="#FFFFFF" d="M1309.7,82.9c-4.6,0-8.4-3.8-8.4-8.4l0-0.1l1.1,0l0,0c0,4,3.3,7.2,7.3,7.2V82.9z"/>
	<path fill="#FFFFFF" d="M1301.3,302.2l0-0.1c0-0.1,0-0.3,0-0.4c0-4.6,3.8-8.4,8.4-8.4v1.1c-4,0-7.3,3.3-7.3,7.3c0,0.1,0,0.2,0,0.4
		l0,0.1L1301.3,302.2z"/>
	<path fill="#FFFFFF" d="M969.5,82.9v-1.1c4,0,7.3-3.3,7.3-7.3l1.1,0C977.9,79.1,974.2,82.9,969.5,82.9"/>
	<path fill="#FFFFFF" d="M977.9,302.2l-1.1-0.1l0-0.1c0-0.1,0-0.2,0-0.4c0-4-3.3-7.3-7.3-7.3v-1.1c4.6,0,8.4,3.8,8.4,8.4
		c0,0.1,0,0.3,0,0.4L977.9,302.2z"/>
	<path fill="#FFFFFF" d="M1141.3,188.3c0,0.8-0.7,1.5-1.5,1.5c-0.8,0-1.5-0.7-1.5-1.5c0-0.8,0.7-1.5,1.5-1.5
		C1140.6,186.8,1141.3,187.4,1141.3,188.3"/>
	<path fill="#FFFFFF" d="M1276.6,188.3c0,0.8-0.7,1.5-1.5,1.5s-1.5-0.7-1.5-1.5c0-0.8,0.7-1.5,1.5-1.5S1276.6,187.4,1276.6,188.3"/>
	<path fill="#FFFFFF" d="M1005.8,188.3c0,0.8-0.7,1.5-1.5,1.5s-1.5-0.7-1.5-1.5c0-0.8,0.7-1.5,1.5-1.5S1005.8,187.4,1005.8,188.3"/>
</g>
<g>
	<polygon fill="#258C39" points="890.8,898.6 511.4,898.6 511.3,877.3 569.4,768.1 831,768.1 890.8,877.4 	"/>
	<polygon fill="#33B63F" points="827.5,573.5 890.9,877.4 511.3,877.4 574.7,573.5 	"/>
	<polygon fill="#33B63F" points="816.9,583.7 867.9,855.3 534.3,855.3 585.3,583.7 	"/>
	<g opacity="0.15">
		<g>
			<defs>
				<rect id="SVGID_49_" x="543.4" y="779.6" width="312.7" height="20.1"/>
			</defs>
			<clipPath id="SVGID_50_">
				<use xlink:href="#SVGID_49_"  overflow="visible"/>
			</clipPath>
			<polygon clip-path="url(#SVGID_50_)" fill="#FFFFFF" points="547.2,779.6 543.4,799.7 856.1,799.7 852.3,779.6 			"/>
		</g>
	</g>
	<g opacity="0.15">
		<g>
			<defs>
				<rect id="SVGID_51_" x="534.5" y="831.2" width="333.2" height="22.8"/>
			</defs>
			<clipPath id="SVGID_52_">
				<use xlink:href="#SVGID_51_"  overflow="visible"/>
			</clipPath>
			<polygon clip-path="url(#SVGID_52_)" fill="#FFFFFF" points="867.7,854 863.4,831.2 538.8,831.2 534.5,854 			"/>
		</g>
	</g>
	<g opacity="0.15">
		<g>
			<defs>
				<rect id="SVGID_53_" x="582.9" y="585" width="236.3" height="11.6"/>
			</defs>
			<clipPath id="SVGID_54_">
				<use xlink:href="#SVGID_53_"  overflow="visible"/>
			</clipPath>
			<polygon clip-path="url(#SVGID_54_)" fill="#FFFFFF" points="585.1,585 582.9,596.5 819.3,596.5 817.1,585 			"/>
		</g>
	</g>
	<g opacity="0.15">
		<g>
			<defs>
				<rect id="SVGID_55_" x="568" y="661.3" width="266.2" height="14.6"/>
			</defs>
			<clipPath id="SVGID_56_">
				<use xlink:href="#SVGID_55_"  overflow="visible"/>
			</clipPath>
			<polygon clip-path="url(#SVGID_56_)" fill="#FFFFFF" points="570.7,661.3 568,676 834.2,676 831.4,661.3 			"/>
		</g>
	</g>
	<g opacity="0.15">
		<g>
			<defs>
				<rect id="SVGID_57_" x="577" y="615.4" width="248.2" height="12.7"/>
			</defs>
			<clipPath id="SVGID_58_">
				<use xlink:href="#SVGID_57_"  overflow="visible"/>
			</clipPath>
			<polygon clip-path="url(#SVGID_58_)" fill="#FFFFFF" points="579.4,615.4 577,628.2 825.2,628.2 822.8,615.4 			"/>
		</g>
	</g>
	<g opacity="0.15">
		<g>
			<defs>
				<rect id="SVGID_59_" x="556.6" y="713" width="286.5" height="16.9"/>
			</defs>
			<clipPath id="SVGID_60_">
				<use xlink:href="#SVGID_59_"  overflow="visible"/>
			</clipPath>
			<polygon clip-path="url(#SVGID_60_)" fill="#FFFFFF" points="559.8,713 556.6,729.9 843.1,729.9 839.9,713 			"/>
		</g>
	</g>
	<g opacity="0.15">
		<g>
			<defs>
				<rect id="SVGID_61_" x="779.2" y="583.7" width="64.3" height="271.5"/>
			</defs>
			<clipPath id="SVGID_62_">
				<use xlink:href="#SVGID_61_"  overflow="visible"/>
			</clipPath>
			<polygon clip-path="url(#SVGID_62_)" fill="#FFFFFF" points="843.5,855.3 799.9,583.7 779.2,583.7 813.7,855.3 			"/>
		</g>
	</g>
	<g opacity="0.15">
		<g>
			<defs>
				<rect id="SVGID_63_" x="720.3" y="583.7" width="38.4" height="271.5"/>
			</defs>
			<clipPath id="SVGID_64_">
				<use xlink:href="#SVGID_63_"  overflow="visible"/>
			</clipPath>
			<polygon clip-path="url(#SVGID_64_)" fill="#FFFFFF" points="758.7,855.3 741.1,583.7 720.3,583.7 728.8,855.3 			"/>
		</g>
	</g>
	<g opacity="0.15">
		<g>
			<defs>
				<rect id="SVGID_65_" x="563.5" y="583.7" width="62.8" height="271.5"/>
			</defs>
			<clipPath id="SVGID_66_">
				<use xlink:href="#SVGID_65_"  overflow="visible"/>
			</clipPath>
			<polygon clip-path="url(#SVGID_66_)" fill="#FFFFFF" points="593.4,855.3 626.4,583.7 605.6,583.7 563.5,855.3 			"/>
		</g>
	</g>
	<g opacity="0.15">
		<g>
			<defs>
				<rect id="SVGID_67_" x="642.8" y="583.7" width="38.6" height="271.5"/>
			</defs>
			<clipPath id="SVGID_68_">
				<use xlink:href="#SVGID_67_"  overflow="visible"/>
			</clipPath>
			<polygon clip-path="url(#SVGID_68_)" fill="#FFFFFF" points="672.7,855.3 681.4,583.7 660.6,583.7 642.8,855.3 			"/>
		</g>
	</g>
	<polygon fill="#FFFFFF" points="789.9,797.7 796,855.3 794.4,855.3 788.5,798.8 613.7,798.8 607.8,855.3 606.2,855.3 612.3,797.7 	
		"/>
	<polygon fill="#FFFFFF" points="743.6,835.2 744.6,855.3 743,855.3 742.1,836.4 659.7,836.4 658.8,855.3 657.2,855.3 658.2,835.2 	
		"/>
	<polygon fill="#FFFFFF" points="767,583.7 770.3,614.9 631.9,614.9 635.2,583.7 636.4,583.7 633.2,614.2 769,614.2 765.8,583.7 	
		"/>
	<polygon fill="#FFFFFF" points="731.3,583.7 731.8,593.8 670.1,593.8 670.6,583.7 671.8,583.7 671.3,593.1 730.6,593.1 
		730.2,583.7 	"/>
	<polygon fill="#FFFFFF" points="837.7,694.4 837.8,695.3 564.4,695.3 564.5,694.4 	"/>
	<path fill="#FFFFFF" d="M817.4,583.4l51.5,272.5H533.4l51.5-272.5H817.4z M867,854.6L816.3,584H585.8l-50.6,270.6H867z"/>
	<path fill="#FFFFFF" d="M737.4,694.9c0.7,13.2-15.8,24.3-36.6,24.3s-37.3-11.1-36.6-24.3c0.6-12.8,17.1-22.8,36.6-22.8
		S736.7,682.1,737.4,694.9 M665.5,694.9c-0.6,12.7,15.2,23.4,35.3,23.4c20.1,0,35.9-10.7,35.3-23.4c-0.6-12.3-16.4-22-35.3-22
		C681.9,672.9,666.1,682.6,665.5,694.9"/>
	<path fill="#FFFFFF" d="M726.3,614.8c-6.1,4.5-15.4,7.1-25.5,7.1c-10.2,0-19.6-2.7-25.7-7.2l0.9-0.4c5.9,4.4,14.9,7,24.7,7
		c9.7,0,18.7-2.5,24.6-6.9L726.3,614.8z"/>
	<path fill="#FFFFFF" d="M733.5,797.8l-1.2,0.7c-7.9-7.1-19.4-11.1-31.6-11.1c-12.3,0-23.9,4.1-31.8,11.2l-1.2-0.7
		c8.2-7.4,20.2-11.6,33-11.6C713.4,786.3,725.3,790.5,733.5,797.8"/>
	<path fill="#FFFFFF" d="M593.9,583.7c-0.4,2.6-4.7,4.7-9.4,4.7l-0.1,0l0.2-0.6l0,0c4.1,0,7.7-1.8,8.1-4H593.9z"/>
	<path fill="#FFFFFF" d="M817.8,588.4l-0.1,0c-0.1,0-0.3,0-0.4,0c-4.7,0-8.9-2.1-9.4-4.7h1.1c0.4,2.2,4,4,8.1,4c0.1,0,0.2,0,0.4,0
		l0.1,0L817.8,588.4z"/>
	<path fill="#FFFFFF" d="M546.6,855.3H545c0.8-4.6-3.3-8.3-9.1-8.3l0.2-1.2C542.8,845.7,547.5,850,546.6,855.3"/>
	<path fill="#FFFFFF" d="M866.2,845.8l0.1,1.2l-0.2,0c-0.2,0-0.4,0-0.5,0c-5.8,0-9.9,3.7-9.1,8.3h-1.6c-0.9-5.3,3.8-9.5,10.5-9.5
		c0.2,0,0.4,0,0.6,0L866.2,845.8z"/>
	<path fill="#FFFFFF" d="M701.1,693.7c1,0,1.8,0.5,1.8,1.2c0,0.6-0.8,1.2-1.8,1.2s-1.8-0.5-1.8-1.2
		C699.3,694.2,700.1,693.7,701.1,693.7"/>
	<path fill="#FFFFFF" d="M701.1,602.6c0.9,0,1.6,0.4,1.6,0.9c0,0.5-0.7,0.9-1.6,0.9s-1.6-0.4-1.6-0.9
		C699.5,603,700.2,602.6,701.1,602.6"/>
	<path fill="#FFFFFF" d="M701.1,815.4c1.2,0,2.1,0.7,2.1,1.6c0,0.9-0.9,1.6-2.1,1.6c-1.2,0-2.1-0.7-2.1-1.6
		C699,816.2,699.9,815.4,701.1,815.4"/>
</g>
<g>
	<polygon fill="#258C39" points="1330.6,898.6 944.4,898.6 944.3,877.3 1003.5,768.1 1269.7,768.1 1330.6,877.4 	"/>
	<polygon fill="#33B63F" points="1263.8,573.5 1330.6,877.4 944.1,877.4 1011,573.5 	"/>
	<g opacity="0.15">
		<g>
			<defs>
				<rect id="SVGID_69_" x="987.7" y="734.8" width="299.2" height="80.7"/>
			</defs>
			<clipPath id="SVGID_70_">
				<use xlink:href="#SVGID_69_"  overflow="visible"/>
			</clipPath>
			<path clip-path="url(#SVGID_70_)" fill="#FFFFFF" d="M1137,805c-70.7,0-126.8-29.9-145.6-69.2l-3.7,18.5
				c26,35.6,81.6,61.2,149.3,61.2c68.2,0,124.2-26,149.9-62l-3.7-18.7C1264.8,774.6,1208.3,805,1137,805"/>
		</g>
	</g>
	<g opacity="0.15">
		<g>
			<defs>
				<rect id="SVGID_71_" x="979.9" y="778.7" width="314.9" height="65.5"/>
			</defs>
			<clipPath id="SVGID_72_">
				<use xlink:href="#SVGID_71_"  overflow="visible"/>
			</clipPath>
			<path clip-path="url(#SVGID_72_)" fill="#FFFFFF" d="M1137,832.9c-65.7,0-121.4-21.6-154.2-53.6l-2.9,14.5
				c35.8,30.4,91.9,50.4,157.1,50.4c65.6,0,122-20.3,157.8-51l-2.9-14.5C1259.2,811,1203.1,832.9,1137,832.9"/>
		</g>
	</g>
	<g opacity="0.15">
		<g>
			<defs>
				<rect id="SVGID_73_" x="1017.6" y="583.6" width="72.3" height="19.9"/>
			</defs>
			<clipPath id="SVGID_74_">
				<use xlink:href="#SVGID_73_"  overflow="visible"/>
			</clipPath>
			<path clip-path="url(#SVGID_74_)" fill="#FFFFFF" d="M1017.6,603.5c21.9-9.4,46.4-16.2,72.3-19.9h-30.1
				c-14.2,3.3-27.9,7.5-40.8,12.5L1017.6,603.5z"/>
		</g>
	</g>
	<g opacity="0.15">
		<g>
			<defs>
				<rect id="SVGID_75_" x="1013.4" y="588.6" width="248.1" height="36.7"/>
			</defs>
			<clipPath id="SVGID_76_">
				<use xlink:href="#SVGID_75_"  overflow="visible"/>
			</clipPath>
			<path clip-path="url(#SVGID_76_)" fill="#FFFFFF" d="M1015.2,615.9l-1.8,9c33-19.2,76.9-30.7,123.7-30.7
				c47.2,0,91.3,11.7,124.4,31.1l-1.8-9.1c-33.9-17.3-76.8-27.6-122.6-27.6C1091.7,588.6,1048.9,598.7,1015.2,615.9"/>
		</g>
	</g>
	<g opacity="0.15">
		<g>
			<defs>
				<rect id="SVGID_77_" x="1007.2" y="603.3" width="260.5" height="53.4"/>
			</defs>
			<clipPath id="SVGID_78_">
				<use xlink:href="#SVGID_77_"  overflow="visible"/>
			</clipPath>
			<path clip-path="url(#SVGID_78_)" fill="#FFFFFF" d="M1137.1,609.2c54,0,103.6,18.7,130.6,47.5l-2.8-14.3
				c-30.5-24.1-77.3-39.1-127.8-39.1c-50.1,0-96.5,14.8-127.1,38.5l-2.8,14C1034.4,627.6,1083.6,609.2,1137.1,609.2"/>
		</g>
	</g>
	<g opacity="0.15">
		<g>
			<defs>
				<rect id="SVGID_79_" x="1094.1" y="667.3" width="85.9" height="54.7"/>
			</defs>
			<clipPath id="SVGID_80_">
				<use xlink:href="#SVGID_79_"  overflow="visible"/>
			</clipPath>
			<path clip-path="url(#SVGID_80_)" fill="#FFFFFF" d="M1180,693.6c-0.9-14.7-20.1-26.3-42.9-26.3c-22.8,0-42,11.5-42.9,26.3
				c-1,15.4,18.3,28.4,42.9,28.4S1180.9,709,1180,693.6 M1106.2,693.6c0.5-10.7,14.3-19.1,30.8-19.1s30.4,8.4,30.8,19.1
				c0.5,11-13.3,20.2-30.8,20.2C1119.5,713.8,1105.7,704.6,1106.2,693.6"/>
		</g>
	</g>
	<g opacity="0.15">
		<g>
			<defs>
				<rect id="SVGID_81_" x="1205" y="814.8" width="96.8" height="40.1"/>
			</defs>
			<clipPath id="SVGID_82_">
				<use xlink:href="#SVGID_81_"  overflow="visible"/>
			</clipPath>
			<path clip-path="url(#SVGID_82_)" fill="#FFFFFF" d="M1299,814.8c-24.9,18.1-56.9,32.2-94,40.1h44.5c19.5-7.1,37.1-16,52.3-26.2
				L1299,814.8z"/>
		</g>
	</g>
	<g opacity="0.15">
		<g>
			<defs>
				<rect id="SVGID_83_" x="1184.3" y="583.6" width="73" height="20.2"/>
			</defs>
			<clipPath id="SVGID_84_">
				<use xlink:href="#SVGID_83_"  overflow="visible"/>
			</clipPath>
			<path clip-path="url(#SVGID_84_)" fill="#FFFFFF" d="M1214.4,583.6h-30.1c26.2,3.8,50.9,10.7,73,20.2l-1.5-7.4
				C1242.7,591.2,1228.8,586.9,1214.4,583.6"/>
		</g>
	</g>
	<g opacity="0.15">
		<g>
			<defs>
				<rect id="SVGID_85_" x="972.9" y="815.2" width="96" height="39.6"/>
			</defs>
			<clipPath id="SVGID_86_">
				<use xlink:href="#SVGID_85_"  overflow="visible"/>
			</clipPath>
			<path clip-path="url(#SVGID_86_)" fill="#FFFFFF" d="M1024.5,854.9h44.5c-36.8-7.9-68.6-21.8-93.3-39.6l-2.8,13.9
				C987.9,839.2,1005.3,847.9,1024.5,854.9"/>
		</g>
	</g>
	<g opacity="0.15">
		<g>
			<defs>
				<rect id="SVGID_87_" x="1008.6" y="620.9" width="256.9" height="164.6"/>
			</defs>
			<clipPath id="SVGID_88_">
				<use xlink:href="#SVGID_87_"  overflow="visible"/>
			</clipPath>
			<path clip-path="url(#SVGID_88_)" fill="#FFFFFF" d="M1264.6,693.6c-7.7-42-64.6-72.7-127.5-72.7c-63,0-119.9,30.6-127.6,72.7
				c-8.8,47.8,47.9,91.9,127.5,91.9C1216.7,785.5,1273.4,741.4,1264.6,693.6 M1021.6,693.6c6.4-38.3,57.9-66.4,115.5-66.4
				s109.1,28.2,115.4,66.4c7.1,43-44.3,82.2-115.5,82.2C1065.8,775.7,1014.4,736.6,1021.6,693.6"/>
		</g>
	</g>
	<g opacity="0.15">
		<g>
			<defs>
				<rect id="SVGID_89_" x="1051.1" y="643.1" width="171.8" height="109.7"/>
			</defs>
			<clipPath id="SVGID_90_">
				<use xlink:href="#SVGID_89_"  overflow="visible"/>
			</clipPath>
			<path clip-path="url(#SVGID_90_)" fill="#FFFFFF" d="M1222.7,693.6c-3.5-28.8-41.8-50.5-85.6-50.5c-43.8,0-82.1,21.7-85.7,50.5
				c-3.9,31.4,34.4,59.1,85.6,59.1C1188.3,752.7,1226.6,725,1222.7,693.6 M1063.5,693.6c2.6-24.9,35.6-43.8,73.6-43.8
				c38,0,70.9,19,73.5,43.8c2.8,26.8-30.1,50.2-73.6,50.2S1060.6,720.4,1063.5,693.6"/>
		</g>
	</g>
	<g opacity="0.15">
		<g>
			<defs>
				<rect id="SVGID_91_" x="1118" y="681.7" width="38.1" height="24.2"/>
			</defs>
			<clipPath id="SVGID_92_">
				<use xlink:href="#SVGID_91_"  overflow="visible"/>
			</clipPath>
			<path clip-path="url(#SVGID_92_)" fill="#FFFFFF" d="M1118,693.6c0.2-6.6,8.7-11.9,19.1-11.9c10.3,0,18.9,5.3,19,11.9
				c0.2,6.7-8.4,12.3-19.1,12.3C1126.4,705.9,1117.8,700.3,1118,693.6"/>
		</g>
	</g>
	<polygon fill="#FFFFFF" points="1227.3,796.7 1233.9,854.9 1232.3,854.9 1225.9,797.8 1048.8,797.8 1042.5,854.9 1040.9,854.9 
		1047.4,796.7 	"/>
	<polygon fill="#FFFFFF" points="1180.5,834.6 1181.6,854.9 1180,854.9 1179,835.8 1095.4,835.8 1094.4,854.9 1092.7,854.9 
		1093.8,834.6 	"/>
	<polygon fill="#FFFFFF" points="1203.3,583.6 1206.7,614.2 1068,614.2 1071.5,583.6 1072.6,583.6 1069.3,613.6 1205.5,613.6 
		1202.2,583.6 	"/>
	<polygon fill="#FFFFFF" points="1167.6,583.6 1168.1,593.4 1106.4,593.4 1106.9,583.6 1108,583.6 1107.6,592.8 1166.9,592.8 
		1166.5,583.6 	"/>
	<polygon fill="#FFFFFF" points="1274.9,693.1 1275.1,694 999.7,694 999.8,693.1 	"/>
	<path fill="#FFFFFF" d="M1253.7,583.3l54.2,272.3H966.8l54.2-272.3H1253.7z M1306.1,854.2l-53.4-270.4h-230.6l-53.4,270.4H1306.1z"
		/>
	<path fill="#FFFFFF" d="M1173.9,693.6c0.7,13.2-15.8,24.3-36.9,24.3s-37.6-11.1-36.9-24.3c0.7-12.7,17.2-22.7,36.9-22.7
		C1156.7,670.9,1173.3,680.9,1173.9,693.6 M1101.5,693.6c-0.7,12.7,15.3,23.4,35.5,23.4c20.3,0,36.2-10.7,35.6-23.4
		c-0.6-12.3-16.6-21.9-35.5-21.9C1118.1,671.7,1102.1,681.3,1101.5,693.6"/>
	<path fill="#FFFFFF" d="M1162.7,614.1c-6.1,4.5-15.5,7-25.6,7c-10.2,0-19.6-2.6-25.7-7.2l0.9-0.4c5.9,4.4,14.9,6.9,24.8,6.9
		c9.8,0,18.8-2.5,24.7-6.8L1162.7,614.1z"/>
	<path fill="#FFFFFF" d="M1170.2,796.7l-1.2,0.7c-8-7.1-19.7-11.2-32-11.2c-12.5,0-24.2,4.1-32.2,11.3l-1.2-0.7
		c8.3-7.5,20.5-11.7,33.4-11.7C1149.8,785.2,1161.9,789.3,1170.2,796.7"/>
	<path fill="#FFFFFF" d="M1030.1,583.6c-0.5,2.5-4.7,4.6-9.4,4.6l-0.1,0l0.2-0.6l0,0c4.1,0,7.7-1.8,8.2-4H1030.1z"/>
	<path fill="#FFFFFF" d="M1254.1,588.1l-0.1,0c-0.1,0-0.3,0-0.4,0c-4.7,0-9-2.1-9.4-4.6h1.1c0.4,2.2,4.1,4,8.2,4c0.1,0,0.2,0,0.4,0
		l0.1,0L1254.1,588.1z"/>
	<path fill="#FFFFFF" d="M980.3,854.9h-1.6c0.9-4.7-3.2-8.4-9.2-8.4l0.2-1.3C976.5,845.2,981.3,849.5,980.3,854.9"/>
	<path fill="#FFFFFF" d="M1305.1,845.3l0.1,1.3l-0.2,0c-0.2,0-0.4,0-0.5,0c-5.9,0-10,3.7-9.2,8.4h-1.6c-1-5.4,3.8-9.7,10.6-9.7
		c0.2,0,0.4,0,0.7,0L1305.1,845.3z"/>
	<path fill="#FFFFFF" d="M1137.4,692.4c1,0,1.8,0.5,1.8,1.2c0,0.6-0.8,1.2-1.8,1.2s-1.8-0.5-1.8-1.2
		C1135.5,692.9,1136.4,692.4,1137.4,692.4"/>
	<path fill="#FFFFFF" d="M1137.4,602.2c0.9,0,1.6,0.4,1.6,0.9c0,0.5-0.7,0.9-1.6,0.9c-0.9,0-1.6-0.4-1.6-0.9
		C1135.8,602.5,1136.5,602.2,1137.4,602.2"/>
	<path fill="#FFFFFF" d="M1137.4,814.5c1.2,0,2.2,0.7,2.2,1.6c0,0.9-1,1.6-2.2,1.6s-2.2-0.7-2.2-1.6
		C1135.2,815.3,1136.2,814.5,1137.4,814.5"/>
</g>
<g>
	<polygon fill="#258C39" points="469,520.3 91.4,520.3 91.3,499 149.4,389.8 411,389.8 468.9,499 	"/>
	<polygon fill="#33B63F" points="468.9,499 91.3,499 149.3,368.4 410.9,368.4 	"/>
	<polygon fill="#33B63F" points="446.5,489.8 113.7,489.8 160.5,373 399.7,373 	"/>
	<g opacity="0.15">
		<g>
			<defs>
				<rect id="SVGID_93_" x="114.8" y="373" width="329.6" height="116.8"/>
			</defs>
			<clipPath id="SVGID_94_">
				<use xlink:href="#SVGID_93_"  overflow="visible"/>
			</clipPath>
			<polygon clip-path="url(#SVGID_94_)" fill="#FFFFFF" points="239.2,373 224.8,373 203.2,489.8 223.2,489.8 			"/>
			<polygon clip-path="url(#SVGID_94_)" fill="#FFFFFF" points="207.4,373 193,373 159,489.8 179,489.8 			"/>
			<polygon clip-path="url(#SVGID_94_)" fill="#FFFFFF" points="271,373 256.6,373 247.5,489.8 267.4,489.8 			"/>
			<polygon clip-path="url(#SVGID_94_)" fill="#FFFFFF" points="114.8,489.8 134.7,489.8 175.6,373 161.2,373 			"/>
			<polygon clip-path="url(#SVGID_94_)" fill="#FFFFFF" points="398.2,373 383.8,373 424.4,489.8 444.3,489.8 			"/>
			<polygon clip-path="url(#SVGID_94_)" fill="#FFFFFF" points="366.4,373 352,373 380.2,489.8 400.1,489.8 			"/>
			<polygon clip-path="url(#SVGID_94_)" fill="#FFFFFF" points="334.6,373 320.2,373 335.9,489.8 355.9,489.8 			"/>
			<polygon clip-path="url(#SVGID_94_)" fill="#FFFFFF" points="302.8,373 288.4,373 291.7,489.8 311.7,489.8 			"/>
		</g>
	</g>
	<polygon fill="#FFFFFF" points="174.9,457.5 126.6,457.5 126.9,456.9 174.1,456.9 191.8,392.7 152.6,392.7 152.7,392.3 
		192.8,392.3 	"/>
	<polygon fill="#FFFFFF" points="149.9,437.3 134.7,437.3 134.9,436.7 149.2,436.7 159.6,408 146.4,408 146.6,407.5 160.6,407.5 	
		"/>
	<polygon fill="#FFFFFF" points="433.6,457.5 385.3,457.5 367.4,392.3 407.5,392.3 407.6,392.7 368.4,392.7 386.1,456.9 
		433.3,456.9 	"/>
	<polygon fill="#FFFFFF" points="425.5,437.3 410.3,437.3 399.6,407.5 413.6,407.5 413.8,408 400.6,408 411,436.7 425.3,436.7 	"/>
	<polygon fill="#FFFFFF" points="280.8,489.8 279.7,489.8 279.8,373 280.6,373 	"/>
	<path fill="#FFFFFF" d="M447.2,490.2H113l47.1-117.4H400L447.2,490.2z M114.4,489.4h331.4l-46.4-116.2H160.8L114.4,489.4z"/>
	<path fill="#FFFFFF" d="M280.2,437.6c-14.4,0-25.6-7.3-25-15.9c0.6-8.2,11.8-14.6,25-14.6s24.4,6.4,25,14.6
		C305.8,430.3,294.6,437.6,280.2,437.6 M280.2,407.6c-12.7,0-23.5,6.2-24.1,14.1c-0.6,8.3,10.2,15.3,24.1,15.3
		c13.8,0,24.6-7,24.1-15.3C303.7,413.8,292.9,407.6,280.2,407.6"/>
	<path fill="#FFFFFF" d="M379,434.1c-7-3.1-11.7-7.6-12.8-12.4c-1.2-4.7,1.2-8.9,6.4-11.6l0.6,0.4c-5,2.6-7.3,6.7-6.1,11.2
		c1.1,4.6,5.6,8.9,12.4,11.9L379,434.1z"/>
	<path fill="#FFFFFF" d="M181.3,434.1l-0.5-0.5c6.8-3,11.3-7.3,12.4-11.9c1.1-4.5-1.2-8.5-6.2-11.2l0.6-0.4
		c5.2,2.7,7.6,6.9,6.4,11.6C193,426.5,188.3,431,181.3,434.1"/>
	<path fill="#FFFFFF" d="M401,376.1c-3.3,0-6.5-1.4-7.1-3.1l0,0l0.8,0l0,0c0.6,1.5,3.3,2.7,6.2,2.7L401,376.1z"/>
	<path fill="#FFFFFF" d="M438.4,489.8L438.4,489.8c-0.1-0.2-0.1-0.3-0.2-0.4c-1.2-3.3,1.4-5.9,5.8-5.9l0.3,0.8
		c-3.9,0-6.1,2.3-5.1,5.1c0,0.1,0.1,0.2,0.1,0.3l0,0.1L438.4,489.8z"/>
	<path fill="#FFFFFF" d="M159.2,376.1l0.2-0.4c2.8,0,5.6-1.2,6.2-2.7l0.8,0C165.7,374.7,162.5,376.1,159.2,376.1"/>
	<path fill="#FFFFFF" d="M121.8,489.8l-1.1-0.1l0-0.1c0-0.1,0.1-0.2,0.1-0.3c1.1-2.8-1.2-5.1-5.1-5.1l0.3-0.8c4.4,0,7.1,2.6,5.8,5.9
		C122,489.6,121.9,489.7,121.8,489.8L121.8,489.8z"/>
	<path fill="#FFFFFF" d="M281.5,421.9c0,0.4-0.6,0.8-1.2,0.8c-0.7,0-1.2-0.3-1.2-0.8c0-0.4,0.6-0.8,1.2-0.8
		C280.9,421.1,281.5,421.4,281.5,421.9"/>
	<path fill="#FFFFFF" d="M392.2,421.9c0.1,0.4-0.3,0.8-1,0.8s-1.4-0.3-1.5-0.8c-0.1-0.4,0.3-0.8,1-0.8
		C391.4,421.1,392.1,421.4,392.2,421.9"/>
	<path fill="#FFFFFF" d="M170.6,421.9c-0.1,0.4-0.8,0.8-1.5,0.8c-0.7,0-1.1-0.3-1-0.8c0.1-0.4,0.8-0.8,1.5-0.8
		C170.3,421.1,170.7,421.4,170.6,421.9"/>
</g>
<g>
	<polygon fill="#258C39" points="890,520.3 512.3,520.3 512.2,499 570.3,389.8 832,389.8 889.8,499 	"/>
	<polygon fill="#33B63F" points="889.8,499 512.2,499 568.4,369.2 833.7,369.2 	"/>
	<polygon fill="#33B63F" points="867.6,490 534.5,490 579.7,373.8 822.3,373.8 	"/>
	<g opacity="0.15">
		<g>
			<defs>
				<rect id="SVGID_95_" x="585.1" y="373.4" width="46" height="115.9"/>
			</defs>
			<clipPath id="SVGID_96_">
				<use xlink:href="#SVGID_95_"  overflow="visible"/>
			</clipPath>
			<polygon clip-path="url(#SVGID_96_)" fill="#FFFFFF" points="631.1,373.4 616.6,373.4 585.1,489.3 605.1,489.3 			"/>
		</g>
	</g>
	<g opacity="0.15">
		<g>
			<defs>
				<rect id="SVGID_97_" x="535.6" y="373.8" width="59.5" height="116.2"/>
			</defs>
			<clipPath id="SVGID_98_">
				<use xlink:href="#SVGID_97_"  overflow="visible"/>
			</clipPath>
			<polygon clip-path="url(#SVGID_98_)" fill="#FFFFFF" points="535.6,490 555.5,490 595.1,373.8 580.5,373.8 			"/>
		</g>
	</g>
	<g opacity="0.15">
		<g>
			<defs>
				<rect id="SVGID_99_" x="806.2" y="373.8" width="59.2" height="116.2"/>
			</defs>
			<clipPath id="SVGID_100_">
				<use xlink:href="#SVGID_99_"  overflow="visible"/>
			</clipPath>
			<polygon clip-path="url(#SVGID_100_)" fill="#FFFFFF" points="820.8,373.8 806.2,373.8 845.5,490 865.4,490 			"/>
		</g>
	</g>
	<g opacity="0.15">
		<g>
			<defs>
				<rect id="SVGID_101_" x="719.1" y="373.8" width="26.7" height="116.2"/>
			</defs>
			<clipPath id="SVGID_102_">
				<use xlink:href="#SVGID_101_"  overflow="visible"/>
			</clipPath>
			<polygon clip-path="url(#SVGID_102_)" fill="#FFFFFF" points="733.6,373.8 719.1,373.8 725.8,490 745.8,490 			"/>
		</g>
	</g>
	<g opacity="0.15">
		<g>
			<defs>
				<rect id="SVGID_103_" x="769" y="373.8" width="45.3" height="116.2"/>
			</defs>
			<clipPath id="SVGID_104_">
				<use xlink:href="#SVGID_103_"  overflow="visible"/>
			</clipPath>
			<polygon clip-path="url(#SVGID_104_)" fill="#FFFFFF" points="783.5,373.8 769,373.8 794.3,490 814.3,490 			"/>
		</g>
	</g>
	<g opacity="0.15">
		<g>
			<defs>
				<rect id="SVGID_105_" x="658.9" y="373.4" width="26" height="115.9"/>
			</defs>
			<clipPath id="SVGID_106_">
				<use xlink:href="#SVGID_105_"  overflow="visible"/>
			</clipPath>
			<polygon clip-path="url(#SVGID_106_)" fill="#FFFFFF" points="684.8,373.4 670.3,373.4 658.9,489.3 678.8,489.3 			"/>
		</g>
	</g>
	<g opacity="0.15">
		<g>
			<defs>
				<rect id="SVGID_107_" x="538.9" y="465.5" width="324.3" height="13.1"/>
			</defs>
			<clipPath id="SVGID_108_">
				<use xlink:href="#SVGID_107_"  overflow="visible"/>
			</clipPath>
			<polygon clip-path="url(#SVGID_108_)" fill="#FFFFFF" points="538.9,478.6 863.2,478.6 858.1,465.5 544,465.5 			"/>
		</g>
	</g>
	<g opacity="0.15">
		<g>
			<defs>
				<rect id="SVGID_109_" x="552.6" y="432.4" width="296.9" height="11"/>
			</defs>
			<clipPath id="SVGID_110_">
				<use xlink:href="#SVGID_109_"  overflow="visible"/>
			</clipPath>
			<polygon clip-path="url(#SVGID_110_)" fill="#FFFFFF" points="552.6,443.4 849.5,443.4 845.2,432.4 556.9,432.4 			"/>
		</g>
	</g>
	<g opacity="0.15">
		<g>
			<defs>
				<rect id="SVGID_111_" x="573.6" y="381.4" width="254.9" height="8.2"/>
			</defs>
			<clipPath id="SVGID_112_">
				<use xlink:href="#SVGID_111_"  overflow="visible"/>
			</clipPath>
			<polygon clip-path="url(#SVGID_112_)" fill="#FFFFFF" points="573.6,389.6 828.5,389.6 825.3,381.4 576.8,381.4 			"/>
		</g>
	</g>
	<g opacity="0.15">
		<g>
			<defs>
				<rect id="SVGID_113_" x="564.3" y="404" width="273.4" height="9.4"/>
			</defs>
			<clipPath id="SVGID_114_">
				<use xlink:href="#SVGID_113_"  overflow="visible"/>
			</clipPath>
			<polygon clip-path="url(#SVGID_114_)" fill="#FFFFFF" points="564.3,413.3 837.8,413.3 834.1,404 568,404 			"/>
		</g>
	</g>
	<polygon fill="#FFFFFF" points="595.4,458.2 546.9,458.2 547.1,457.5 594.5,457.5 611.7,393.6 572,393.6 572.2,393.2 612.7,393.2 	
		"/>
	<polygon fill="#FFFFFF" points="570,438.2 554.7,438.2 554.9,437.6 569.3,437.6 579.3,408.9 566,408.9 566.2,408.4 580.4,408.4 	
		"/>
	<polygon fill="#FFFFFF" points="855.2,458.2 806.7,458.2 789.4,393.2 829.9,393.2 830.1,393.6 790.3,393.6 807.6,457.5 855,457.5 	
		"/>
	<polygon fill="#FFFFFF" points="847.4,438.2 832.1,438.2 821.7,408.4 835.8,408.4 836,408.9 822.8,408.9 832.8,437.6 847.2,437.6 	
		"/>
	<polygon fill="#FFFFFF" points="701.7,490 700.6,490 700.7,373.8 701.5,373.8 	"/>
	<path fill="#FFFFFF" d="M868.3,490.4H533.8l45.6-116.8h243.2L868.3,490.4z M535.2,489.6h331.8L822,374h-242L535.2,489.6z"/>
	<path fill="#FFFFFF" d="M701.1,438.5c-14.5,0-25.8-7.3-25.2-15.8c0.6-8.2,11.8-14.6,25.2-14.6c13.3,0,24.6,6.4,25.2,14.6
		C726.9,431.2,715.6,438.5,701.1,438.5 M701.1,408.6c-12.9,0-23.7,6.2-24.3,14.1c-0.6,8.2,10.3,15.2,24.3,15.2
		c13.9,0,24.8-7,24.3-15.2C724.8,414.7,714,408.6,701.1,408.6"/>
	<path fill="#FFFFFF" d="M800.7,434.9c-7-3.1-11.7-7.6-12.8-12.3c-1.1-4.6,1.3-8.8,6.6-11.6l0.7,0.4c-5.1,2.6-7.4,6.7-6.3,11.2
		c1.1,4.5,5.6,8.9,12.4,11.8L800.7,434.9z"/>
	<path fill="#FFFFFF" d="M601.5,434.9l-0.5-0.5c6.8-3,11.3-7.3,12.4-11.8c1.1-4.5-1.2-8.5-6.3-11.2l0.7-0.4
		c5.3,2.7,7.7,6.9,6.6,11.6C613.2,427.3,608.6,431.8,601.5,434.9"/>
	<path fill="#FFFFFF" d="M823.6,377c-3.3,0-6.5-1.4-7.2-3.1l0,0l0.8,0l0,0c0.6,1.5,3.4,2.7,6.2,2.7L823.6,377z"/>
	<path fill="#FFFFFF" d="M859.5,490L859.5,490c-0.1-0.2-0.1-0.3-0.2-0.4c-1.2-3.2,1.5-5.8,5.9-5.8l0.3,0.8c-3.9,0-6.2,2.2-5.1,5
		c0,0.1,0.1,0.2,0.1,0.2l0,0.1L859.5,490z"/>
	<path fill="#FFFFFF" d="M578.5,377l0.2-0.4c2.9,0,5.7-1.2,6.2-2.7l0.8,0C585.1,375.5,581.8,377,578.5,377"/>
	<path fill="#FFFFFF" d="M542.6,490l-1.1,0l0-0.1c0-0.1,0.1-0.2,0.1-0.3c1-2.8-1.3-5-5.1-5l0.3-0.8c4.5,0,7.1,2.6,5.9,5.8
		C542.8,489.7,542.7,489.8,542.6,490L542.6,490z"/>
	<path fill="#FFFFFF" d="M702.4,422.8c0,0.4-0.6,0.8-1.3,0.8s-1.3-0.3-1.3-0.8c0-0.4,0.6-0.8,1.3-0.8
		C701.8,422,702.4,422.3,702.4,422.8"/>
	<path fill="#FFFFFF" d="M814.1,422.8c0.1,0.4-0.3,0.8-1,0.8c-0.7,0-1.4-0.3-1.5-0.8c-0.1-0.4,0.3-0.8,1-0.8
		C813.3,422,814,422.3,814.1,422.8"/>
	<path fill="#FFFFFF" d="M590.6,422.8c-0.1,0.4-0.8,0.8-1.5,0.8c-0.7,0-1.1-0.3-1-0.8c0.1-0.4,0.8-0.8,1.5-0.8
		C590.3,422,590.7,422.3,590.6,422.8"/>
</g>
<g>
	<polygon fill="#258C39" points="1328.2,520.3 950.5,520.3 950.4,499 1008.5,389.8 1270.2,389.8 1328,499 	"/>
	<polygon fill="#33B63F" points="1328.2,500.5 950.5,500.5 1009.7,370.7 1269,370.7 	"/>
	<g opacity="0.15">
		<g>
			<defs>
				<rect id="SVGID_115_" x="1027.4" y="375.2" width="75.8" height="116.1"/>
			</defs>
			<clipPath id="SVGID_116_">
				<use xlink:href="#SVGID_115_"  overflow="visible"/>
			</clipPath>
			<path clip-path="url(#SVGID_116_)" fill="#FFFFFF" d="M1037.8,423.4c7-23.2,33.7-40.8,65.5-48.2h-14.5
				c-28.5,9-51.9,26.2-59.1,48.2c-8.3,25.6,6.9,51.5,39.6,67.9h20.7C1050.3,477.8,1029.6,450.6,1037.8,423.4"/>
		</g>
	</g>
	<g opacity="0.15">
		<g>
			<defs>
				<rect id="SVGID_117_" x="1004.7" y="375.2" width="65.6" height="116.1"/>
			</defs>
			<clipPath id="SVGID_118_">
				<use xlink:href="#SVGID_117_"  overflow="visible"/>
			</clipPath>
			<path clip-path="url(#SVGID_118_)" fill="#FFFFFF" d="M1016.6,423.4c7.6-21,28.2-37.8,53.6-48.2H1060
				c-24.1,11-43.5,27.6-51.5,48.2c-9.2,23.6-1.7,48.1,20.2,67.9h14.4C1017.7,472.4,1007.8,447.6,1016.6,423.4"/>
		</g>
	</g>
	<g opacity="0.15">
		<g>
			<defs>
				<rect id="SVGID_119_" x="1233.3" y="375.2" width="35.7" height="26.7"/>
			</defs>
			<clipPath id="SVGID_120_">
				<use xlink:href="#SVGID_119_"  overflow="visible"/>
			</clipPath>
			<path clip-path="url(#SVGID_120_)" fill="#FFFFFF" d="M1233.3,375.2c14,7.2,26.3,16.2,35.7,26.7l-5.1-12.3
				c-6.5-5.3-13.8-10.1-21.6-14.4H1233.3z"/>
		</g>
	</g>
	<g opacity="0.15">
		<g>
			<defs>
				<rect id="SVGID_121_" x="1208.6" y="375.2" width="65.6" height="116.1"/>
			</defs>
			<clipPath id="SVGID_122_">
				<use xlink:href="#SVGID_121_"  overflow="visible"/>
			</clipPath>
			<path clip-path="url(#SVGID_122_)" fill="#FFFFFF" d="M1218.8,375.2h-10.2c25.4,10.4,46,27.2,53.6,48.2
				c8.8,24.2-1.1,49-26.4,67.9h14.4c21.9-19.8,29.4-44.3,20.2-67.9C1262.4,402.8,1242.9,386.2,1218.8,375.2"/>
		</g>
	</g>
	<g opacity="0.15">
		<g>
			<defs>
				<rect id="SVGID_123_" x="1175.6" y="375.2" width="75.9" height="116.1"/>
			</defs>
			<clipPath id="SVGID_124_">
				<use xlink:href="#SVGID_123_"  overflow="visible"/>
			</clipPath>
			<path clip-path="url(#SVGID_124_)" fill="#FFFFFF" d="M1241,423.4c8.2,27.2-12.5,54.4-52.1,67.9h20.7
				c32.7-16.4,47.9-42.3,39.6-67.9c-7.2-22-30.6-39.2-59.1-48.2h-14.5C1207.3,382.6,1234,400.2,1241,423.4"/>
		</g>
	</g>
	<g opacity="0.15">
		<g>
			<defs>
				<rect id="SVGID_125_" x="1110.5" y="406.7" width="57.9" height="35.3"/>
			</defs>
			<clipPath id="SVGID_126_">
				<use xlink:href="#SVGID_125_"  overflow="visible"/>
			</clipPath>
			<path clip-path="url(#SVGID_126_)" fill="#FFFFFF" d="M1139.4,442c16.8,0,29.8-8.6,28.9-18.6c-0.8-9.4-13.8-16.7-28.9-16.7
				s-28.1,7.3-28.9,16.7C1109.7,433.4,1122.6,442,1139.4,442 M1139.4,411.2c11,0,20.3,5.4,20.8,12.2c0.4,7.1-8.9,13.1-20.8,13.1
				c-11.9,0-21.2-6-20.8-13.1C1119.1,416.6,1128.4,411.2,1139.4,411.2"/>
		</g>
	</g>
	<g opacity="0.15">
		<g>
			<defs>
				<rect id="SVGID_127_" x="983.6" y="447.6" width="24.7" height="43.6"/>
			</defs>
			<clipPath id="SVGID_128_">
				<use xlink:href="#SVGID_127_"  overflow="visible"/>
			</clipPath>
			<path clip-path="url(#SVGID_128_)" fill="#FFFFFF" d="M1008.3,491.3c-11.4-13.5-17.3-28.5-17.3-43.6l-7.3,17.8
				c2.1,8.9,6.2,17.6,12,25.8H1008.3z"/>
		</g>
	</g>
	<g opacity="0.15">
		<g>
			<defs>
				<rect id="SVGID_129_" x="1270.6" y="448" width="24.6" height="43.3"/>
			</defs>
			<clipPath id="SVGID_130_">
				<use xlink:href="#SVGID_129_"  overflow="visible"/>
			</clipPath>
			<path clip-path="url(#SVGID_130_)" fill="#FFFFFF" d="M1295.2,465.7l-7.3-17.7c-0.1,15-6,29.8-17.3,43.3h12.6
				C1289,483.1,1293,474.5,1295.2,465.7"/>
		</g>
	</g>
	<g opacity="0.15">
		<g>
			<defs>
				<rect id="SVGID_131_" x="1009.6" y="375.2" width="35.9" height="27"/>
			</defs>
			<clipPath id="SVGID_132_">
				<use xlink:href="#SVGID_131_"  overflow="visible"/>
			</clipPath>
			<path clip-path="url(#SVGID_132_)" fill="#FFFFFF" d="M1014.7,389.7l-5.1,12.5c9.4-10.6,21.8-19.7,35.9-27h-9
				C1028.6,379.5,1021.3,384.4,1014.7,389.7"/>
		</g>
	</g>
	<g opacity="0.15">
		<g>
			<defs>
				<rect id="SVGID_133_" x="1052.5" y="378.2" width="173.9" height="107.1"/>
			</defs>
			<clipPath id="SVGID_134_">
				<use xlink:href="#SVGID_133_"  overflow="visible"/>
			</clipPath>
			<path clip-path="url(#SVGID_134_)" fill="#FFFFFF" d="M1139.4,485.2c56,0,93.9-30.3,85.9-61.8c-6.8-26.5-44.9-45.2-85.9-45.2
				c-41,0-79.1,18.7-85.9,45.2C1045.5,454.9,1083.4,485.2,1139.4,485.2 M1139.4,381.9c37.6,0,72.2,17.3,77.8,41.5
				c6.5,28.3-27.9,55-77.7,55c-49.9,0-84.3-26.7-77.8-55C1067.3,399.2,1101.8,381.9,1139.4,381.9"/>
		</g>
	</g>
	<g opacity="0.15">
		<g>
			<defs>
				<rect id="SVGID_135_" x="1081.4" y="391.6" width="116" height="70.9"/>
			</defs>
			<clipPath id="SVGID_136_">
				<use xlink:href="#SVGID_135_"  overflow="visible"/>
			</clipPath>
			<path clip-path="url(#SVGID_136_)" fill="#FFFFFF" d="M1139.4,462.6c35.5,0,61.2-18.6,57.7-39.2c-3.1-18.3-28.9-31.8-57.7-31.8
				s-54.5,13.5-57.7,31.8C1078.3,443.9,1103.9,462.6,1139.4,462.6 M1139.4,395.7c25.1,0,47.2,11.8,49.5,27.7
				c2.6,17.5-19.5,33.1-49.5,33.1s-52.1-15.6-49.5-33.1C1092.2,407.6,1114.3,395.7,1139.4,395.7"/>
		</g>
	</g>
	<g opacity="0.15">
		<g>
			<defs>
				<rect id="SVGID_137_" x="1126.6" y="415.8" width="25.7" height="15.6"/>
			</defs>
			<clipPath id="SVGID_138_">
				<use xlink:href="#SVGID_137_"  overflow="visible"/>
			</clipPath>
			<path clip-path="url(#SVGID_138_)" fill="#FFFFFF" d="M1139.4,415.8c6.9,0,12.7,3.4,12.8,7.6c0.2,4.4-5.6,8-12.8,8
				s-13-3.6-12.8-8C1126.8,419.2,1132.5,415.8,1139.4,415.8"/>
		</g>
	</g>
	<polygon fill="#FFFFFF" points="1034.4,459 986.3,459 986.6,458.4 1033.6,458.4 1051.7,394.7 1012.7,394.7 1012.9,394.2 
		1052.6,394.2 	"/>
	<polygon fill="#FFFFFF" points="1009.7,438.9 994.5,438.9 994.8,438.3 1009,438.3 1019.5,409.8 1006.5,409.8 1006.7,409.3 
		1020.6,409.3 	"/>
	<polygon fill="#FFFFFF" points="1292.4,459 1244.3,459 1226,394.2 1265.8,394.2 1266,394.7 1227,394.7 1245.1,458.4 1292.1,458.4 	
		"/>
	<polygon fill="#FFFFFF" points="1284.2,438.9 1269,438.9 1258.1,409.3 1272,409.3 1272.2,409.8 1259.1,409.8 1269.7,438.3 
		1283.9,438.3 	"/>
	<polygon fill="#FFFFFF" points="1140,491.3 1138.9,491.3 1139.1,375.2 1139.8,375.2 	"/>
	<path fill="#FFFFFF" d="M1306.3,491.7h-334l48-116.7h237.9L1306.3,491.7z M973.7,490.9h331.2l-47.2-115.5H1021L973.7,490.9z"/>
	<path fill="#FFFFFF" d="M1139.4,439.2c-14.3,0-25.5-7.3-24.8-15.8c0.6-8.1,11.7-14.5,24.8-14.5c13.1,0,24.2,6.3,24.8,14.5
		C1164.9,431.9,1153.8,439.2,1139.4,439.2 M1139.4,409.4c-12.7,0-23.4,6.1-23.9,14c-0.6,8.2,10.1,15.2,23.9,15.2s24.5-7,23.9-15.2
		C1162.8,415.6,1152.1,409.4,1139.4,409.4"/>
	<path fill="#FFFFFF" d="M1237.8,435.7c-7-3.1-11.7-7.6-12.9-12.3c-1.2-4.6,1.2-8.8,6.3-11.5l0.6,0.4c-5,2.6-7.2,6.6-6,11.1
		c1.2,4.5,5.7,8.9,12.4,11.8L1237.8,435.7z"/>
	<path fill="#FFFFFF" d="M1040.9,435.7l-0.4-0.5c6.8-3,11.3-7.3,12.4-11.8c1.1-4.5-1.1-8.5-6.1-11.1l0.6-0.4
		c5.1,2.7,7.5,6.9,6.3,11.5C1052.6,428.1,1048,432.6,1040.9,435.7"/>
	<path fill="#FFFFFF" d="M1259.3,378.3c-3.3,0-6.4-1.4-7.1-3.1l0,0l0.8,0l0,0c0.6,1.5,3.3,2.7,6.2,2.7L1259.3,378.3z"/>
	<path fill="#FFFFFF" d="M1297.5,491.3L1297.5,491.3c-0.1-0.2-0.1-0.3-0.2-0.4c-1.3-3.3,1.3-5.9,5.8-5.9l0.3,0.8
		c-3.9,0-6.1,2.3-5,5.1c0,0.1,0.1,0.2,0.1,0.3l0,0.1L1297.5,491.3z"/>
	<path fill="#FFFFFF" d="M1019.4,378.3l0.2-0.4c2.8,0,5.6-1.2,6.2-2.7l0.8,0C1025.9,376.9,1022.7,378.3,1019.4,378.3"/>
	<path fill="#FFFFFF" d="M981.2,491.3l-1.1-0.1l0-0.1c0-0.1,0.1-0.2,0.1-0.3c1.1-2.8-1.1-5.1-5-5.1l0.3-0.8c4.4,0,7,2.6,5.8,5.9
		C981.3,491,981.3,491.1,981.2,491.3L981.2,491.3z"/>
	<path fill="#FFFFFF" d="M1140.7,423.5c0,0.4-0.6,0.8-1.2,0.8c-0.7,0-1.2-0.3-1.2-0.8c0-0.4,0.6-0.8,1.2-0.8
		C1140.1,422.8,1140.7,423.1,1140.7,423.5"/>
	<path fill="#FFFFFF" d="M1250.9,423.5c0.1,0.4-0.3,0.8-1,0.8s-1.3-0.3-1.5-0.8c-0.1-0.4,0.3-0.8,1-0.8
		C1250.1,422.8,1250.8,423.1,1250.9,423.5"/>
	<path fill="#FFFFFF" d="M1030.4,423.5c-0.1,0.4-0.8,0.8-1.5,0.8s-1.1-0.3-1-0.8c0.1-0.4,0.8-0.8,1.5-0.8S1030.5,423.1,1030.4,423.5
		"/>
</g>
</svg>
