<?xml version="1.0" encoding="utf-8"?>
<!-- Generator: Adobe Illustrator 18.0.0, SVG Export Plug-In . SVG Version: 6.00 Build 0)  -->
<!DOCTYPE svg PUBLIC "-//W3C//DTD SVG 1.1//EN" "http://www.w3.org/Graphics/SVG/1.1/DTD/svg11.dtd">
<svg version="1.1" id="Layer_1" xmlns="http://www.w3.org/2000/svg" xmlns:xlink="http://www.w3.org/1999/xlink" x="0px" y="0px"
	 viewBox="0 0 1400 980" enable-background="new 0 0 1400 980" xml:space="preserve">
<g>
	<rect fill="#1B222A" width="1400" height="980"/>
	<g>
		<g>
			<g>
				<rect x="134.3" y="68" fill="#58AA46" width="339.9" height="227.4"/>
				<rect x="304.2" y="68" fill="#438F42" width="21.2" height="227.4"/>
				<rect x="346.7" y="68" fill="#438F42" width="21.2" height="227.4"/>
				<rect x="389.2" y="68" fill="#438F42" width="21.2" height="227.4"/>
				<rect x="431.6" y="68" fill="#438F42" width="21.2" height="227.4"/>
				<rect x="261.7" y="68" fill="#438F42" width="21.2" height="227.4"/>
				<rect x="219.2" y="68" fill="#438F42" width="21.2" height="227.4"/>
				<rect x="176.7" y="68" fill="#438F42" width="21.2" height="227.4"/>
				<rect x="134.3" y="68" fill="#438F42" width="21.2" height="227.4"/>
			</g>
			<g>
				<g>
					<path fill="#FFFFFF" d="M452.8,281.5H155.5V81.9h297.3V281.5z M157.8,279.2h292.7v-195H157.8V279.2z"/>
				</g>
				<g>
					<rect x="303" y="83" fill="#FFFFFF" width="2.3" height="197.3"/>
				</g>
				<g>
					<path fill="#FFFFFF" d="M304.2,209.4c-15.3,0-27.7-12.4-27.7-27.7s12.4-27.7,27.7-27.7c15.3,0,27.7,12.4,27.7,27.7
						S319.5,209.4,304.2,209.4z M304.2,156.3c-14,0-25.4,11.4-25.4,25.4c0,14,11.4,25.4,25.4,25.4c14,0,25.4-11.4,25.4-25.4
						C329.6,167.7,318.2,156.3,304.2,156.3z"/>
				</g>
				<g>
					<path fill="#FFFFFF" d="M203.3,238.9h-47.8V124.5h47.8V238.9z M157.8,236.6H201V126.8h-43.2V236.6z"/>
				</g>
				<g>
					<path fill="#FFFFFF" d="M173.7,209.4h-18.1V154h18.1V209.4z M157.8,207.1h13.5v-50.9h-13.5V207.1z"/>
				</g>
				<g>
					<path fill="#FFFFFF" d="M201,205.1v-46.8l1.9,1.4c6.8,5.3,10.8,13.3,10.8,21.9c0,8.6-3.9,16.6-10.8,21.9L201,205.1z
						 M203.3,163.1v37.1c5.1-4.8,8-11.4,8-18.5C211.3,174.6,208.4,168,203.3,163.1z"/>
				</g>
				<g>
					<path fill="#FFFFFF" d="M157.8,198.1h-14.5v-32.9h14.5V198.1z M145.6,195.8h9.9v-28.3h-9.9V195.8z"/>
				</g>
				<g>
					<rect x="146.8" y="166.4" fill="#FFFFFF" width="2.3" height="30.6"/>
				</g>
				<g>
					<rect x="151.4" y="166.4" fill="#FFFFFF" width="2.3" height="30.6"/>
				</g>
				<g>
					<g>
						<rect x="144.5" y="168.4" fill="#FFFFFF" width="12.2" height="2.3"/>
					</g>
					<g>
						<rect x="144.5" y="173.2" fill="#FFFFFF" width="12.2" height="2.3"/>
					</g>
					<g>
						<rect x="144.5" y="178.1" fill="#FFFFFF" width="12.2" height="2.3"/>
					</g>
					<g>
						<rect x="144.5" y="183" fill="#FFFFFF" width="12.2" height="2.3"/>
					</g>
					<g>
						<rect x="144.5" y="187.8" fill="#FFFFFF" width="12.2" height="2.3"/>
					</g>
					<g>
						<rect x="144.5" y="192.7" fill="#FFFFFF" width="12.2" height="2.3"/>
					</g>
				</g>
				<g>
					<path fill="#FFFFFF" d="M156.7,91.6h-1.2v-9.8h9.8V83C165.3,87.8,161.4,91.6,156.7,91.6z M157.8,84.2v5.1
						c2.6-0.5,4.6-2.5,5.1-5.1H157.8z"/>
				</g>
				<g>
					<path fill="#FFFFFF" d="M165.3,281.5h-9.8v-9.8h1.2c4.8,0,8.6,3.9,8.6,8.6V281.5z M157.8,279.2h5.1c-0.5-2.6-2.5-4.6-5.1-5.1
						V279.2z"/>
				</g>
				<g>
					<path fill="#FFFFFF" d="M187.1,183.7c-1.1,0-2-0.9-2-2s0.9-2,2-2s2,0.9,2,2S188.2,183.7,187.1,183.7z M187.1,181.4
						c-0.2,0-0.4,0.2-0.4,0.4s0.2,0.4,0.4,0.4s0.4-0.2,0.4-0.4S187.3,181.4,187.1,181.4z"/>
				</g>
				<g>
					<path fill="#FFFFFF" d="M452.8,238.9h-47.8V124.5h47.8V238.9z M407.4,236.6h43.2V126.8h-43.2V236.6z"/>
				</g>
				<g>
					<path fill="#FFFFFF" d="M452.8,209.4h-18.1V154h18.1V209.4z M437,207.1h13.5v-50.9H437V207.1z"/>
				</g>
				<g>
					<path fill="#FFFFFF" d="M407.4,205.1l-1.9-1.4c-6.8-5.3-10.8-13.3-10.8-21.9c0-8.6,3.9-16.6,10.8-21.9l1.9-1.4V205.1z
						 M405.1,163.1c-5.1,4.8-8,11.4-8,18.5s2.9,13.7,8,18.5V163.1z"/>
				</g>
				<g>
					<path fill="#FFFFFF" d="M465,198.1h-14.5v-32.9H465V198.1z M452.8,195.8h9.9v-28.3h-9.9V195.8z"/>
				</g>
				<g>
					<rect x="459.2" y="166.4" fill="#FFFFFF" width="2.3" height="30.6"/>
				</g>
				<g>
					<rect x="454.7" y="166.4" fill="#FFFFFF" width="2.3" height="30.6"/>
				</g>
				<g>
					<g>
						<rect x="451.7" y="168.4" fill="#FFFFFF" width="12.2" height="2.3"/>
					</g>
					<g>
						<rect x="451.7" y="173.2" fill="#FFFFFF" width="12.2" height="2.3"/>
					</g>
					<g>
						<rect x="451.7" y="178.1" fill="#FFFFFF" width="12.2" height="2.3"/>
					</g>
					<g>
						<rect x="451.7" y="183" fill="#FFFFFF" width="12.2" height="2.3"/>
					</g>
					<g>
						<rect x="451.7" y="187.8" fill="#FFFFFF" width="12.2" height="2.3"/>
					</g>
					<g>
						<rect x="451.7" y="192.7" fill="#FFFFFF" width="12.2" height="2.3"/>
					</g>
				</g>
				<g>
					<path fill="#FFFFFF" d="M452.8,91.6h-1.2c-4.8,0-8.6-3.9-8.6-8.6v-1.2h9.8V91.6z M445.5,84.2c0.5,2.6,2.5,4.6,5.1,5.1v-5.1
						H445.5z"/>
				</g>
				<g>
					<path fill="#FFFFFF" d="M452.8,281.5h-9.8v-1.2c0-4.8,3.9-8.6,8.6-8.6h1.2V281.5z M445.5,279.2h5.1v-5.1
						C448,274.6,445.9,276.6,445.5,279.2z"/>
				</g>
				<g>
					<path fill="#FFFFFF" d="M421.3,183.7c-1.1,0-2-0.9-2-2s0.9-2,2-2c1.1,0,2,0.9,2,2S422.4,183.7,421.3,183.7z M421.3,181.4
						c-0.2,0-0.3,0.2-0.3,0.4s0.2,0.4,0.3,0.4c0.2,0,0.4-0.2,0.4-0.4S421.5,181.4,421.3,181.4z"/>
				</g>
			</g>
		</g>
		<g>
			<g>
				<g>
					<polygon fill="#58AA46" points="883.8,201.6 519.3,201.6 578,68 825.1,68 					"/>
					<polygon fill="#438F42" points="724.3,201.6 701.6,201.6 701.6,68 717,68 					"/>
					<polygon fill="#438F42" points="769.9,201.6 747.1,201.6 732.4,68 747.9,68 					"/>
					<polygon fill="#438F42" points="815.5,201.6 792.7,201.6 763.3,68 778.7,68 					"/>
					<polygon fill="#438F42" points="861.1,201.6 838.3,201.6 794.2,68 809.6,68 					"/>
					<polygon fill="#438F42" points="656,201.6 678.8,201.6 686.1,68 670.7,68 					"/>
					<polygon fill="#438F42" points="610.4,201.6 633.2,201.6 655.2,68 639.8,68 					"/>
					<polygon fill="#438F42" points="564.8,201.6 587.6,201.6 624.4,68 608.9,68 					"/>
					<polygon fill="#438F42" points="519.3,201.6 542.1,201.6 593.5,68 578,68 					"/>
				</g>
				<g>
					<g>
						<path fill="#FFFFFF" d="M856.5,190H546.6l44.8-116.3h220.4L856.5,190z M549.7,188.1h303.7l-43-113.5H592.7L549.7,188.1z"/>
					</g>
					<g>
						<polygon fill="#FFFFFF" points="702.8,189 700.4,189 700.7,74.1 702.4,74.1 						"/>
					</g>
					<g>
						<path fill="#FFFFFF" d="M701.6,138.5c-13.9,0-24.7-7.6-24-16.5c0.6-8.4,11.4-15,24-15s23.4,6.6,24,15
							C726.2,130.9,715.5,138.5,701.6,138.5z M701.6,108.2c-11.7,0-21.5,6-22,13.8c-0.5,8.1,9.3,15,22,15s22.6-6.9,22-15
							C723.1,114.2,713.2,108.2,701.6,108.2z"/>
					</g>
					<g>
						<path fill="#FFFFFF" d="M604.8,157.8H559l25.2-65.4h37.7L604.8,157.8z M561.8,156.2H603l16.7-62.7h-34.2L561.8,156.2z"/>
					</g>
					<g>
						<path fill="#FFFFFF" d="M582.9,138.5h-16.5l12.1-31.5h15L582.9,138.5z M569,137h12.2l9.9-28.8H580L569,137z"/>
					</g>
					<g>
						<path fill="#FFFFFF" d="M608.5,135.8l7.1-26.5l1.3,0.8c5,2.8,7.3,7.2,6.2,12c-1.2,5-5.8,9.7-12.7,12.9L608.5,135.8z
							 M616.8,111.8l-5.5,21c5.3-2.9,8.8-6.8,9.8-10.8C622,118,620.5,114.4,616.8,111.8z"/>
					</g>
					<g>
						<path fill="#FFFFFF" d="M571.1,131.6h-12.9l7.8-18.6h12.2L571.1,131.6z M560.8,130.2h8.8l6.2-16h-8.4L560.8,130.2z"/>
					</g>
					<g>
						<polygon fill="#FFFFFF" points="563.6,130.9 561.6,130.9 568.7,113.5 570.6,113.5 						"/>
					</g>
					<g>
						<polygon fill="#FFFFFF" points="567.7,130.9 565.7,130.9 572.5,113.5 574.5,113.5 						"/>
					</g>
					<g>
						<g>
							<polygon fill="#FFFFFF" points="576.1,115.8 565.7,115.8 566.2,114.6 576.6,114.6 							"/>
						</g>
						<g>
							<polygon fill="#FFFFFF" points="575.1,118.5 564.6,118.5 565.1,117.3 575.5,117.3 							"/>
						</g>
						<g>
							<polygon fill="#FFFFFF" points="574,121.3 563.5,121.3 564,120 574.5,120 							"/>
						</g>
						<g>
							<polygon fill="#FFFFFF" points="573,124 562.3,124 562.9,122.7 573.5,122.7 							"/>
						</g>
						<g>
							<polygon fill="#FFFFFF" points="571.9,126.8 561.2,126.8 561.7,125.5 572.4,125.5 							"/>
						</g>
						<g>
							<polygon fill="#FFFFFF" points="570.8,129.7 560,129.7 560.5,128.3 571.3,128.3 							"/>
						</g>
					</g>
					<g>
						<path fill="#FFFFFF" d="M590.6,77.7h-0.9l1.6-4.1h7.2l-0.2,0.5C597.7,76.1,594.2,77.7,590.6,77.7z M592.7,74.6l-0.8,2.1
							c2-0.2,3.8-1.1,4.6-2.1H592.7z"/>
					</g>
					<g>
						<path fill="#FFFFFF" d="M556.8,190h-10.2l3-7.9h1.2c4.9,0,7.7,3.1,6.3,6.9L556.8,190z M549.7,188.1h5.3
							c0.3-2.1-1.2-3.7-3.7-4.1L549.7,188.1z"/>
					</g>
					<g>
						<path fill="#FFFFFF" d="M599.8,123.1c-0.9,0-1.5-0.5-1.4-1.1c0.2-0.6,1.1-1.1,2-1.1s1.5,0.5,1.4,1.1
							C601.6,122.6,600.7,123.1,599.8,123.1z M600.1,121.8c-0.2,0-0.3,0.1-0.4,0.2c0,0.1,0.1,0.2,0.2,0.2s0.3-0.1,0.4-0.2
							C600.4,121.9,600.3,121.8,600.1,121.8z"/>
					</g>
					<g>
						<path fill="#FFFFFF" d="M844.2,157.8h-45.8l-17.1-65.4H819L844.2,157.8z M800.1,156.2h41.2l-23.8-62.7h-34.2L800.1,156.2z"/>
					</g>
					<g>
						<path fill="#FFFFFF" d="M836.7,138.5h-16.5L809.6,107h15L836.7,138.5z M821.8,137h12.2l-10.9-28.8h-11.2L821.8,137z"/>
					</g>
					<g>
						<path fill="#FFFFFF" d="M794.6,135.8l-1.9-0.9c-6.9-3.2-11.5-7.9-12.7-12.9c-1.1-4.8,1.2-9.2,6.2-12l1.3-0.8L794.6,135.8z
							 M786.3,111.8c-3.7,2.6-5.2,6.2-4.3,10.2c1,4.1,4.5,8,9.8,10.8L786.3,111.8z"/>
					</g>
					<g>
						<path fill="#FFFFFF" d="M844.9,131.6H832l-7.1-18.6h12.2L844.9,131.6z M833.5,130.2h8.8l-6.6-16h-8.4L833.5,130.2z"/>
					</g>
					<g>
						<polygon fill="#FFFFFF" points="841.5,130.9 839.5,130.9 832.5,113.5 834.5,113.5 						"/>
					</g>
					<g>
						<polygon fill="#FFFFFF" points="837.4,130.9 835.4,130.9 828.6,113.5 830.6,113.5 						"/>
					</g>
					<g>
						<g>
							<polygon fill="#FFFFFF" points="837.4,115.8 827,115.8 826.5,114.6 836.9,114.6 							"/>
						</g>
						<g>
							<polygon fill="#FFFFFF" points="838.5,118.5 828,118.5 827.6,117.3 838,117.3 							"/>
						</g>
						<g>
							<polygon fill="#FFFFFF" points="839.6,121.3 829.1,121.3 828.6,120 839.1,120 							"/>
						</g>
						<g>
							<polygon fill="#FFFFFF" points="840.8,124 830.1,124 829.6,122.7 840.2,122.7 							"/>
						</g>
						<g>
							<polygon fill="#FFFFFF" points="841.9,126.8 831.2,126.8 830.7,125.5 841.4,125.5 							"/>
						</g>
						<g>
							<polygon fill="#FFFFFF" points="843.1,129.7 832.3,129.7 831.8,128.3 842.6,128.3 							"/>
						</g>
					</g>
					<g>
						<path fill="#FFFFFF" d="M813.3,77.7h-0.9c-3.6,0-7.1-1.6-7.8-3.6l-0.2-0.5h7.2L813.3,77.7z M806.6,74.6
							c0.7,1.1,2.6,1.9,4.6,2.1l-0.8-2.1H806.6z"/>
					</g>
					<g>
						<path fill="#FFFFFF" d="M856.5,190h-10.2L846,189c-1.4-3.8,1.5-6.9,6.3-6.9h1.2L856.5,190z M848.1,188.1h5.3l-1.5-4.1
							C849.4,184.4,847.9,186,848.1,188.1z"/>
					</g>
					<g>
						<path fill="#FFFFFF" d="M803.4,123.1c-0.9,0-1.8-0.5-2-1.1c-0.2-0.6,0.4-1.1,1.4-1.1c0.9,0,1.8,0.5,2,1.1
							C804.9,122.6,804.3,123.1,803.4,123.1z M803,121.8c-0.2,0-0.3,0.1-0.2,0.2c0,0.1,0.2,0.2,0.4,0.2s0.3-0.1,0.2-0.2
							C803.3,121.9,803.1,121.8,803,121.8z"/>
					</g>
				</g>
			</g>
			<rect x="519.3" y="201.6" fill="#FBB040" width="364.6" height="16.1"/>
		</g>
		<g>
			<g>
				<g>
					<polygon fill="#58AA46" points="967.7,306.5 1014.3,68 1219.2,68 1265.7,306.5 					"/>
					<polygon fill="#438F42" points="992.4,179.9 995.3,165.2 1238.2,165.2 1241,179.9 					"/>
					<polygon fill="#438F42" points="986.2,211.6 989.4,195.4 1244.1,195.4 1247.2,211.6 					"/>
					<polygon fill="#438F42" points="979.4,246.6 982.9,228.7 1250.6,228.7 1254.1,246.6 					"/>
					<polygon fill="#438F42" points="971.8,285.4 975.7,265.5 1257.7,265.5 1261.6,285.4 					"/>
					<polygon fill="#438F42" points="1000.7,137.7 998.1,151.1 1235.4,151.1 1232.8,137.7 					"/>
					<polygon fill="#438F42" points="1005.6,112.5 1003.2,124.8 1230.3,124.8 1227.9,112.5 					"/>
					<polygon fill="#438F42" points="1010.1,89.3 1007.9,100.7 1225.6,100.7 1223.4,89.3 					"/>
					<polygon fill="#438F42" points="1014.3,68 1012.2,78.5 1221.2,78.5 1219.2,68 					"/>
				</g>
				<g>
					<g>
						<path fill="#FFFFFF" d="M989.5,285.4L1025,78.5h183.5l35.5,206.9H989.5z M1026.9,79.6l-34.1,203.6h247.8l-34.1-203.6H1026.9z"
							/>
					</g>
					<g>
						<polygon fill="#FFFFFF" points="1011.2,166 1011.5,164.4 1222,164.4 1222.3,166 						"/>
					</g>
					<g>
						<path fill="#FFFFFF" d="M1087.1,165.2c0.5-10.2,13.8-18.2,29.6-18.2c15.9,0,29.1,8.1,29.6,18.2c0.5,10.5-12.8,19.4-29.6,19.4
							C1099.9,184.6,1086.6,175.7,1087.1,165.2z M1143.9,165.2c-0.4-9.4-12.6-16.8-27.2-16.8c-14.6,0-26.8,7.4-27.2,16.8
							c-0.4,9.7,11.8,17.7,27.2,17.7C1132.1,182.9,1144.3,174.8,1143.9,165.2z"/>
					</g>
					<g>
						<path fill="#FFFFFF" d="M1061.7,103.6l2.5-25.1h105.2l2.5,25.1H1061.7z M1066.1,79.6l-2.1,22.7h105.5l-2.1-22.7H1066.1z"/>
					</g>
					<g>
						<path fill="#FFFFFF" d="M1090.8,87.7l0.4-9.3h51l0.4,9.3H1090.8z M1093.3,79.6l-0.3,6.9h47.5l-0.3-6.9H1093.3z"/>
					</g>
					<g>
						<path fill="#FFFFFF" d="M1094.3,102.3h44.9l-1.3,1c-5,3.8-12.7,6-21.1,6c-8.4,0-16.1-2.2-21.1-6L1094.3,102.3z M1134.6,103.6
							h-35.7c4.6,2.8,11,4.4,17.8,4.4C1123.6,108,1130,106.4,1134.6,103.6z"/>
					</g>
					<g>
						<path fill="#FFFFFF" d="M1101.6,79.6l0.2-7.2h29.9l0.2,7.2H1101.6z M1103.8,73.6l-0.1,4.9h26l-0.1-4.9H1103.8z"/>
					</g>
					<g>
						<polygon fill="#FFFFFF" points="1102.7,75.3 1102.8,74.2 1130.7,74.2 1130.7,75.3 						"/>
					</g>
					<g>
						<polygon fill="#FFFFFF" points="1102.7,77.6 1102.7,76.4 1130.8,76.4 1130.8,77.6 						"/>
					</g>
					<g>
						<g>
							<polygon fill="#FFFFFF" points="1126.9,79.1 1126.8,73 1128.9,73 1129,79.1 							"/>
						</g>
						<g>
							<polygon fill="#FFFFFF" points="1122.4,79.1 1122.3,73 1124.4,73 1124.5,79.1 							"/>
						</g>
						<g>
							<polygon fill="#FFFFFF" points="1117.9,79.1 1117.9,73 1120,73 1120,79.1 							"/>
						</g>
						<g>
							<polygon fill="#FFFFFF" points="1113.4,79.1 1113.5,73 1115.6,73 1115.6,79.1 							"/>
						</g>
						<g>
							<polygon fill="#FFFFFF" points="1109,79.1 1109,73 1111.1,73 1111.1,79.1 							"/>
						</g>
						<g>
							<polygon fill="#FFFFFF" points="1104.5,79.1 1104.6,73 1106.7,73 1106.6,79.1 							"/>
						</g>
					</g>
					<g>
						<path fill="#FFFFFF" d="M1199.6,79.1l-0.1-0.6h9l0.8,5h-1.1C1203.9,83.4,1200,81.5,1199.6,79.1z M1206.6,79.6h-4.7
							c0.6,1.3,2.7,2.3,5.1,2.6L1206.6,79.6z"/>
					</g>
					<g>
						<path fill="#FFFFFF" d="M1024.1,83.4l0.8-5h9l-0.1,0.6c-0.4,2.4-4.3,4.4-8.7,4.4H1024.1z M1026.9,79.6l-0.4,2.6
							c2.4-0.2,4.5-1.3,5.1-2.6H1026.9z"/>
					</g>
					<g>
						<path fill="#FFFFFF" d="M1114.8,94.8c0-0.6,0.8-1,1.8-1c1,0,1.8,0.5,1.8,1c0,0.6-0.8,1-1.8,1S1114.8,95.4,1114.8,94.8z
							 M1117,94.8c0-0.1-0.1-0.2-0.3-0.2s-0.3,0.1-0.3,0.2c0,0.1,0.1,0.2,0.3,0.2S1117,94.9,1117,94.8z"/>
					</g>
					<g>
						<path fill="#FFFFFF" d="M1043.8,285.4l4.3-43.4h137.3l4.3,43.4H1043.8z M1050.7,244l-3.7,39.2h139.6l-3.7-39.2H1050.7z"/>
					</g>
					<g>
						<path fill="#FFFFFF" d="M1081.4,285.4l0.8-17.1h69.1l0.8,17.1H1081.4z M1085,270.4l-0.6,12.7h64.6l-0.6-12.7H1085z"/>
					</g>
					<g>
						<path fill="#FFFFFF" d="M1088.6,244l1.8-1.6c6.5-5.8,16.1-9.1,26.4-9.1c10.2,0,19.8,3.3,26.4,9.1l1.8,1.6H1088.6z M1139,242
							c-5.9-4.4-13.8-6.8-22.3-6.8c-8.4,0-16.4,2.4-22.3,6.8H1139z"/>
					</g>
					<g>
						<path fill="#FFFFFF" d="M1095.4,297.4l0.4-14.2h41.8l0.4,14.2H1095.4z M1098.7,285.4l-0.2,9.7h36.6l-0.2-9.7H1098.7z"/>
					</g>
					<g>
						<polygon fill="#FFFFFF" points="1097,293.9 1097.1,291.6 1136.4,291.6 1136.5,293.9 						"/>
					</g>
					<g>
						<polygon fill="#FFFFFF" points="1097.1,289.4 1097.2,287.2 1136.3,287.2 1136.4,289.4 						"/>
					</g>
					<g>
						<g>
							<polygon fill="#FFFFFF" points="1131,296.2 1130.8,284.3 1133.7,284.3 1134,296.2 							"/>
						</g>
						<g>
							<polygon fill="#FFFFFF" points="1124.7,296.2 1124.6,284.3 1127.5,284.3 1127.7,296.2 							"/>
						</g>
						<g>
							<polygon fill="#FFFFFF" points="1118.4,296.2 1118.4,284.3 1121.3,284.3 1121.4,296.2 							"/>
						</g>
						<g>
							<polygon fill="#FFFFFF" points="1112.1,296.2 1112.2,284.3 1115.1,284.3 1115.1,296.2 							"/>
						</g>
						<g>
							<polygon fill="#FFFFFF" points="1105.8,296.2 1106,284.3 1108.9,284.3 1108.8,296.2 							"/>
						</g>
						<g>
							<polygon fill="#FFFFFF" points="1099.5,296.2 1099.8,284.3 1102.7,284.3 1102.5,296.2 							"/>
						</g>
					</g>
					<g>
						<path fill="#FFFFFF" d="M1231.5,285.4l-0.2-1.1c-0.7-4.5,3.6-8.2,9.6-8.2h1.4l1.6,9.3H1231.5z M1239.9,278.4
							c-3.2,0.4-5.4,2.4-5.6,4.8h6.4L1239.9,278.4z"/>
					</g>
					<g>
						<path fill="#FFFFFF" d="M989.5,285.4l1.6-9.3h1.4c6,0,10.3,3.7,9.6,8.2l-0.2,1.1H989.5z M993.6,278.4l-0.8,4.8h6.4
							C999,280.7,996.8,278.8,993.6,278.4z"/>
					</g>
					<g>
						<path fill="#FFFFFF" d="M1114.3,256.2c0-1,1.1-1.7,2.4-1.7s2.4,0.8,2.4,1.7c0,1-1.1,1.7-2.4,1.7
							C1115.3,257.9,1114.3,257.1,1114.3,256.2z M1117.1,256.2c0-0.2-0.2-0.3-0.4-0.3s-0.4,0.1-0.4,0.3c0,0.2,0.2,0.3,0.4,0.3
							C1116.9,256.5,1117.1,256.3,1117.1,256.2z"/>
					</g>
				</g>
			</g>
			<rect x="967.7" y="306.5" fill="#FBB040" width="298" height="19.1"/>
		</g>
		<g>
			<g>
				<rect x="599.5" y="297.7" fill="#58AA46" width="204.2" height="305.2"/>
				<rect x="599.5" y="450.4" fill="#438F42" width="204.2" height="19.1"/>
				<rect x="599.5" y="488.5" fill="#438F42" width="204.2" height="19.1"/>
				<rect x="599.5" y="526.7" fill="#438F42" width="204.2" height="19.1"/>
				<rect x="599.5" y="564.8" fill="#438F42" width="204.2" height="19.1"/>
				<rect x="599.5" y="412.2" fill="#438F42" width="204.2" height="19.1"/>
				<rect x="599.5" y="374.1" fill="#438F42" width="204.2" height="19.1"/>
				<rect x="599.5" y="335.9" fill="#438F42" width="204.2" height="19.1"/>
				<rect x="599.5" y="297.7" fill="#438F42" width="204.2" height="19.1"/>
			</g>
			<g>
				<g>
					<path fill="#FFFFFF" d="M611.9,583.9v-267h179.3v267H611.9z M614,318.9v262.9h175.2V318.9H614z"/>
				</g>
				<g>
					<rect x="612.9" y="449.3" fill="#FFFFFF" width="177.2" height="2.1"/>
				</g>
				<g>
					<path fill="#FFFFFF" d="M676.6,450.4c0-13.7,11.2-24.9,24.9-24.9s24.9,11.2,24.9,24.9s-11.2,24.9-24.9,24.9
						S676.6,464.1,676.6,450.4z M724.4,450.4c0-12.6-10.2-22.8-22.8-22.8s-22.8,10.2-22.8,22.8s10.2,22.8,22.8,22.8
						S724.4,463,724.4,450.4z"/>
				</g>
				<g>
					<path fill="#FFFFFF" d="M650.2,359.8v-42.9h102.8v42.9H650.2z M652.2,318.9v38.8h98.6v-38.8H652.2z"/>
				</g>
				<g>
					<path fill="#FFFFFF" d="M676.6,333.1v-16.3h49.8v16.3H676.6z M678.7,318.9v12.1h45.7v-12.1H678.7z"/>
				</g>
				<g>
					<path fill="#FFFFFF" d="M680.5,357.7h42l-1.3,1.7c-4.8,6.1-12,9.7-19.7,9.7c-7.8,0-14.9-3.5-19.7-9.7L680.5,357.7z
						 M718.2,359.8h-33.3c4.3,4.6,10.3,7.2,16.7,7.2C707.9,366.9,713.9,364.4,718.2,359.8z"/>
				</g>
				<g>
					<path fill="#FFFFFF" d="M686.8,318.9v-13h29.6v13H686.8z M688.8,308v8.9h25.4V308H688.8z"/>
				</g>
				<g>
					<rect x="687.8" y="309.1" fill="#FFFFFF" width="27.5" height="2.1"/>
				</g>
				<g>
					<rect x="687.8" y="313.2" fill="#FFFFFF" width="27.5" height="2.1"/>
				</g>
				<g>
					<g>
						<rect x="711.5" y="306.9" fill="#FFFFFF" width="2.1" height="11"/>
					</g>
					<g>
						<rect x="707.1" y="306.9" fill="#FFFFFF" width="2.1" height="11"/>
					</g>
					<g>
						<rect x="702.7" y="306.9" fill="#FFFFFF" width="2.1" height="11"/>
					</g>
					<g>
						<rect x="698.3" y="306.9" fill="#FFFFFF" width="2.1" height="11"/>
					</g>
					<g>
						<rect x="694" y="306.9" fill="#FFFFFF" width="2.1" height="11"/>
					</g>
					<g>
						<rect x="689.6" y="306.9" fill="#FFFFFF" width="2.1" height="11"/>
					</g>
				</g>
				<g>
					<path fill="#FFFFFF" d="M782.4,317.9v-1h8.8v8.8h-1C785.9,325.6,782.4,322.2,782.4,317.9z M789.1,318.9h-4.6
						c0.4,2.3,2.2,4.1,4.6,4.6V318.9z"/>
				</g>
				<g>
					<path fill="#FFFFFF" d="M611.9,325.6v-8.8h8.8v1c0,4.3-3.5,7.7-7.7,7.7H611.9z M614,318.9v4.6c2.3-0.4,4.1-2.2,4.6-4.6H614z"/>
				</g>
				<g>
					<path fill="#FFFFFF" d="M699.7,345.2c0-1,0.8-1.8,1.8-1.8s1.8,0.8,1.8,1.8c0,1-0.8,1.8-1.8,1.8S699.7,346.2,699.7,345.2z
						 M701.8,345.2c0-0.2-0.1-0.3-0.3-0.3s-0.3,0.1-0.3,0.3c0,0.2,0.1,0.3,0.3,0.3S701.8,345.4,701.8,345.2z"/>
				</g>
				<g>
					<path fill="#FFFFFF" d="M650.2,583.9V541h102.8v42.9H650.2z M652.2,543v38.8h98.6V543H652.2z"/>
				</g>
				<g>
					<path fill="#FFFFFF" d="M676.6,583.9v-16.3h49.8v16.3H676.6z M678.7,569.7v12.1h45.7v-12.1H678.7z"/>
				</g>
				<g>
					<path fill="#FFFFFF" d="M680.5,543l1.3-1.7c4.8-6.1,12-9.7,19.7-9.7c7.8,0,14.9,3.5,19.7,9.7l1.3,1.7H680.5z M718.2,541
						c-4.3-4.6-10.3-7.2-16.7-7.2c-6.4,0-12.3,2.6-16.7,7.2H718.2z"/>
				</g>
				<g>
					<path fill="#FFFFFF" d="M686.8,594.8v-13h29.6v13H686.8z M688.8,583.9v8.9h25.4v-8.9H688.8z"/>
				</g>
				<g>
					<rect x="687.8" y="589.6" fill="#FFFFFF" width="27.5" height="2.1"/>
				</g>
				<g>
					<rect x="687.8" y="585.5" fill="#FFFFFF" width="27.5" height="2.1"/>
				</g>
				<g>
					<g>
						<rect x="711.5" y="582.8" fill="#FFFFFF" width="2.1" height="11"/>
					</g>
					<g>
						<rect x="707.1" y="582.8" fill="#FFFFFF" width="2.1" height="11"/>
					</g>
					<g>
						<rect x="702.7" y="582.8" fill="#FFFFFF" width="2.1" height="11"/>
					</g>
					<g>
						<rect x="698.3" y="582.8" fill="#FFFFFF" width="2.1" height="11"/>
					</g>
					<g>
						<rect x="694" y="582.8" fill="#FFFFFF" width="2.1" height="11"/>
					</g>
					<g>
						<rect x="689.6" y="582.8" fill="#FFFFFF" width="2.1" height="11"/>
					</g>
				</g>
				<g>
					<path fill="#FFFFFF" d="M782.4,583.9v-1c0-4.3,3.5-7.7,7.7-7.7h1v8.8H782.4z M789.1,577.2c-2.3,0.4-4.1,2.2-4.6,4.6h4.6V577.2z
						"/>
				</g>
				<g>
					<path fill="#FFFFFF" d="M611.9,583.9v-8.8h1c4.3,0,7.7,3.5,7.7,7.7v1H611.9z M614,577.2v4.6h4.6
						C618.1,579.5,616.3,577.7,614,577.2z"/>
				</g>
				<g>
					<path fill="#FFFFFF" d="M699.7,555.5c0-1,0.8-1.8,1.8-1.8s1.8,0.8,1.8,1.8c0,1-0.8,1.8-1.8,1.8S699.7,556.5,699.7,555.5z
						 M701.8,555.5c0-0.2-0.1-0.3-0.3-0.3s-0.3,0.1-0.3,0.3c0,0.2,0.1,0.3,0.3,0.3S701.8,555.7,701.8,555.5z"/>
				</g>
			</g>
		</g>
		<g>
			<g>
				<g>
					<g enable-background="new    ">
						<g>
							<polygon fill="#3A813B" points="1036,369.8 873.1,464.5 857.8,455.6 1020.7,361 							"/>
						</g>
						<g>
							<polygon fill="#3A813B" points="1066.6,387.5 903.7,482.2 888.4,473.3 1051.3,378.7 							"/>
						</g>
						<g>
							<polygon fill="#3A813B" points="1097.2,405.2 934.4,499.8 919,491 1081.9,396.3 							"/>
						</g>
						<g>
							<polygon fill="#3A813B" points="1127.9,422.9 965,517.5 949.7,508.7 1112.6,414 							"/>
						</g>
						<g>
							<polygon fill="#3A813B" points="1158.5,440.6 995.6,535.2 980.3,526.4 1143.2,431.7 							"/>
						</g>
						<g>
							<polygon fill="#3A813B" points="1189.2,458.2 1026.3,552.9 1010.9,544.1 1173.8,449.4 							"/>
						</g>
						<g>
							<polygon fill="#3A813B" points="1219.8,475.9 1056.9,570.6 1041.6,561.8 1204.5,467.1 							"/>
						</g>
						<g>
							<polygon fill="#3A813B" points="1250.4,493.6 1087.5,588.3 1072.2,579.4 1235.1,484.8 							"/>
						</g>
						<g>
							<polygon fill="#4D973E" points="1265.7,502.5 1102.9,597.1 857.8,455.6 1020.7,361 857.8,455.6 873.1,464.5 1036,369.8 
								1051.3,378.7 888.4,473.3 903.7,482.2 1066.6,387.5 1081.9,396.3 919,491 934.4,499.8 1097.2,405.2 1112.6,414 949.7,508.7 
								965,517.5 1127.9,422.9 1143.2,431.7 980.3,526.4 995.6,535.2 1158.5,440.6 1173.8,449.4 1010.9,544.1 1026.3,552.9 
								1189.2,458.2 1204.5,467.1 1041.6,561.8 1056.9,570.6 1219.8,475.9 1235.1,484.8 1072.2,579.4 1087.5,588.3 1250.4,493.6 
															"/>
						</g>
					</g>
				</g>
				<g>
					<path fill="#DCDCDC" d="M1020.7,380.4c3.1,1.4,7.5,1.4,10.7,0l8.3,4.8l15.3,8.9l15.3,8.9l15.3,8.9l15.3,8.9l15.3,8.9l14.5,8.4
						l-50.1,29.1c-6.1-3.2-13.9-4.6-21.6-4.3c-6.4,0.3-12.6,1.9-17.5,4.7c-4.9,2.8-7.6,6.4-8.1,10.1c-0.6,4.4,1.8,9,7.4,12.5
						c0.3,0.2,0.5,0.3,0.8,0.5c0.3,0.2,0.6,0.3,0.8,0.5c6.1,3.2,13.9,4.6,21.6,4.3c6.4-0.3,12.6-1.9,17.5-4.7
						c4.9-2.8,7.6-6.4,8.1-10.1c0.6-4.4-1.8-9-7.4-12.5l0,0l50.1-29.1l14.5,8.4l15.3,8.9l15.3,8.9l15.3,8.9l15.3,8.9l15.3,8.9
						l8.3,4.8c0.2-0.2,0.5-0.3,0.8-0.5l0.8-0.5l-8.3-4.8l-15.3-8.9l-15.3-8.9l-15.3-8.9l-15.3-8.9l-15.3-8.9l-15.3-8.9l-15.3-8.9
						l-15.3-8.9l-15.3-8.9L1072,402l-15.3-8.9l-15.3-8.9l-8.3-4.8v0l-7.1-4.1l-7,4.1l0.8,0.5
						C1020.1,380.1,1020.4,380.3,1020.7,380.4z M1087.1,482.1c-1,2.8-3.3,5.4-7,7.6c-3.7,2.2-8.3,3.5-13.1,4.1
						c-7.9,0.9-16.4-0.3-22.7-3.6l0,0l36.5-21.2c-0.3-0.2-0.5-0.3-0.8-0.5c-0.3-0.2-0.6-0.3-0.9-0.5l-36.5,21.2
						c-5.8-3.7-7.9-8.6-6.3-13.1c1-2.8,3.3-5.4,7-7.6c3.7-2.2,8.3-3.5,13.1-4.1c7.9-0.9,16.4,0.3,22.7,3.6c0.3,0.2,0.6,0.3,0.9,0.5
						c0.3,0.2,0.5,0.3,0.8,0.5C1086.6,472.6,1088.7,477.5,1087.1,482.1z M1026,377.3l3.7,2.1c-2.2,0.9-5.1,0.9-7.3,0L1026,377.3z"/>
					<path fill="#DCDCDC" d="M975.7,431c0.8,0.4,2,0.5,2.8,0c0.8-0.4,0.8-1.2,0-1.6c-0.8-0.4-2-0.4-2.8,0
						C975,429.9,975,430.6,975.7,431z M976.9,430.1c0.1-0.1,0.4-0.1,0.5,0c0.1,0.1,0.1,0.2,0,0.3c-0.1,0.1-0.4,0.1-0.5,0
						C976.7,430.3,976.7,430.2,976.9,430.1z"/>
					<path fill="#DCDCDC" d="M891.4,455.6l23.6-13.7l-1.7-1l-23.6,13.7l0.8,0.5C890.9,455.2,891.1,455.4,891.4,455.6z"/>
					<path fill="#DCDCDC" d="M915,441.9l13.7,7.9l15.3,8.9l3.8,2.2l25.6-14.9c8.6,0.5,16.9-1.2,22.9-4.7c6.1-3.5,9-8.4,8.1-13.3
						c0-0.1,0-0.2-0.1-0.3l-0.3-1.4v0l0.3,1.4c0,0.1,0,0.2,0.1,0.3l25.6-14.9l-3.8-2.2l-15.3-8.9l-13.7-7.9l0,0l23.6-13.7
						c-0.3-0.1-0.6-0.3-0.9-0.4l-0.8-0.5l-23.6,13.7l0,0l-21.2,12.3l0,0l-8.1,4.7l0,0l-8.8-5.1l-23.6,13.7l8.8,5.1l0,0l-29.2,17
						L915,441.9z M994.7,440.3c-5.1,3-11.9,4.5-19.1,4.4l26.6-15.5C1002.4,433.4,999.8,437.3,994.7,440.3z M967.9,411.1l6.4-3.7
						l9.8,5.6l-36.5,21.2l-9.8-5.6l6.4-3.7l0,0L967.9,411.1z M948.8,416.8l1.7,1l1.3,0.7l0,0l-1.8,1.1l0,0l-1.3-0.7l0,0l1.8-1.1
						L948.8,416.8l-1.8,1.1h0l-1.6-0.9l1.8-1.1L948.8,416.8z M957,415.5L957,415.5l-1.3-0.8l-1.1-0.6l1.1,0.6l1.8-1.1l1.3,0.7l0,0
						L957,415.5l0.8,0.5L957,415.5z M960.5,413.5L960.5,413.5l-1.3-0.8l0,0l1.8-1.1l-1.7-1l-1.8,1.1l0,0l-1.6-0.9l1.8-1.1l1.6,0.9
						l1.7,1l1.3,0.7l0,0l0.8,0.5l0,0l-0.8-0.5L960.5,413.5z M955.8,412.8l-1.8,1.1l-1.6-0.9l1.8-1.1L955.8,412.8z M956.8,407.4
						l0.6-0.3l0.9,0.5l-0.6,0.3l1.7,1l0.6-0.3l1.6,0.9l-0.6,0.3l1.7,1l0.6-0.3l1.3,0.8l-0.6,0.3l0.8,0.5l-0.8-0.5l0,0l-1.3-0.7
						l-1.7-1l-1.6-0.9l-1.7-1L956.8,407.4l-0.8-0.5L956.8,407.4z M954.3,407.8l0.8,0.5l0.9,0.5l-1.8,1.1l0,0l-0.9-0.5l1.8-1.1
						L954.3,407.8z M952.5,408.9L952.5,408.9l-1.7,1l0.8,0.5l0.9,0.5l-1.8,1.1l-0.9-0.5l0,0l1.8-1.1l-0.8-0.5L952.5,408.9z
						 M947.9,411.5l-0.6,0.4l0.8,0.5l0.9,0.5l1.7,1l1.6,0.9l1.7,1l1.3,0.7l0,0l0.8,0.5l0,0l-0.8-0.5l-1.8,1.1l0,0l-1.3-0.7l0,0
						l1.8-1.1l-1.7-1l-1.8,1.1l-1.6-0.9l1.8-1.1l-1.7-1l-1.8,1.1l-0.9-0.5l0,0l1.8-1.1l-0.8-0.5L947.9,411.5z M943.8,413.9l0.8,0.5
						l0.9,0.5l-1.8,1.1l-0.9-0.5l1.8-1.1L943.8,413.9z M936.8,418l1.6-1l0.8,0.5l1.8-1.1l-0.8-0.5l1.6-1h0l-1.6,1l0.8,0.5l0.9,0.5
						l1.7,1l1.6,0.9l1.7,1l1.3,0.7l0,0l-1.8,1.1l0,0l-1.3-0.7l-1.1-0.6l1.1,0.6l1.8-1.1l-1.7-1l-1.8,1.1l-1.6-0.9l1.8-1.1l-1.7-1
						l-1.8,1.1l-0.9-0.5l-0.8-0.5L936.8,418l0.8,0.5l0.9,0.5l-0.6,0.3l-0.9-0.5l0.6-0.3L936.8,418z M940.2,419.9l1.6,0.9l1.7,1
						l1.3,0.7l0,0l0.8,0.5l0,0l-0.8-0.5l-0.6,0.3l-1.3-0.7l0.6-0.3l-1.7-1l-0.6,0.3l-1.6-0.9L940.2,419.9z M936.1,429.6l11.4,6.6
						l39.8-23.1l-11.4-6.6l19.5-11.3l13.7,7.9l15.3,8.9l2.2,1.3l-22.6,13.1v0l-33.6,19.5l0,0l-22.6,13.1l-2.2-1.3l-15.3-8.9
						l-13.7-7.9L936.1,429.6z"/>
					<path fill="#DCDCDC" d="M1240.8,499.4l-7.1-4.1l-0.8,0.5c-0.3,0.2-0.5,0.3-0.8,0.5c-2.4,1.8-2.4,4.4,0,6.2
						c0.2,0.2,0.4,0.3,0.7,0.4c-0.2-0.1-0.5-0.3-0.7-0.4l-23.6,13.7l-13.7-7.9l-15.3-8.9l-3.8-2.2l-25.6,14.9
						c-8.5-0.5-16.9,1.2-22.9,4.7c-6.1,3.5-9,8.4-8.1,13.3l-25.6,14.9l3.8,2.2l15.3,8.9l13.7,7.9l1.7,1l21.1-12.3l8.1-4.7l0,0
						l8.8,5.1l23.6-13.7l-8.8-5.1l8.1-4.7l21.2-12.3l0,0l23.6-13.7l-0.4-0.2l0.4,0.2L1240.8,499.4z M1128.8,517.8
						c5.1-3,11.9-4.5,19.1-4.4l-26.6,15.5C1121.1,524.7,1123.7,520.7,1128.8,517.8z M1158.7,546.1l1.6-1l0,0L1158.7,546.1
						L1158.7,546.1z M1159.6,546.6L1159.6,546.6l1.3,0.8l-0.6,0.3l-1.3-0.8L1159.6,546.6z M1162.5,548.3L1162.5,548.3l1.6,0.9
						l-0.6,0.3l-1.6-0.9L1162.5,548.3z M1166.1,551.1l-0.9-0.5l0.6-0.3l0,0l0.9,0.5L1166.1,551.1z M1171,549.2l-0.8-0.5l-1.8,1.1
						l0.4,0.2l-0.4-0.2l-0.9-0.5l0,0l1.8-1.1l-1.7-1l-1.8,1.1l-1.6-0.9h0l1.8-1.1l-1.7-1l-1.8,1.1l-1.3-0.7l0,0l0,0l1.8-1.1
						l-0.8-0.5l1.6-1l0,0l-1.6,1l0.8,0.5l0,0l1.3,0.7l1.7,1l1.6,0.9l1.7,1l0.9,0.5L1171,549.2l1.6-1l0,0L1171,549.2z M1173.7,546.7
						l-1.8,1.1l-0.9-0.5l0,0l1.8-1.1l-1.7-1l-1.8,1.1l0,0l-1.6-0.9h0l1.8-1.1l-1.7-1l-1.8,1.1l0,0l-1.3-0.7l0,0l0,0l1.8-1.1
						l-0.8-0.5l1.7-1h0l-1.7,1l0.8,0.5l0,0l1.3,0.7l1.7,1l1.6,0.9l1.7,1L1173.7,546.7l0.8,0.5l0,0L1173.7,546.7z M1177.2,544.6
						l-1.8,1.1l-0.9-0.5h0l1.8-1.1l-1.7-1l-1.8,1.1l-1.6-0.9l1.8-1.1l-1.7-1l-1.8,1.1l-1.3-0.7l0,0l1.8-1.1l-0.8-0.5l1.7-1l0.4,0.2
						l-0.4-0.2l-1.7,1l0.8,0.5l0,0l1.3,0.7l1.7,1l1.6,0.9l1.7,1L1177.2,544.6l0.8,0.5L1177.2,544.6z M1180.7,542.6l-1.8,1.1
						l-0.9-0.5h0l1.8-1.1l-1.7-1l-1.8,1.1l-1.6-0.9l0,0l1.8-1.1l-1.7-1l-1.8,1.1l-1.3-0.7l0,0h0l1.8-1.1l-0.8-0.5l1.7-1l-1.7,1
						l0.8,0.5l0,0l1.3,0.7l1.7,1l1.6,0.9l1.7,1L1180.7,542.6l0.8,0.5l0,0L1180.7,542.6z M1176.2,535.9l1.6-1l0.8,0.5l0.6-0.3
						l1.3,0.7l-0.6,0.3l-1.3-0.7l0,0l-0.8-0.5L1176.2,535.9l0.8,0.5l0,0l1.3,0.7l1.7,1l1.6,0.9l-1.8,1.1l-1.6-0.9l1.8-1.1l-1.7-1
						l-1.8,1.1l-1.3-0.7l0,0l1.8-1.1L1176.2,535.9z M1184.2,540.6l-1.8,1.1l-0.9-0.5l0,0l1.8-1.1L1184.2,540.6l0.8,0.5l0,0
						L1184.2,540.6z M1185.8,539.6l-0.9-0.5l0,0l0.6-0.3l0.9,0.5L1185.8,539.6z M1183.3,538.1l-1.6-0.9h0l0.6-0.3l1.6,0.9
						L1183.3,538.1z M1179.3,533.2l-23.6,13.7l-6.4,3.7l-9.8-5.6l36.5-21.2l9.8,5.6L1179.3,533.2z M1187.4,528.5l-11.4-6.6
						l-39.8,23.1l11.4,6.6l-19.5,11.3l-13.7-7.9l-15.3-8.9l-2.2-1.3l22.6-13.1l33.6-19.5l22.6-13.1l2.2,1.3l15.3,8.9l13.7,7.9
						L1187.4,528.5z M1233.8,497.3l3.7,2.1l-3.6,2.1C1232.3,500.2,1232.3,498.6,1233.8,497.3z"/>
					<path fill="#DCDCDC" d="M1147.7,527.1c-0.8-0.4-2-0.4-2.8,0c-0.8,0.4-0.8,1.2,0,1.6c0.8,0.4,2,0.5,2.8,0
						C1148.5,528.3,1148.5,527.5,1147.7,527.1z M1146.5,528c-0.1,0.1-0.4,0.1-0.5,0c-0.1-0.1-0.1-0.2,0-0.3c0.1-0.1,0.4-0.1,0.5,0
						C1146.7,527.8,1146.7,528,1146.5,528z"/>
					<path fill="#DCDCDC" d="M1102.8,577.7c0.3,0.1,0.6,0.3,0.9,0.4l0.8,0.5l23.6-13.7l-1.7-1L1102.8,577.7z"/>
					<path fill="#DCDCDC" d="M1102.8,577.7c-3.1-1.4-7.5-1.4-10.6,0c-0.3,0.1-0.6,0.3-0.9,0.4l0,0c0.3-0.2,0.6-0.3,0.9-0.4l-8.3-4.8
						l-15.3-8.9l-15.3-8.9l-15.3-8.9l-15.3-8.9l-15.3-8.9l-14.5-8.4l50.1-29.1c-0.3-0.2-0.6-0.3-0.8-0.5c-0.3-0.2-0.6-0.3-0.8-0.5
						l-50.1,29.1l-14.5-8.4l-15.3-8.9l-15.3-8.9l-15.3-8.9l-15.3-8.9l-15.3-8.9l-8.3-4.8c0,0,0,0-0.1,0c0,0,0,0,0.1,0
						c2.4-1.8,2.4-4.4,0-6.2c-0.2-0.2-0.5-0.3-0.8-0.5l-0.8-0.5l-7,4.1l7.1,4.1l0,0l8.3,4.8l15.3,8.9l15.3,8.9l15.3,8.9l15.3,8.9
						l15.3,8.9l15.3,8.9l15.3,8.9l15.3,8.9l15.3,8.9l15.3,8.9l15.3,8.9l15.3,8.9l8.3,4.8l0,0l7.1,4.1l7-4.1l-0.8-0.5
						C1103.4,577.9,1103.1,577.8,1102.8,577.7z M886.1,458.7l3.6-2.1c1.5,1.3,1.5,3,0,4.2L886.1,458.7z M1097.5,580.7l-3.7-2.1
						c2.2-0.9,5.1-0.9,7.3,0L1097.5,580.7z"/>
				</g>
			</g>
			<polygon fill="#FBB040" points="1102.9,597.1 1102.9,613.1 1265.7,517.5 1265.7,502.5 			"/>
			<polygon fill="#E99D39" points="857.8,455.6 857.8,471.2 1102.9,613.1 1102.9,597.1 			"/>
		</g>
		<g>
			<g>
				<g>
					<g enable-background="new    ">
						<g>
							<polygon fill="#3A813B" points="364,359.2 526.9,453.9 542.2,445.1 379.3,350.4 							"/>
						</g>
						<g>
							<polygon fill="#3A813B" points="333.4,376.9 496.3,471.6 511.6,462.7 348.7,368.1 							"/>
						</g>
						<g>
							<polygon fill="#3A813B" points="302.8,394.6 465.6,489.3 481,480.4 318.1,385.8 							"/>
						</g>
						<g>
							<polygon fill="#3A813B" points="272.1,412.3 435,507 450.3,498.1 287.4,403.5 							"/>
						</g>
						<g>
							<polygon fill="#3A813B" points="241.5,430 404.4,524.7 419.7,515.8 256.8,421.1 							"/>
						</g>
						<g>
							<polygon fill="#3A813B" points="210.8,447.7 373.7,542.3 389.1,533.5 226.2,438.8 							"/>
						</g>
						<g>
							<polygon fill="#3A813B" points="180.2,465.4 343.1,560 358.4,551.2 195.5,456.5 							"/>
						</g>
						<g>
							<polygon fill="#3A813B" points="149.6,483.1 312.5,577.7 327.8,568.9 164.9,474.2 							"/>
						</g>
						<g>
							<polygon fill="#4D973E" points="134.3,491.9 297.1,586.6 542.2,445.1 379.3,350.4 542.2,445.1 526.9,453.9 364,359.2 
								348.7,368.1 511.6,462.7 496.3,471.6 333.4,376.9 318.1,385.8 481,480.4 465.6,489.3 302.8,394.6 287.4,403.5 450.3,498.1 
								435,507 272.1,412.3 256.8,421.1 419.7,515.8 404.4,524.7 241.5,430 226.2,438.8 389.1,533.5 373.7,542.3 210.8,447.7 
								195.5,456.5 358.4,551.2 343.1,560 180.2,465.4 164.9,474.2 327.8,568.9 312.5,577.7 149.6,483.1 							"/>
						</g>
					</g>
				</g>
				<g>
					<path fill="#DCDCDC" d="M380.2,369.4l0.8-0.5l-7-4.1l-7.1,4.1v0l-8.3,4.8l-15.3,8.9l-15.3,8.9l-15.3,8.9l-15.3,8.9L282,418
						l-15.3,8.9l-15.3,8.9l-15.3,8.9l-15.3,8.9l-15.3,8.9l-15.3,8.9l-15.3,8.9l-8.3,4.8l0.8,0.5c0.3,0.2,0.5,0.3,0.8,0.5l8.3-4.8
						l15.3-8.9l15.3-8.9l15.3-8.9l15.3-8.9l15.3-8.9l14.5-8.4l50.1,29.1l0,0c-5.6,3.5-8.1,8.1-7.4,12.5c0.5,3.7,3.2,7.3,8.1,10.1
						c4.9,2.8,11.1,4.4,17.5,4.7c7.7,0.4,15.6-1,21.6-4.3c0.3-0.2,0.6-0.3,0.8-0.5c0.3-0.2,0.6-0.3,0.8-0.5
						c5.6-3.5,8.1-8.1,7.4-12.5c-0.5-3.7-3.2-7.3-8.1-10.1c-4.9-2.8-11.1-4.4-17.5-4.7c-7.7-0.4-15.6,1-21.6,4.3l-50.1-29.1
						l14.5-8.4l15.3-8.9l15.3-8.9l15.3-8.9l15.3-8.9l15.3-8.9l8.3-4.8c3.1,1.4,7.5,1.4,10.7,0C379.6,369.7,379.9,369.6,380.2,369.4z
						 M319.2,458.3c0.3-0.2,0.5-0.3,0.8-0.5c0.3-0.2,0.6-0.3,0.9-0.5c6.3-3.3,14.8-4.5,22.7-3.6c4.8,0.6,9.4,1.9,13.1,4.1
						c3.7,2.2,6,4.8,7,7.6c1.6,4.6-0.5,9.5-6.3,13.1l-36.5-21.2c-0.3,0.2-0.6,0.3-0.9,0.5C319.7,458,319.4,458.2,319.2,458.3
						l36.5,21.2l0,0c-6.3,3.3-14.8,4.5-22.7,3.6c-4.8-0.6-9.4-1.9-13.1-4.1c-3.7-2.2-6-4.8-7-7.6C311.3,466.9,313.4,462,319.2,458.3
						z M377.6,368.9c-2.2,0.9-5.1,0.9-7.3,0l3.7-2.1L377.6,368.9z"/>
					<path fill="#DCDCDC" d="M424.3,418.8c-0.8-0.4-2-0.4-2.8,0c-0.8,0.4-0.8,1.2,0,1.6c0.8,0.4,2,0.4,2.8,0
						C425,420,425,419.3,424.3,418.8z M423.1,419.8c-0.1,0.1-0.4,0.1-0.5,0c-0.1-0.1-0.1-0.2,0-0.3c0.1-0.1,0.4-0.1,0.5,0
						C423.3,419.6,423.3,419.7,423.1,419.8z"/>
					<path fill="#DCDCDC" d="M508.6,445L485,431.3l1.7-1l23.6,13.7l-0.8,0.5C509.1,444.7,508.9,444.8,508.6,445z"/>
					<path fill="#DCDCDC" d="M486.7,430.3l-29.2-17l0,0l8.8-5.1l-23.6-13.7l-8.8,5.1l0,0l-8.1-4.7l0,0l-21.2-12.3l0,0L381,368.9
						l-0.8,0.5c-0.3,0.2-0.6,0.3-0.9,0.4l23.6,13.7l0,0l-13.7,7.9l-15.3,8.9l-3.8,2.2l25.6,14.9c0-0.1,0-0.2,0.1-0.3l0.3-1.4v0
						l-0.3,1.4c0,0.1,0,0.2-0.1,0.3c-0.9,5,2,9.8,8.1,13.3c6.1,3.5,14.4,5.2,22.9,4.7l25.6,14.9l3.8-2.2l15.3-8.9l13.7-7.9
						L486.7,430.3z M397.8,418.7l26.6,15.5c-7.2,0.1-14-1.4-19.1-4.4C400.2,426.8,397.6,422.8,397.8,418.7z M455.8,414.3
						L455.8,414.3l6.4,3.7l-9.8,5.6l-36.5-21.2l9.8-5.6l6.4,3.7L455.8,414.3z M452.8,405.3l1.8,1.1l-1.6,0.9h0l-1.8-1.1l-1.7,1
						l1.8,1.1l0,0l-1.3,0.7l0,0l-1.8-1.1l0,0l1.3-0.7l1.7-1L452.8,405.3z M442.2,405.5l0.8-0.5l-1.8-1.1l0,0l1.3-0.7l1.8,1.1
						l1.1-0.6l-1.1,0.6l-1.3,0.7l0,0L442.2,405.5z M437.7,401.9l-0.8,0.5l0,0L437.7,401.9L437.7,401.9l1.3-0.8l1.7-1l1.6-0.9
						l1.8,1.1l-1.6,0.9l0,0l-1.8-1.1l-1.7,1l1.8,1.1l0,0l-1.3,0.7l0,0L437.7,401.9z M445.8,401.2l1.8,1.1l-1.6,0.9l-1.8-1.1
						L445.8,401.2z M444,396.3l-0.8,0.5l-0.9,0.5l-1.7,1l-1.6,0.9l-1.7,1l-1.3,0.7l0,0l-0.8,0.5l0.8-0.5l-0.6-0.3l1.3-0.8l0.6,0.3
						l1.7-1l-0.6-0.3l1.6-0.9l0.6,0.3l1.7-1l-0.6-0.3l0.9-0.5l0.6,0.3L444,396.3z M444.8,397.7l1.8,1.1l-0.9,0.5l0,0l-1.8-1.1
						L444.8,397.7l0.8-0.5L444.8,397.7z M449.2,399.3l-0.8,0.5l1.8,1.1l0,0l-0.9,0.5l-1.8-1.1l0.9-0.5L449.2,399.3l-1.7-1l0,0
						L449.2,399.3z M452.7,401.3l-0.8,0.5l1.8,1.1l0,0l-0.9,0.5l-1.8-1.1l-1.7,1l1.8,1.1l-1.6,0.9l-1.8-1.1l-1.7,1l1.8,1.1l0,0
						l-1.3,0.7l0,0l-1.8-1.1l-0.8,0.5l0,0l0.8-0.5l0,0l1.3-0.7l1.7-1l1.6-0.9l1.7-1l0.9-0.5L452.7,401.3l-0.6-0.4L452.7,401.3z
						 M455.3,403.8l1.8,1.1l-0.9,0.5l-1.8-1.1L455.3,403.8l0.8-0.5L455.3,403.8z M462.3,407.9l0.6,0.3l-0.9,0.5l-0.6-0.3
						L462.3,407.9l0.8-0.5l-1.6-1l-0.8,0.5l-0.9,0.5l-1.8-1.1l-1.7,1l1.8,1.1l-1.6,0.9l-1.8-1.1l-1.7,1l1.8,1.1l1.1-0.6l-1.1,0.6
						l-1.3,0.7l0,0l-1.8-1.1l0,0l1.3-0.7l1.7-1l1.6-0.9l1.7-1l0.9-0.5l0.8-0.5l-1.6-1h0l1.6,1l-0.8,0.5l1.8,1.1l0.8-0.5l1.6,1
						L462.3,407.9z M460.4,409.7l-1.6,0.9l-0.6-0.3l-1.7,1l0.6,0.3l-1.3,0.7l-0.6-0.3l-0.8,0.5l0,0l0.8-0.5l0,0l1.3-0.7l1.7-1
						l1.6-0.9L460.4,409.7z M483.4,430.3l-13.7,7.9l-15.3,8.9l-2.2,1.3l-22.6-13.1l0,0L396,415.7v0l-22.6-13.1l2.2-1.3l15.3-8.9
						l13.7-7.9l19.5,11.3l-11.4,6.6l39.8,23.1l11.4-6.6L483.4,430.3z"/>
					<path fill="#DCDCDC" d="M166.2,492.9l0.4-0.2L166.2,492.9l23.6,13.7v0l21.2,12.3l8.1,4.7l-8.8,5.1l23.6,13.7l8.8-5.1l0,0
						l8.1,4.7l21.1,12.3l1.7-1l13.7-7.9l15.3-8.9l3.8-2.2l-25.6-14.9c0.9-4.9-2-9.8-8.1-13.3c-6.1-3.5-14.4-5.2-22.9-4.7l-25.6-14.9
						l-3.8,2.2l-15.3,8.9l-13.7,7.9l-23.6-13.7c-0.2,0.2-0.4,0.3-0.7,0.4c0.2-0.1,0.5-0.3,0.7-0.4c2.4-1.8,2.4-4.4,0-6.2
						c-0.2-0.2-0.5-0.3-0.8-0.5l-0.8-0.5l-7.1,4.1L166.2,492.9z M278.7,518.3l-26.6-15.5c7.1-0.1,14,1.4,19.1,4.4
						C276.3,510.2,278.9,514.1,278.7,518.3z M241.3,535.5l-1.6-1l0,0L241.3,535.5L241.3,535.5z M241,536.4l-1.3,0.8l-0.6-0.3
						l1.3-0.7l0,0L241,536.4z M238.1,538.1l-1.6,0.9l-0.6-0.3l1.6-0.9l0,0L238.1,538.1z M233.3,540.1l0.9-0.5v0l0.6,0.3l-0.9,0.5
						L233.3,540.1z M227.3,537.6L227.3,537.6l1.6,1l0.8-0.5l0.9-0.5l1.7-1l1.6-0.9l1.7-1l1.3-0.7l0,0l0.8-0.5l-1.6-1l0,0l1.6,1
						l-0.8,0.5l1.8,1.1l0,0l0,0l-1.3,0.7l-1.8-1.1l-1.7,1l1.8,1.1h0l-1.6,0.9l-1.8-1.1l-1.7,1l1.8,1.1l0,0l-0.9,0.5l-0.4,0.2
						l0.4-0.2l-1.8-1.1l-0.8,0.5L227.3,537.6z M225.5,536.6L225.5,536.6l0.8-0.5l0.9-0.5l1.7-1l1.6-0.9l1.7-1l1.3-0.7l0,0l0.8-0.5
						l-1.7-1h0l1.7,1l-0.8,0.5l1.8,1.1l0,0l0,0l-1.3,0.7l0,0l-1.8-1.1l-1.7,1l1.8,1.1h0l-1.6,0.9l0,0l-1.8-1.1l-1.7,1l1.8,1.1v0
						l-0.9,0.5l-1.8-1.1L225.5,536.6z M222,534.5l0.8-0.5l0.9-0.5l1.7-1l1.6-0.9l1.7-1l1.3-0.7l0,0l0.8-0.5l-1.7-1l-0.4,0.2l0.4-0.2
						l1.7,1l-0.8,0.5l1.8,1.1l0,0l-1.3,0.7l-1.8-1.1l-1.7,1l1.8,1.1l-1.6,0.9l-1.8-1.1l-1.7,1l1.8,1.1h0l-0.9,0.5l-1.8-1.1
						L222,534.5z M218.5,532.5L218.5,532.5l0.8-0.5l0.9-0.5l1.7-1l1.6-0.9l1.7-1l1.3-0.7l0,0l0.8-0.5l-1.7-1l1.7,1l-0.8,0.5l1.8,1.1
						h0l0,0l-1.3,0.7l-1.8-1.1l-1.7,1l1.8,1.1l0,0l-1.6,0.9l-1.8-1.1l-1.7,1l1.8,1.1h0l-0.9,0.5l-1.8-1.1L218.5,532.5z M222.9,525.9
						l1.8,1.1l0,0l-1.3,0.7l-1.8-1.1l-1.7,1l1.8,1.1l-1.6,0.9l-1.8-1.1l1.6-0.9l1.7-1L222.9,525.9L222.9,525.9l0.8-0.5l-1.6-1
						l-0.8,0.5l0,0l-1.3,0.7l-0.6-0.3l1.3-0.7l0.6,0.3l0.8-0.5l1.6,1L222.9,525.9z M215,530.5L215,530.5l0.8-0.5l0.9-0.5l1.8,1.1
						l0,0l-0.9,0.5l-1.8-1.1L215,530.5z M213.6,528.7l0.9-0.5l0.6,0.3l0,0l-0.9,0.5L213.6,528.7z M216.1,527.2l1.6-0.9l0.6,0.3h0
						l-1.6,0.9L216.1,527.2z M214.3,518.9l9.8-5.6l36.5,21.2l-9.8,5.6l-6.4-3.7l-23.6-13.7L214.3,518.9z M193.1,506.6l13.7-7.9
						l15.3-8.9l2.2-1.3l22.6,13.1l33.6,19.5l22.6,13.1l-2.2,1.3l-15.3,8.9l-13.7,7.9l-19.5-11.3l11.4-6.6l-39.8-23.1l-11.4,6.6
						L193.1,506.6z M166.2,490.9l-3.6-2.1l3.7-2.1C167.7,488,167.7,489.7,166.2,490.9z"/>
					<path fill="#DCDCDC" d="M252.3,518.1c0.8,0.4,2,0.4,2.8,0s0.8-1.2,0-1.6s-2-0.4-2.8,0C251.5,517,251.5,517.7,252.3,518.1z
						 M253.5,517.2c0.1-0.1,0.4-0.1,0.5,0c0.1,0.1,0.1,0.2,0,0.3c-0.1,0.1-0.4,0.1-0.5,0C253.3,517.4,253.3,517.3,253.5,517.2z"/>
					<path fill="#DCDCDC" d="M297.2,567.1c-0.3,0.1-0.6,0.3-0.9,0.4l-0.8,0.5l-23.6-13.7l1.7-1L297.2,567.1z"/>
					<path fill="#DCDCDC" d="M296.3,567.5l-0.8,0.5l7,4.1l7.1-4.1l0,0l8.3-4.8l15.3-8.9l15.3-8.9l15.3-8.9l15.3-8.9l15.3-8.9
						l15.3-8.9l15.3-8.9l15.3-8.9l15.3-8.9l15.3-8.9l15.3-8.9l15.3-8.9l8.3-4.8l0,0l7.1-4.1l-7-4.1l-0.8,0.5
						c-0.3,0.2-0.5,0.3-0.8,0.5c-2.4,1.8-2.4,4.4,0,6.2c0,0,0,0,0.1,0c0,0,0,0-0.1,0l-8.3,4.8l-15.3,8.9l-15.3,8.9l-15.3,8.9
						l-15.3,8.9l-15.3,8.9l-14.5,8.4L359,479.5c-0.3,0.2-0.5,0.3-0.8,0.5c-0.3,0.2-0.6,0.3-0.8,0.5l50.1,29.1l-14.5,8.4l-15.3,8.9
						l-15.3,8.9l-15.3,8.9l-15.3,8.9l-15.3,8.9l-8.3,4.8c0.3,0.1,0.6,0.3,0.9,0.4l0,0c-0.3-0.2-0.6-0.3-0.9-0.4
						c-3.1-1.4-7.5-1.4-10.6,0C296.9,567.2,296.6,567.4,296.3,567.5z M510.3,450.2c-1.5-1.3-1.5-3,0-4.2l3.6,2.1L510.3,450.2z
						 M298.9,568.1c2.2-0.9,5.1-0.9,7.3,0l-3.7,2.1L298.9,568.1z"/>
				</g>
			</g>
			<polygon fill="#FBB040" points="297.1,586.6 297.1,602.5 134.3,507 134.3,491.9 			"/>
			<polygon fill="#E99D39" points="542.2,445.1 542.2,460.6 297.1,602.5 297.1,586.6 			"/>
		</g>
		<g>
			<path fill="#E99D39" d="M477,650.4H248.8c-63.3,0-114.6,58.6-114.6,130.8v0c0,72.2,51.3,130.8,114.6,130.8H477
				c63.3,0,114.6-58.6,114.6-130.8v0C591.6,708.9,540.3,650.4,477,650.4z"/>
			<g>
				<path fill="#FFFFFF" d="M477,904.3H248.8C189.9,904.3,142,849,142,781.2c0-67.9,47.9-123.1,106.9-123.1H477
					c58.9,0,106.9,55.2,106.9,123.1S535.9,904.3,477,904.3z M248.8,659.8c-58,0-105.1,54.4-105.1,121.3
					c0,66.9,47.2,121.3,105.1,121.3H477c58,0,105.1-54.4,105.1-121.3S534.9,659.8,477,659.8H248.8z"/>
			</g>
			<g>
				<path fill="#FFFFFF" d="M477,895.6H248.8c-54.2,0-98.2-51.3-98.2-114.5c0-63.1,44.1-114.5,98.2-114.5H477
					c54.2,0,98.2,51.3,98.2,114.5S531.2,895.6,477,895.6z M248.8,668.4c-53.2,0-96.5,50.6-96.5,112.7c0,62.2,43.3,112.7,96.5,112.7
					H477c53.2,0,96.5-50.6,96.5-112.7S530.2,668.4,477,668.4H248.8z"/>
			</g>
			<g>
				<path fill="#FFFFFF" d="M477,887H248.8c-49.4,0-89.6-47.5-89.6-105.9c0-58.4,40.2-105.9,89.6-105.9H477
					c49.4,0,89.6,47.5,89.6,105.9S526.4,887,477,887z M248.8,677.1c-48.5,0-87.9,46.7-87.9,104.1c0,57.4,39.4,104.1,87.9,104.1H477
					c48.5,0,87.9-46.7,87.9-104.1c0-57.4-39.4-104.1-87.9-104.1H248.8z"/>
			</g>
			<g>
				<path fill="#FFFFFF" d="M477,878.4H248.8c-44.7,0-81-43.6-81-97.2c0-53.6,36.4-97.2,81-97.2H477c44.7,0,81,43.6,81,97.2
					C558,834.8,521.7,878.4,477,878.4z M248.8,685.7c-43.7,0-79.3,42.9-79.3,95.5c0,52.7,35.6,95.5,79.3,95.5H477
					c43.7,0,79.3-42.9,79.3-95.5s-35.6-95.5-79.3-95.5H248.8z"/>
			</g>
			<path fill="#8DC63F" d="M252.9,871.8c-42.2,0-76.6-40.7-76.6-90.6c0-50,34.3-90.6,76.6-90.6h219.9c42.2,0,76.6,40.7,76.6,90.6
				c0,50-34.3,90.6-76.6,90.6H252.9z"/>
			<g>
				<g>
					<rect x="235.8" y="696.1" fill="#58AA46" width="254.3" height="170.1"/>
					<rect x="362.9" y="696.1" fill="#438F42" width="15.9" height="170.1"/>
					<rect x="394.7" y="696.1" fill="#438F42" width="15.9" height="170.1"/>
					<rect x="426.5" y="696.1" fill="#438F42" width="15.9" height="170.1"/>
					<rect x="458.3" y="696.1" fill="#438F42" width="15.9" height="170.1"/>
					<rect x="331.1" y="696.1" fill="#438F42" width="15.9" height="170.1"/>
					<rect x="299.3" y="696.1" fill="#438F42" width="15.9" height="170.1"/>
					<rect x="267.6" y="696.1" fill="#438F42" width="15.9" height="170.1"/>
					<rect x="235.8" y="696.1" fill="#438F42" width="15.9" height="170.1"/>
				</g>
				<g>
					<g>
						<path fill="#FFFFFF" d="M474.1,855.9H251.7V706.5h222.4V855.9z M253.4,854.1h219V708.2h-219V854.1z"/>
					</g>
					<g>
						<rect x="362.1" y="707.4" fill="#FFFFFF" width="1.7" height="147.6"/>
					</g>
					<g>
						<path fill="#FFFFFF" d="M362.9,801.9c-11.4,0-20.7-9.3-20.7-20.7c0-11.4,9.3-20.7,20.7-20.7s20.7,9.3,20.7,20.7
							C383.7,792.6,374.4,801.9,362.9,801.9z M362.9,762.2c-10.5,0-19,8.5-19,19c0,10.5,8.5,19,19,19c10.5,0,19-8.5,19-19
							C381.9,770.7,373.4,762.2,362.9,762.2z"/>
					</g>
					<g>
						<path fill="#FFFFFF" d="M287.4,824h-35.7v-85.6h35.7V824z M253.4,822.3h32.3v-82.2h-32.3V822.3z"/>
					</g>
					<g>
						<path fill="#FFFFFF" d="M265.3,801.9h-13.6v-41.5h13.6V801.9z M253.4,800.2h10.1v-38.1h-10.1V800.2z"/>
					</g>
					<g>
						<path fill="#FFFFFF" d="M285.7,798.7v-35l1.4,1.1c5.1,4,8,10,8,16.4s-2.9,12.4-8,16.4L285.7,798.7z M287.4,767.3v27.7
							c3.8-3.6,6-8.6,6-13.9S291.3,770.9,287.4,767.3z"/>
					</g>
					<g>
						<path fill="#FFFFFF" d="M253.4,793.5h-10.8v-24.6h10.8V793.5z M244.3,791.8h7.4v-21.2h-7.4V791.8z"/>
					</g>
					<g>
						<rect x="245.2" y="769.7" fill="#FFFFFF" width="1.7" height="22.9"/>
					</g>
					<g>
						<rect x="248.6" y="769.7" fill="#FFFFFF" width="1.7" height="22.9"/>
					</g>
					<g>
						<g>
							<rect x="243.4" y="771.2" fill="#FFFFFF" width="9.1" height="1.7"/>
						</g>
						<g>
							<rect x="243.4" y="774.9" fill="#FFFFFF" width="9.1" height="1.7"/>
						</g>
						<g>
							<rect x="243.4" y="778.5" fill="#FFFFFF" width="9.1" height="1.7"/>
						</g>
						<g>
							<rect x="243.4" y="782.1" fill="#FFFFFF" width="9.1" height="1.7"/>
						</g>
						<g>
							<rect x="243.4" y="785.8" fill="#FFFFFF" width="9.1" height="1.7"/>
						</g>
						<g>
							<rect x="243.4" y="789.4" fill="#FFFFFF" width="9.1" height="1.7"/>
						</g>
					</g>
					<g>
						<path fill="#FFFFFF" d="M252.6,713.8h-0.9v-7.3h7.3v0.9C259,710.9,256.1,713.8,252.6,713.8z M253.4,708.2v3.8
							c1.9-0.4,3.4-1.9,3.8-3.8H253.4z"/>
					</g>
					<g>
						<path fill="#FFFFFF" d="M259,855.9h-7.3v-7.3h0.9c3.6,0,6.5,2.9,6.5,6.5V855.9z M253.4,854.1h3.8c-0.4-1.9-1.9-3.4-3.8-3.8
							V854.1z"/>
					</g>
					<g>
						<path fill="#FFFFFF" d="M275.3,782.7c-0.8,0-1.5-0.7-1.5-1.5s0.7-1.5,1.5-1.5c0.8,0,1.5,0.7,1.5,1.5S276.1,782.7,275.3,782.7z
							 M275.3,781c-0.1,0-0.3,0.1-0.3,0.3c0,0.1,0.1,0.3,0.3,0.3c0.1,0,0.3-0.1,0.3-0.3C275.6,781.1,275.5,781,275.3,781z"/>
					</g>
					<g>
						<path fill="#FFFFFF" d="M474.1,824h-35.7v-85.6h35.7V824z M440.1,822.3h32.3v-82.2h-32.3V822.3z"/>
					</g>
					<g>
						<path fill="#FFFFFF" d="M474.1,801.9h-13.6v-41.5h13.6V801.9z M462.3,800.2h10.1v-38.1h-10.1V800.2z"/>
					</g>
					<g>
						<path fill="#FFFFFF" d="M440.1,798.7l-1.4-1.1c-5.1-4-8-10-8-16.4s2.9-12.4,8-16.4l1.4-1.1V798.7z M438.4,767.3
							c-3.8,3.6-6,8.6-6,13.9c0,5.3,2.2,10.3,6,13.9V767.3z"/>
					</g>
					<g>
						<path fill="#FFFFFF" d="M483.2,793.5h-10.8v-24.6h10.8V793.5z M474.1,791.8h7.4v-21.2h-7.4V791.8z"/>
					</g>
					<g>
						<rect x="478.9" y="769.7" fill="#FFFFFF" width="1.7" height="22.9"/>
					</g>
					<g>
						<rect x="475.5" y="769.7" fill="#FFFFFF" width="1.7" height="22.9"/>
					</g>
					<g>
						<g>
							<rect x="473.3" y="771.2" fill="#FFFFFF" width="9.1" height="1.7"/>
						</g>
						<g>
							<rect x="473.3" y="774.9" fill="#FFFFFF" width="9.1" height="1.7"/>
						</g>
						<g>
							<rect x="473.3" y="778.5" fill="#FFFFFF" width="9.1" height="1.7"/>
						</g>
						<g>
							<rect x="473.3" y="782.1" fill="#FFFFFF" width="9.1" height="1.7"/>
						</g>
						<g>
							<rect x="473.3" y="785.8" fill="#FFFFFF" width="9.1" height="1.7"/>
						</g>
						<g>
							<rect x="473.3" y="789.4" fill="#FFFFFF" width="9.1" height="1.7"/>
						</g>
					</g>
					<g>
						<path fill="#FFFFFF" d="M474.1,713.8h-0.9c-3.6,0-6.5-2.9-6.5-6.5v-0.9h7.3V713.8z M468.6,708.2c0.4,1.9,1.9,3.4,3.8,3.8v-3.8
							H468.6z"/>
					</g>
					<g>
						<path fill="#FFFFFF" d="M474.1,855.9h-7.3V855c0-3.6,2.9-6.5,6.5-6.5h0.9V855.9z M468.6,854.1h3.8v-3.8
							C470.5,850.7,469,852.2,468.6,854.1z"/>
					</g>
					<g>
						<path fill="#FFFFFF" d="M450.5,782.7c-0.8,0-1.5-0.7-1.5-1.5s0.7-1.5,1.5-1.5c0.8,0,1.5,0.7,1.5,1.5S451.3,782.7,450.5,782.7z
							 M450.5,781c-0.1,0-0.3,0.1-0.3,0.3c0,0.1,0.1,0.3,0.3,0.3c0.1,0,0.3-0.1,0.3-0.3C450.8,781.1,450.7,781,450.5,781z"/>
					</g>
				</g>
			</g>
		</g>
		<g>
			<g>
				<g>
					<g>
						<polygon fill="#58AA46" points="1265.7,834.7 728.6,834.7 815.2,659 1179.1,659 						"/>
						<polygon fill="#438F42" points="1030.7,834.7 997.2,834.7 997.2,659 1019.9,659 						"/>
						<polygon fill="#438F42" points="1097.9,834.7 1064.3,834.7 1042.7,659 1065.4,659 						"/>
						<polygon fill="#438F42" points="1165,834.7 1131.5,834.7 1088.2,659 1110.9,659 						"/>
						<polygon fill="#438F42" points="1232.2,834.7 1198.6,834.7 1133.6,659 1156.4,659 						"/>
						<polygon fill="#438F42" points="930,834.7 963.6,834.7 974.4,659 951.7,659 						"/>
						<polygon fill="#438F42" points="862.9,834.7 896.4,834.7 928.9,659 906.2,659 						"/>
						<polygon fill="#438F42" points="795.7,834.7 829.3,834.7 883.4,659 860.7,659 						"/>
						<polygon fill="#438F42" points="728.6,834.7 762.2,834.7 837.9,659 815.2,659 						"/>
					</g>
					<g>
						<g>
							<path fill="#FFFFFF" d="M1225.5,819.3H768.8l65.9-153h324.8L1225.5,819.3z M773.4,816.9h447.5l-63.3-149.2H836.8L773.4,816.9
								z"/>
						</g>
						<g>
							<polygon fill="#FFFFFF" points="998.9,818.1 995.4,818.1 995.9,667 998.4,667 							"/>
						</g>
						<g>
							<path fill="#FFFFFF" d="M997.2,751.6c-20.5,0-36.4-10-35.4-21.7c0.9-11.1,16.8-19.7,35.4-19.7s34.5,8.6,35.4,19.7
								C1033.5,741.6,1017.7,751.6,997.2,751.6z M997.2,711.8c-17.2,0-31.7,8-32.5,18.2c-0.8,10.7,13.8,19.8,32.5,19.8
								s33.3-9.1,32.5-19.8C1028.9,719.7,1014.3,711.8,997.2,711.8z"/>
						</g>
						<g>
							<path fill="#FFFFFF" d="M854.6,777.1h-67.5l37.1-86h55.6L854.6,777.1z M791.2,775h60.7l24.7-82.5h-50.4L791.2,775z"/>
						</g>
						<g>
							<path fill="#FFFFFF" d="M822.3,751.6H798l17.8-41.4H838L822.3,751.6z M801.9,749.7h18l14.6-37.9H818L801.9,749.7z"/>
						</g>
						<g>
							<path fill="#FFFFFF" d="M860,748.1l10.4-34.9l2,1c7.4,3.7,10.8,9.4,9.1,15.8c-1.7,6.5-8.5,12.7-18.7,17L860,748.1z
								 M872.3,716.6l-8.1,27.6c7.8-3.8,13-8.9,14.4-14.2C880,724.7,877.7,719.9,872.3,716.6z"/>
						</g>
						<g>
							<path fill="#FFFFFF" d="M805,742.5h-19l11.4-24.5h18L805,742.5z M789.8,740.7h12.9l9.1-21.1h-12.3L789.8,740.7z"/>
						</g>
						<g>
							<polygon fill="#FFFFFF" points="794,741.6 790.9,741.6 801.4,718.8 804.2,718.8 							"/>
						</g>
						<g>
							<polygon fill="#FFFFFF" points="800,741.6 796.9,741.6 807,718.8 809.9,718.8 							"/>
						</g>
						<g>
							<g>
								<polygon fill="#FFFFFF" points="812.3,721.9 797,721.9 797.8,720.2 813,720.2 								"/>
							</g>
							<g>
								<polygon fill="#FFFFFF" points="810.8,725.4 795.4,725.4 796.2,723.7 811.5,723.7 								"/>
							</g>
							<g>
								<polygon fill="#FFFFFF" points="809.3,729 793.7,729 794.5,727.3 810,727.3 								"/>
							</g>
							<g>
								<polygon fill="#FFFFFF" points="807.7,732.6 792,732.6 792.8,730.9 808.4,730.9 								"/>
							</g>
							<g>
								<polygon fill="#FFFFFF" points="806.1,736.3 790.3,736.3 791.1,734.6 806.9,734.6 								"/>
							</g>
							<g>
								<polygon fill="#FFFFFF" points="804.5,740.1 788.6,740.1 789.4,738.3 805.3,738.3 								"/>
							</g>
						</g>
						<g>
							<path fill="#FFFFFF" d="M833.7,671.8h-1.3l2.3-5.4h10.7l-0.3,0.6C844.2,669.6,839,671.8,833.7,671.8z M836.8,667.6l-1.2,2.8
								c2.9-0.3,5.6-1.4,6.7-2.8H836.8z"/>
						</g>
						<g>
							<path fill="#FFFFFF" d="M783.9,819.3h-15l4.5-10.3h1.7c7.2,0,11.4,4,9.3,9.1L783.9,819.3z M773.4,816.9h7.7
								c0.4-2.7-1.8-4.9-5.5-5.4L773.4,816.9z"/>
						</g>
						<g>
							<path fill="#FFFFFF" d="M847.2,731.4c-1.4,0-2.3-0.7-2-1.5c0.3-0.8,1.6-1.4,3-1.4s2.3,0.6,2,1.4
								C849.9,730.8,848.5,731.4,847.2,731.4z M847.8,729.7c-0.2,0-0.5,0.1-0.5,0.3c0,0.1,0.1,0.3,0.4,0.3c0.2,0,0.5-0.1,0.5-0.3
								C848.2,729.8,848,729.7,847.8,729.7z"/>
						</g>
						<g>
							<path fill="#FFFFFF" d="M1207.3,777.1h-67.5l-25.2-86h55.6L1207.3,777.1z M1142.4,775h60.7l-35-82.5h-50.4L1142.4,775z"/>
						</g>
						<g>
							<path fill="#FFFFFF" d="M1196.3,751.6H1172l-15.7-41.4h22.1L1196.3,751.6z M1174.4,749.7h18l-16.1-37.9h-16.5L1174.4,749.7z"
								/>
						</g>
						<g>
							<path fill="#FFFFFF" d="M1134.3,748.1l-2.8-1.2c-10.2-4.2-17-10.4-18.7-17c-1.7-6.3,1.7-12,9.1-15.8l2-1L1134.3,748.1z
								 M1122.1,716.6c-5.4,3.4-7.7,8.2-6.3,13.4c1.4,5.4,6.6,10.5,14.4,14.2L1122.1,716.6z"/>
						</g>
						<g>
							<path fill="#FFFFFF" d="M1208.4,742.5h-19L1179,718h18L1208.4,742.5z M1191.6,740.7h12.9l-9.7-21.1h-12.3L1191.6,740.7z"/>
						</g>
						<g>
							<polygon fill="#FFFFFF" points="1203.4,741.6 1200.4,741.6 1190.1,718.8 1193,718.8 							"/>
						</g>
						<g>
							<polygon fill="#FFFFFF" points="1197.4,741.6 1194.4,741.6 1184.4,718.8 1187.3,718.8 							"/>
						</g>
						<g>
							<g>
								<polygon fill="#FFFFFF" points="1197.3,721.9 1182,721.9 1181.3,720.2 1196.6,720.2 								"/>
							</g>
							<g>
								<polygon fill="#FFFFFF" points="1198.9,725.4 1183.5,725.4 1182.8,723.7 1198.2,723.7 								"/>
							</g>
							<g>
								<polygon fill="#FFFFFF" points="1200.6,729 1185.1,729 1184.3,727.3 1199.8,727.3 								"/>
							</g>
							<g>
								<polygon fill="#FFFFFF" points="1202.3,732.6 1186.6,732.6 1185.9,730.9 1201.5,730.9 								"/>
							</g>
							<g>
								<polygon fill="#FFFFFF" points="1204,736.3 1188.2,736.3 1187.5,734.6 1203.2,734.6 								"/>
							</g>
							<g>
								<polygon fill="#FFFFFF" points="1205.8,740.1 1189.8,740.1 1189.1,738.3 1204.9,738.3 								"/>
							</g>
						</g>
						<g>
							<path fill="#FFFFFF" d="M1161.9,671.8h-1.3c-5.3,0-10.4-2.2-11.5-4.8l-0.3-0.6h10.7L1161.9,671.8z M1152,667.6
								c1.1,1.4,3.8,2.5,6.7,2.8l-1.2-2.8H1152z"/>
						</g>
						<g>
							<path fill="#FFFFFF" d="M1225.5,819.3h-15l-0.5-1.2c-2-5,2.2-9.1,9.3-9.1h1.7L1225.5,819.3z M1213.2,816.9h7.7l-2.3-5.4
								C1215,812,1212.8,814.1,1213.2,816.9z"/>
						</g>
						<g>
							<path fill="#FFFFFF" d="M1147.2,731.4c-1.4,0-2.7-0.7-3-1.5c-0.3-0.8,0.6-1.4,2-1.4s2.7,0.6,3,1.4
								C1149.4,730.8,1148.5,731.4,1147.2,731.4z M1146.6,729.7c-0.2,0-0.4,0.1-0.4,0.3c0,0.1,0.3,0.3,0.5,0.3
								c0.2,0,0.4-0.1,0.4-0.3C1147.1,729.8,1146.8,729.7,1146.6,729.7z"/>
						</g>
					</g>
				</g>
				<rect x="728.6" y="834.7" fill="#2B3990" width="537.2" height="41.1"/>
				<rect x="938" y="834.7" fill="#FFFFFF" width="118.4" height="41.1"/>
				<rect x="941.4" y="838.1" fill="#A7A9AC" width="111.5" height="34.2"/>
			</g>
			<g>
				<g>
					<polygon fill="#FFFFFF" points="728.6,834.7 837.9,834.7 792,887 728.6,887 					"/>
					<polygon fill="#00A79D" points="732,883.6 732,838.1 830.3,838.1 790.5,883.6 					"/>
				</g>
				<g>
					<polygon fill="#FFFFFF" points="1265.7,834.7 1156.4,834.7 1202.3,887 1265.7,887 					"/>
					<polygon fill="#FBB040" points="1262.3,883.6 1262.3,838.1 1164,838.1 1203.9,883.6 					"/>
				</g>
			</g>
			<g>
				<g>
					<path fill="#1B222A" d="M983.8,859.5h4.6l-0.2,6.9h-17.6c0-0.4,0-0.7,0-0.7c0-2.1,0.4-3.9,1.3-5.5c0.5-0.8,1.1-1.7,1.9-2.5
						s1.8-1.7,2.9-2.5c2-1.4,3.2-2.5,3.8-3.1c0.6-0.7,0.8-1.3,0.8-2c0-0.6-0.2-1.2-0.6-1.6c-0.4-0.4-1-0.6-1.7-0.6
						c-1.6,0-2.4,1-2.4,3.1l-5.7-0.2c0.1-2.5,1-4.3,2.5-5.4c1.6-1,3.6-1.6,6-1.6c2.6,0,4.8,0.6,6.4,1.8c1.6,1.2,2.4,2.8,2.4,4.8
						c0,1.3-0.4,2.4-1.2,3.5c-0.8,1.1-2.5,2.2-4.9,3.4c-1.9,1-3.2,1.7-3.9,2.2c-0.7,0.5-1.2,1.1-1.5,1.8h7L983.8,859.5z"/>
					<path fill="#1B222A" d="M1003.9,862.2h-11.4v-6.9h11.4V862.2z"/>
					<path fill="#1B222A" d="M1023.7,866.5h-13.2v-5.1h3.1v-10c-0.6,0.1-1.4,0.2-2.4,0.2c-0.3,0-0.6,0-0.8,0v-4.9c0.1,0,0.3,0,0.4,0
						c1.4,0,2.7-0.3,3.9-0.8c1.2-0.6,2.1-1.2,2.6-2h3.3v17.5h3.1V866.5z"/>
				</g>
			</g>
			<g>
				<g>
					<path fill="#FFFFFF" d="M856,860.3V849h-3.1v3.8h-1.9v-5.7h12.2v5.7h-1.9V849h-3.1v11.3h2v1.9h-6.1v-1.9H856z"/>
					<path fill="#FFFFFF" d="M866,860.3V849h-1.9v-1.9h12.5v4.5h-1.9V849h-6.4v4.5h5.6v1.9h-5.6v4.9h6.4v-2.7h1.9v4.6h-12.5v-1.9
						H866z"/>
					<path fill="#FFFFFF" d="M887.8,856.9h-5.4l-1.1,3.4h1.8v1.9h-5.9v-1.9h1.8l4.1-11.5h-1.8v-1.7h7.7v1.7h-1.9l4.2,11.5h1.7v1.9
						h-5.9v-1.9h1.9L887.8,856.9z M887.2,855.1l-2-6.3H885l-2.1,6.3H887.2z"/>
					<path fill="#FFFFFF" d="M895.1,860.3V849h-1.8v-1.9h5.1l4,10.3l4-10.3h5.2v1.9h-1.8v11.3h1.8v1.9h-5.7v-1.9h1.8V849l-5.2,13.3
						h-0.4L897,849v11.3h1.7v1.9h-5.3v-1.9H895.1z"/>
				</g>
				<g>
					<path fill="#FFFFFF" d="M1087.7,860.3V849h-3.1v3.8h-1.9v-5.7h12.2v5.7h-1.9V849h-3.1v11.3h2v1.9h-6.1v-1.9H1087.7z"/>
					<path fill="#FFFFFF" d="M1097.7,860.3V849h-1.9v-1.9h12.5v4.5h-1.9V849h-6.4v4.5h5.6v1.9h-5.6v4.9h6.4v-2.7h1.9v4.6h-12.5v-1.9
						H1097.7z"/>
					<path fill="#FFFFFF" d="M1119.5,856.9h-5.4l-1.1,3.4h1.8v1.9h-5.9v-1.9h1.8l4.1-11.5h-1.8v-1.7h7.7v1.7h-1.9l4.2,11.5h1.7v1.9
						h-5.9v-1.9h1.9L1119.5,856.9z M1118.9,855.1l-2-6.3h-0.2l-2.1,6.3H1118.9z"/>
					<path fill="#FFFFFF" d="M1126.8,860.3V849h-1.8v-1.9h5.1l4,10.3l4-10.3h5.2v1.9h-1.8v11.3h1.8v1.9h-5.7v-1.9h1.8V849l-5.2,13.3
						h-0.4l-5.1-13.3v11.3h1.7v1.9h-5.3v-1.9H1126.8z"/>
				</g>
			</g>
		</g>
	</g>
</g>
</svg>
