<svg id="Capa_1" enable-background="new 0 0 512 512" height="512" viewBox="0 0 512 512" width="512" xmlns="http://www.w3.org/2000/svg"><g><g><path d="m7.5 278.918v-167.55c0-26.126 16.906-49.249 41.802-57.174l146.698-46.694h120l146.698 46.694c24.896 7.924 41.802 31.047 41.802 57.174v167.55c0 8.284-6.716 15-15 15h-467c-8.284 0-15-6.716-15-15z" fill="#fe9738"/><path d="m462.698 54.194-146.698-46.694h-120l-30 15h120l146.698 46.694c24.896 7.924 41.802 31.047 41.802 57.174v167.55h15c8.284 0 15-6.716 15-15v-167.55c0-26.126-16.906-49.249-41.802-57.174z" fill="#fe860a"/><path d="m413.434 204.633v284.867c0 8.284-6.716 15-15 15h-284.868c-8.284 0-15-6.716-15-15v-284.867z" fill="#fe9738"/><path d="m128.566 489.5v-261.763c0-16.569-13.431-30-30-30v291.763c0 8.284 6.716 15 15 15h30c-8.284 0-15-6.716-15-15z" fill="#fe860a"/><path d="m413.434 197.737c-16.569 0-30 13.431-30 30v261.763c0 8.284-6.716 15-15 15h30c8.284 0 15-6.716 15-15z" fill="#fe860a"/><g><path d="m317.946 8.274c-.244 38.673-18.699 74.991-49.841 97.973l-11.126 8.211-11.126-8.211c-31.351-23.136-49.853-59.784-49.853-98.747-9.958 3.17-19.916 6.339-29.874 9.509-.042 1.069-.084 2.137-.126 3.206 0 40.492 19.228 78.577 51.808 102.62l39.171 28.907 39.171-28.907c32.58-24.043 51.808-62.129 51.808-102.62.138-.804.277-1.607.415-2.411-10.142-3.176-20.284-6.353-30.427-9.53z" fill="#0067c5"/><path d="m318.078 7.519c-.038 10.921-1.562 32.287-13.466 55.625-11.712 22.961-27.758 36.628-36.512 43.106l-11.12 8.21-11.13-8.21c-31.35-23.14-49.85-59.79-49.85-98.75 40.693.006 81.386.013 122.078.019z" fill="#efedef"/><path d="m317.958 7.5h-1.958l1.946.774c.002-.258.012-.515.012-.774z" fill="#97d729"/></g><path d="m504.5 248.918h-91.066v45h76.066c8.284 0 15-6.716 15-15z" fill="#0067c5"/><path d="m504.5 248.918h-91.066v45h76.066c8.284 0 15-6.716 15-15z" fill="#0067c5"/><path d="m474.5 293.918h15c8.284 0 15-6.716 15-15v-30h-30z" fill="#0055a3"/><path d="m7.5 248.918h91.066v45h-76.066c-8.284 0-15-6.716-15-15z" fill="#0067c5"/><g><path d="m164.398 257.94c-9.483-5.989-15.145-16.027-15.145-26.851v-27.505c5.829-.338 11.541-1.479 17.027-3.403 4.705-1.65 9.164-3.853 13.3-6.565 4.208 2.819 8.766 5.087 13.596 6.762 5.414 1.877 11.052 2.969 16.801 3.257v27.455c0 10.825-5.662 20.863-15.145 26.852l-15.217 9.609z" fill="#0067c5"/></g></g><path d="m413.434 422.584c-4.142 0-7.5 3.358-7.5 7.5v59.416c0 4.136-3.364 7.5-7.5 7.5h-284.868c-4.136 0-7.5-3.364-7.5-7.5v-195.512c0-.023.003-.045.003-.068s-.003-.045-.003-.068v-89.219c0-4.142-3.358-7.5-7.5-7.5s-7.5 3.358-7.5 7.5v36.785h-76.066v-130.048c0-22.957 14.699-43.063 36.574-50.033l31.762-10.109c3.947-1.256 6.128-5.475 4.873-9.421-1.256-3.947-5.477-6.125-9.421-4.873l-31.765 10.11c-28.126 8.961-47.023 34.812-47.023 64.326v167.55c0 12.407 10.093 22.5 22.5 22.5h68.566v188.08c0 12.407 10.093 22.5 22.5 22.5h284.867c12.407 0 22.5-10.093 22.5-22.5v-59.416c.001-4.142-3.357-7.5-7.499-7.5zm-322.368-136.164h-68.566c-4.135 0-7.5-3.364-7.5-7.5v-22.502h76.066zm84.544-12.529c2.447 1.545 5.563 1.545 8.009 0l15.218-9.609c11.671-7.371 18.64-19.78 18.64-33.193v-27.455c0-3.996-3.133-7.291-7.125-7.491-5.036-.252-9.988-1.212-14.72-2.853-4.21-1.459-8.206-3.446-11.877-5.906-2.503-1.677-5.768-1.693-8.287-.041-3.625 2.377-7.552 4.315-11.67 5.76-4.813 1.688-9.853 2.695-14.979 2.993-3.967.23-7.065 3.514-7.065 7.487v27.505c0 13.414 6.968 25.822 18.641 33.192zm-18.857-63.59c4.088-.656 8.106-1.674 12.01-3.043 3.731-1.309 7.341-2.936 10.779-4.855 3.552 2.02 7.295 3.715 11.177 5.061 3.824 1.325 7.757 2.305 11.757 2.929v20.696c0 8.236-4.355 15.904-11.649 20.51l-11.213 7.081-11.212-7.081c-7.294-4.606-11.649-12.273-11.649-20.51zm172.952 62.603c3.711 1.631 8.201-.007 9.884-3.848l30.024-68.301c1.02-2.319.799-4.996-.585-7.118s-3.747-3.4-6.28-3.4h-37.575c-4.142 0-7.5 3.358-7.5 7.5s3.358 7.5 7.5 7.5h26.085l-25.4 57.783c-1.668 3.792.055 8.217 3.847 9.884zm135.27-225.861c-35.509-11.314-116.256-37.007-146.7-46.69-.736-.234-1.503-.353-2.275-.353h-120c-.353 0-.698.033-1.038.08-.073.01-.144.021-.217.033-.347.059-.688.135-1.017.239-.001 0-.002 0-.003.001l-87.788 27.94c-3.947 1.256-6.128 5.475-4.873 9.421 1.256 3.947 5.477 6.126 9.421 4.873l48.279-15.366c.765 14.79 4.174 33.907 14.223 53.847 9.457 18.765 23.415 35.294 40.366 47.802l39.171 28.907c2.648 1.954 6.26 1.954 8.907 0l39.194-28.925c16.861-12.548 30.806-29.062 40.327-47.755 10.017-19.666 13.622-38.538 14.609-53.135l104.86 33.374c21.88 6.971 36.579 27.078 36.579 50.034v130.048h-76.066v-36.785c0-4.142-3.358-7.5-7.5-7.5s-7.5 3.358-7.5 7.5v89.219c0 .023-.003.045-.003.068s.003.045.003.068v106.096c0 4.142 3.358 7.5 7.5 7.5s7.5-3.358 7.5-7.5v-98.664h68.566c12.407 0 22.5-10.093 22.5-22.5v-167.55c0-29.514-18.897-55.365-47.025-64.327zm-154.764-32.043c-2.226 33.627-19.301 65.093-46.565 85.216l-6.667 4.922-6.674-4.923c-27.288-20.141-44.329-51.578-46.549-85.215zm17.377 59.29c-8.479 16.646-20.898 31.353-35.892 42.511l-34.717 25.62-34.718-25.621c-10.507-7.753-25.261-21.417-35.877-42.482-9.857-19.557-12.526-38.227-12.779-51.82l15.307-4.872c2.95 37.392 22.092 72.225 52.486 94.659l11.13 8.21c1.324.977 2.888 1.464 4.452 1.464 1.565 0 3.131-.489 4.455-1.466l11.119-8.209c30.201-22.289 49.329-56.898 52.445-94.049l15.795 5.027c-.499 13.422-3.414 31.802-13.206 51.028zm169.412 204.63c0 4.136-3.364 7.5-7.5 7.5h-68.566v-30.002h76.066z"/></g></svg>