<svg xmlns="http://www.w3.org/2000/svg" viewBox="0 0 377.71 151.84"><defs><style>.cls-1{fill:#258c39;}.cls-2{fill:#33b63f;}.cls-3{opacity:0.15;}.cls-4{fill:#fff;}</style></defs><g id="Layer_2" data-name="Layer 2"><g id="Layer_4" data-name="Layer 4"><polygon class="cls-1" points="377.71 151.84 0.11 151.84 0 130.52 58.11 21.33 319.71 21.33 377.61 130.52 377.71 151.84"/><polygon class="cls-2" points="377.61 130.52 0 130.52 58 0 319.61 0 377.61 130.52"/><polygon class="cls-2" points="355.2 121.37 22.41 121.37 69.16 4.56 308.45 4.56 355.2 121.37"/><g class="cls-3"><polygon class="cls-4" points="147.89 4.56 133.54 4.56 111.94 121.37 131.9 121.37 147.89 4.56"/><polygon class="cls-4" points="116.09 4.56 101.74 4.56 67.71 121.37 87.67 121.37 116.09 4.56"/><polygon class="cls-4" points="179.69 4.56 165.34 4.56 156.17 121.37 176.13 121.37 179.69 4.56"/><polygon class="cls-4" points="23.48 121.37 43.44 121.37 84.29 4.56 69.94 4.56 23.48 121.37"/><polygon class="cls-4" points="306.9 4.56 292.55 4.56 333.09 121.37 353.05 121.37 306.9 4.56"/><polygon class="cls-4" points="275.09 4.56 260.75 4.56 288.86 121.37 308.82 121.37 275.09 4.56"/><polygon class="cls-4" points="243.29 4.56 228.94 4.56 244.63 121.37 264.59 121.37 243.29 4.56"/><polygon class="cls-4" points="211.49 4.56 197.14 4.56 200.4 121.37 220.36 121.37 211.49 4.56"/></g><polygon class="cls-4" points="83.59 89.08 35.33 89.08 35.6 88.41 82.78 88.41 100.54 24.29 61.26 24.29 61.45 23.82 101.49 23.82 83.59 89.08"/><polygon class="cls-4" points="58.65 68.89 43.41 68.89 43.65 68.29 57.92 68.29 68.28 39.58 55.14 39.58 55.34 39.08 69.33 39.08 58.65 68.89"/><polygon class="cls-4" points="342.28 89.08 294.02 89.08 276.12 23.82 316.16 23.82 316.34 24.29 277.07 24.29 294.83 88.41 342.01 88.41 342.28 89.08"/><polygon class="cls-4" points="334.2 68.89 318.96 68.89 308.28 39.08 322.26 39.08 322.47 39.58 309.32 39.58 319.69 68.29 333.96 68.29 334.2 68.89"/><polygon class="cls-4" points="189.48 121.37 188.4 121.37 188.51 4.56 189.29 4.56 189.48 121.37"/><path class="cls-4" d="M355.9,121.76H21.71L68.85,4.35h239.9ZM23.1,121H354.51L308.14,4.76H69.47Z"/><path class="cls-4" d="M188.88,69.19c-14.39,0-25.57-7.31-25-15.91.59-8.2,11.77-14.58,25-14.58s24.37,6.38,25,14.58C214.46,61.88,203.27,69.19,188.88,69.19Zm0-30c-12.73,0-23.51,6.17-24.06,14.08-.57,8.28,10.21,15.31,24.06,15.31s24.63-7,24.05-15.31C212.39,45.37,201.6,39.2,188.88,39.2Z"/><path class="cls-4" d="M287.73,65.63c-7-3.09-11.68-7.62-12.85-12.35s1.21-8.86,6.4-11.6l.65.41c-5,2.65-7.27,6.7-6.15,11.19s5.64,8.92,12.4,11.89Z"/><path class="cls-4" d="M90,65.63l-.45-.46c6.76-3,11.26-7.33,12.4-11.89s-1.16-8.54-6.16-11.19l.65-.41c5.19,2.74,7.56,7,6.41,11.6S97,62.54,90,65.63Z"/><path class="cls-4" d="M309.7,7.69c-3.28,0-6.48-1.4-7.13-3.12v0h.78v0c.57,1.48,3.34,2.7,6.19,2.7Z"/><path class="cls-4" d="M347.06,121.39l0-.08c0-.1-.1-.2-.14-.3-1.23-3.26,1.39-5.87,5.83-5.87l.3.76c-3.86,0-6.13,2.28-5.05,5.11l.12.25,0,.08Z"/><path class="cls-4" d="M67.91,7.69l.16-.41c2.84,0,5.62-1.22,6.19-2.71H75C74.39,6.29,71.18,7.69,67.91,7.69Z"/><path class="cls-4" d="M30.55,121.39l-1.06,0,0-.07.11-.26c1.09-2.83-1.18-5.11-5.05-5.11l.31-.76c4.44,0,7.06,2.61,5.82,5.87,0,.1-.09.21-.14.31Z"/><path class="cls-4" d="M190.16,53.42c0,.41-.56.75-1.24.75s-1.25-.34-1.24-.75.55-.76,1.24-.76S190.16,53,190.16,53.42Z"/><path class="cls-4" d="M300.93,53.42c.14.41-.31.75-1,.75a1.58,1.58,0,0,1-1.48-.75c-.13-.42.32-.76,1-.76A1.57,1.57,0,0,1,300.93,53.42Z"/><path class="cls-4" d="M79.27,53.42a1.57,1.57,0,0,1-1.48.75c-.69,0-1.14-.34-1-.75a1.57,1.57,0,0,1,1.48-.76C79,52.66,79.4,53,79.27,53.42Z"/></g></g></svg>