<svg xmlns="http://www.w3.org/2000/svg" viewBox="0 0 298.02 257.63"><defs><style>.cls-1{fill:#58aa46;}.cls-2{fill:#438f42;}.cls-3{fill:#fff;}.cls-4{fill:#fbb040;}</style></defs><g id="Layer_2" data-name="Layer 2"><g id="Layer_1-2" data-name="Layer 1"><polygon class="cls-1" points="0 238.52 46.55 0 251.48 0 298.02 238.52 0 238.52"/><polygon class="cls-2" points="24.7 111.93 27.58 97.19 270.44 97.19 273.32 111.93 24.7 111.93"/><polygon class="cls-2" points="18.52 143.6 21.69 127.38 276.33 127.38 279.5 143.6 18.52 143.6"/><polygon class="cls-2" points="11.7 178.59 15.2 160.65 282.82 160.65 286.33 178.59 11.7 178.59"/><polygon class="cls-2" points="4.11 217.44 8.01 197.49 290.01 197.49 293.91 217.44 4.11 217.44"/><polygon class="cls-2" points="32.95 69.67 30.33 83.12 267.69 83.12 265.07 69.67 32.95 69.67"/><polygon class="cls-2" points="37.87 44.48 35.46 56.8 262.56 56.8 260.15 44.48 37.87 44.48"/><polygon class="cls-2" points="42.38 21.34 40.17 32.67 257.85 32.67 255.64 21.34 42.38 21.34"/><polygon class="cls-2" points="46.55 0 44.51 10.46 253.52 10.46 251.48 0 46.55 0"/><path class="cls-3" d="M21.78,217.4,57.24,10.48H240.78L276.24,217.4ZM59.16,11.63,25.09,215.19H272.93L238.86,11.63Z"/><polygon class="cls-3" points="43.48 97.97 43.74 96.41 254.28 96.41 254.54 97.97 43.48 97.97"/><path class="cls-3" d="M119.38,97.19C119.87,87,133.15,78.94,149,78.94s29.14,8,29.63,18.25c.5,10.54-12.78,19.38-29.63,19.38S118.88,107.73,119.38,97.19Zm56.8,0c-.41-9.36-12.59-16.78-27.17-16.78s-26.76,7.42-27.17,16.78c-.42,9.65,11.76,17.73,27.17,17.73S176.6,106.84,176.18,97.19Z"/><path class="cls-3" d="M94,35.58l2.46-25.1h105.2l2.46,25.1Zm4.47-23.95L96.28,34.32H201.74L199.6,11.63Z"/><path class="cls-3" d="M123.07,19.73l.44-9.25h51l.44,9.25Zm2.51-8.1-.3,6.91h47.47l-.31-6.91Z"/><path class="cls-3" d="M126.55,34.32h44.92l-1.35,1c-5,3.78-12.71,6-21.11,6s-16.11-2.19-21.11-6Zm40.31,1.26h-35.7c4.56,2.83,11,4.44,17.85,4.44S162.3,38.41,166.86,35.58Z"/><path class="cls-3" d="M133.85,11.63l.2-7.21H164l.2,7.21Zm2.27-6.08L136,10.48h26l-.12-4.93Z"/><polygon class="cls-3" points="135.02 7.29 135.05 6.15 162.97 6.15 163 7.29 135.02 7.29"/><polygon class="cls-3" points="134.96 9.56 134.99 8.41 163.03 8.41 163.06 9.56 134.96 9.56"/><polygon class="cls-3" points="159.16 11.05 159.05 4.99 161.14 4.99 161.28 11.05 159.16 11.05"/><polygon class="cls-3" points="154.68 11.05 154.62 4.99 156.71 4.99 156.8 11.05 154.68 11.05"/><polygon class="cls-3" points="150.19 11.05 150.18 4.99 152.28 4.99 152.31 11.05 150.19 11.05"/><polygon class="cls-3" points="145.71 11.05 145.75 4.99 147.84 4.99 147.83 11.05 145.71 11.05"/><polygon class="cls-3" points="141.22 11.05 141.31 4.99 143.41 4.99 143.34 11.05 141.22 11.05"/><polygon class="cls-3" points="136.74 11.05 136.88 4.99 138.97 4.99 138.86 11.05 136.74 11.05"/><path class="cls-3" d="M231.89,11.05l-.09-.57h9l.85,4.95h-1.07C236.15,15.43,232.26,13.46,231.89,11.05Zm7,.58h-4.67c.64,1.3,2.69,2.33,5.1,2.57Z"/><path class="cls-3" d="M56.39,15.43l.85-4.95h9l-.08.57c-.38,2.41-4.27,4.38-8.68,4.38Zm2.77-3.8-.43,2.57c2.42-.24,4.46-1.27,5.1-2.57Z"/><path class="cls-3" d="M147.11,26.8c0-.57.83-1,1.84-1s1.85.46,1.85,1S150,27.85,149,27.85,147.1,27.38,147.11,26.8Zm2.18,0c0-.1-.15-.18-.34-.18s-.33.08-.33.18.15.19.33.19S149.29,26.91,149.29,26.8Z"/><path class="cls-3" d="M76.09,217.4,80.35,174H217.67l4.26,43.39ZM82.93,176l-3.7,39.21H218.79L215.09,176Z"/><path class="cls-3" d="M113.66,217.4l.81-17.08h69.08l.81,17.08Zm3.59-15-.56,12.75h64.64l-.56-12.75Z"/><path class="cls-3" d="M120.86,176l1.8-1.59c6.54-5.81,16.12-9.09,26.35-9.09s19.81,3.28,26.35,9.09l1.8,1.59Zm50.4-2c-5.87-4.35-13.81-6.79-22.25-6.79s-16.38,2.44-22.25,6.79Z"/><path class="cls-3" d="M127.7,229.36l.4-14.17h41.82l.4,14.17Zm3.27-12-.24,9.67h36.56l-.24-9.67Z"/><polygon class="cls-3" points="129.28 225.89 129.34 223.62 168.68 223.62 168.74 225.89 129.28 225.89"/><polygon class="cls-3" points="129.4 221.4 129.46 219.16 168.56 219.16 168.62 221.4 129.4 221.4"/><polygon class="cls-3" points="163.28 228.22 163.05 216.29 165.98 216.29 166.25 228.22 163.28 228.22"/><polygon class="cls-3" points="156.98 228.22 156.85 216.29 159.78 216.29 159.95 228.22 156.98 228.22"/><polygon class="cls-3" points="150.67 228.22 150.65 216.29 153.58 216.29 153.65 228.22 150.67 228.22"/><polygon class="cls-3" points="144.37 228.22 144.44 216.29 147.37 216.29 147.35 228.22 144.37 228.22"/><polygon class="cls-3" points="138.07 228.22 138.24 216.29 141.17 216.29 141.04 228.22 138.07 228.22"/><polygon class="cls-3" points="131.77 228.22 132.04 216.29 134.97 216.29 134.74 228.22 131.77 228.22"/><path class="cls-3" d="M263.78,217.4l-.17-1.11c-.7-4.54,3.6-8.2,9.58-8.2h1.45l1.6,9.31Zm8.35-7c-3.17.45-5.42,2.38-5.63,4.83h6.43Z"/><path class="cls-3" d="M21.78,217.4l1.6-9.31h1.45c6,0,10.28,3.66,9.58,8.2l-.17,1.11Zm4.11-7-.8,4.83h6.43C31.31,212.74,29.06,210.81,25.89,210.36Z"/><path class="cls-3" d="M146.55,188.15c0-1,1.07-1.73,2.39-1.73s2.38.77,2.38,1.73-1.06,1.74-2.38,1.74S146.55,189.11,146.55,188.15Zm2.82,0c0-.17-.2-.31-.43-.31s-.43.14-.43.31.19.31.43.31S149.37,188.32,149.37,188.15Z"/><rect class="cls-4" y="238.52" width="298.02" height="19.11"/></g></g></svg>