<svg xmlns="http://www.w3.org/2000/svg" viewBox="0 0 377.71 325.07"><defs><style>.cls-1{fill:#258c39;}.cls-2{fill:#33b63f;}.cls-3{opacity:0.15;}.cls-4{fill:#fff;}</style></defs><g id="Layer_2" data-name="Layer 2"><g id="Layer_4" data-name="Layer 4"><polygon class="cls-1" points="377.71 325.07 0.1 325.07 0 303.74 58.1 194.56 319.71 194.56 377.61 303.74 377.71 325.07"/><polygon class="cls-2" points="315.47 0 377.71 303.84 0.47 303.84 62.71 0 315.47 0"/><polygon class="cls-2" points="304.82 10.27 354.93 281.87 23.25 281.87 73.36 10.27 304.82 10.27"/><g class="cls-3"><polygon class="cls-4" points="43.93 169.78 40.55 188.08 337.63 188.08 334.25 169.78 43.93 169.78"/><polygon class="cls-4" points="36.23 211.51 32.48 231.83 345.7 231.83 341.95 211.51 36.23 211.51"/><polygon class="cls-4" points="50.89 132.06 47.83 148.62 330.35 148.62 327.29 132.06 50.89 132.06"/><polygon class="cls-4" points="354.7 280.61 350.51 257.92 27.67 257.92 23.48 280.61 354.7 280.61"/><polygon class="cls-4" points="73.13 11.5 70.99 23.13 307.19 23.13 305.05 11.5 73.13 11.5"/><polygon class="cls-4" points="68.27 37.85 65.94 50.48 312.24 50.48 309.91 37.85 68.27 37.85"/><polygon class="cls-4" points="62.99 66.5 60.45 80.27 317.74 80.27 315.19 66.5 62.99 66.5"/><polygon class="cls-4" points="57.22 97.78 54.43 112.85 323.75 112.85 320.97 97.78 57.22 97.78"/></g><polygon class="cls-4" points="277.44 224.58 283.46 281.87 281.85 281.87 276.05 225.69 102.13 225.69 96.33 281.87 94.72 281.87 100.74 224.58 277.44 224.58"/><polygon class="cls-4" points="231.37 261.92 232.32 281.87 230.72 281.87 229.85 263.13 147.94 263.13 147.06 281.87 145.45 281.87 146.42 261.92 231.37 261.92"/><polygon class="cls-4" points="254.94 10.27 258.23 41.55 119.95 41.55 123.24 10.27 124.36 10.27 121.2 40.88 256.98 40.88 253.82 10.27 254.94 10.27"/><polygon class="cls-4" points="219.26 10.27 219.75 20.36 158.15 20.36 158.64 10.27 159.76 10.27 159.32 19.73 218.58 19.73 218.14 10.27 219.26 10.27"/><polygon class="cls-4" points="325.32 121.37 325.48 122.22 52.7 122.22 52.86 121.37 325.32 121.37"/><path class="cls-4" d="M305.32,10,355.85,282.5H22.33L72.86,10ZM354,281.24,304.32,10.58H73.87L24.17,281.24Z"/><path class="cls-4" d="M225.29,121.83c.64,13.23-15.74,24.36-36.54,24.36s-37.18-11.13-36.52-24.36c.64-12.78,17-22.85,36.54-22.85S224.66,109.05,225.29,121.83Zm-71.74,0c-.61,12.75,15.17,23.45,35.2,23.45s35.82-10.7,35.22-23.45c-.59-12.32-16.37-22-35.2-22S154.15,109.51,153.55,121.83Z"/><path class="cls-4" d="M214.31,41.45c-6.09,4.54-15.41,7.18-25.52,7.18S169.23,46,163.15,41.35l.94-.42c5.86,4.44,14.89,7,24.7,7S207.5,45.4,213.37,41Z"/><path class="cls-4" d="M221.33,224.62l-1.16.69c-7.86-7.05-19.29-11-31.45-11s-23.77,4-31.64,11.2l-1.16-.68c8.17-7.41,20.09-11.6,32.8-11.6S213.16,217.32,221.33,224.62Z"/><path class="cls-4" d="M81.91,10.27c-.44,2.58-4.65,4.7-9.37,4.7h-.07l.16-.62h.05c4.07,0,7.72-1.83,8.11-4.07Z"/><path class="cls-4" d="M305.72,15h-.55c-4.72,0-8.92-2.12-9.36-4.7h1.12c.38,2.24,4,4.07,8.12,4.07h.48Z"/><path class="cls-4" d="M35.49,281.87h-1.6c.79-4.56-3.28-8.23-9.06-8.23L25,272.4C31.71,272.4,36.39,276.62,35.49,281.87Z"/><path class="cls-4" d="M353.24,272.43l.13,1.23h-.16l-.52,0c-5.78,0-9.85,3.67-9.07,8.23H342c-.9-5.25,3.79-9.47,10.44-9.47l.64,0Z"/><path class="cls-4" d="M189.09,120.62c1,0,1.81.53,1.82,1.17s-.82,1.18-1.82,1.18-1.82-.53-1.81-1.18S188.09,120.62,189.09,120.62Z"/><path class="cls-4" d="M189.09,29.26c.88,0,1.59.4,1.59.9s-.71.9-1.59.9-1.59-.4-1.59-.9S188.21,29.26,189.09,29.26Z"/><path class="cls-4" d="M189.09,242.22a1.92,1.92,0,0,1,2.12,1.59c0,.88-1,1.59-2.12,1.59s-2.12-.71-2.11-1.59S187.92,242.22,189.09,242.22Z"/></g></g></svg>